<?xml version="1.0" encoding="UTF-8"?><svg id="b" xmlns="http://www.w3.org/2000/svg" viewBox="0 0 42.52 42.52"><g id="c"><path d="M36.37,11.32s-.02.05-.03.08c0-.03.02-.05.03-.08Z" style="fill:#fff; opacity:.35;"/><path d="M36.11,10.72c.05.03.09.08.13.12-.04-.04-.07-.08-.13-.12-.68-.43-1.35-.5-1.95-.35t0,0c.6-.15,1.27-.08,1.95.35Z" style="fill:#fff; opacity:.35;"/><path d="M32.96,13.08c-.1.26-.18.54-.25.81.07-.27.15-.54.25-.81Z" style="fill:#fff; opacity:.35;"/><path d="M29.61,21.95c-.26-.85-.78-1.55-1.38-2.18.48.51.97,1.3,1.33,2.21.01,0,.03-.02.05-.03Z" style="fill:#fff; opacity:.35;"/><path d="M35.52,11.73c-.13-.08-.26-.15-.38-.19h0c.12.05.25.11.38.19.31.2.61.05.77-.19-.15.24-.45.39-.77.19Z" style="fill:#fff; opacity:.35;"/><path d="M29.99,23.47h0c1.1-.23,2-.87,2.51-1.79-.51.92-1.41,1.56-2.51,1.79Z" style="fill:#fff; opacity:.35;"/><path d="M33.07,12.82c.24-.55.57-1.02.99-1.24h0c-.42.22-.75.69-.99,1.24Z" style="fill:#fff; opacity:.35;"/><path d="M34.59,24.8c0,.73-7.14,8.84-7.87,9.4-.73.57-9.73,3.02-10.85,4.26,1.12-1.24,11.24-3.01,11.97-3.58.73-.57,7.4-9.02,7.4-9.75,0-.5-.46-1.05-1.07-1.31.3.2.42.56.42.99Z" style="fill:#fff; opacity:.35;"/><path d="M21.26,0C9.52,0,0,9.52,0,21.26c0,5.02,1.75,9.62,4.66,13.26.86-1.33,1.48-2.29,1.65-2.54.71-1.08.78-3.59,3.14-4.92,1.49-.83,4.15-1.03,6.16-1.04-.67-1.32-1-3.04-1.24-4.47-.26,0-.51-.04-.71-.14-.72-.36-1.11-.99-1.4-1.42-.04.06-.1.09-.2.09-.29-.02-.19-.4-.16-.51,0,0,0,0,0,0-.04.11-.18.42-.3.36,0,0-.01-.02-.02-.03-.03.16-.07.28-.19.22-.15-.07-.2-.21-.21-.33-.01.14-.07.3-.27.29-.34-.02-.15-.56-.15-.56,0,0-.18.48-.32.41-.14-.07-.18-1.06.55-1.47,0,0,.01,0,.02,0-.02-.02-.05-.04-.07-.07.31-.1.73-.07,1.17,0,.41-.12.98-.04,1.56.08-.54-1.62-1.41-4.01-1.55-4.51-.17-.59-.93-1.94-1.18-2.39-.25-.45-.01-1.68-.01-1.68,0,0-.23-.34-.23-.69,0-.21.07-.42.33-.56,0,0,0,0,0,0,.18-.09.57-.05,1.07.06.03-.02.04-.04.07-.06.46-.26,2.39.37,4,1.14,0-.02,0-.05,0-.07,0-.06,0-.11,0-.17,0-.2,0-.4.02-.6,0-.01,0-.02,0-.03,0,0,0,0,0,0,.03-.4.09-.81.18-1.2,0,0,0,0,0,0,.03-.12.06-.24.09-.36,0-.01,0-.03.01-.04.03-.11.07-.21.11-.31,0-.02.01-.03.02-.05.04-.1.08-.19.12-.27,0-.02.02-.03.02-.04.04-.08.09-.16.14-.23,0-.01.02-.02.02-.03.05-.07.1-.13.16-.19,0,0,.01,0,.02-.01.06-.05.12-.1.18-.13.48-.24.93-.25,1.37-.09.73-.27,1.42-.07,2.07.63,0,0,0,0,.01,0,.04.04.07.09.11.13.05.05.09.1.14.16.02.02.04.04.05.06.08.1.16.21.23.33.13.19.25.4.37.63l.11.26v.03s.01.01.02.02c0,0,0,0,0,0,0,0,0,0,0,0,0,0,0,0,0,.01,0,0,0,0,0,0,0,0,0,0,0,.01,0,0,0,0,0,0,0,0,0,0,0,.01,0,0,0,0,0,0,0,0,0,0,0,.01.02,0,.03,0,.05,0,.09,0,.17,0,.25.03.31.09.57.22.78.41.61.57.73,1.6.36,3.12-.05.19-.13.34-.23.48,0,.01-.01.03-.02.04,0,0,0-.01,0-.02-.48.64-1.45.79-2.43.67-.16.02-.33.04-.51.04.57.75,1.21,1.6,2.07,2.54,1.88,2.06,4.93,2.9,6.15,4.19.6.64,1.12,1.34,1.38,2.18,1.32-.91.89-3.06.65-4.65-.2-1.36-.16-2.8.22-4.12.48-1.68,1.96-3.25,3.67-2.82.6-.15,1.27-.08,1.95.35.05.03.09.08.13.12.13.14.17.31.14.48,0,.03-.02.05-.03.08-.02.05-.03.1-.06.14-.15.24-.45.39-.77.19-.13-.08-.26-.15-.38-.19-.15.24-.45.39-.77.19-.11-.07-.21-.11-.3-.15-.42.22-.75.69-.99,1.24-.04.08-.07.17-.11.26-.1.26-.18.54-.25.81-.15.61-.23,1.21-.24,1.61-.04,1.48.5,2.88.5,4.35,0,.69-.18,1.3-.47,1.83-.51.92-1.41,1.56-2.51,1.79.03.13.05.27.06.4.26-.16.5-.28.72-.3.25-.02.49.04.72.13.15-.07.3-.12.43-.13.27-.02.53.03.77.14.09.02.18.05.27.08.1-.05.2-.09.3-.11.4-.07.7,0,.91.13.6.26,1.07.82,1.07,1.31,0,.73-6.67,9.18-7.4,9.75-.73.57-10.85,2.35-11.97,3.58-.62.68-1.12,1.68-1.58,2.87,2.19.76,4.52,1.19,6.97,1.19,11.74,0,21.26-9.52,21.26-21.26S33,0,21.26,0Z" style="fill:#fff; opacity:.35;"/><polygon points="29.7 22.34 29.7 22.34 29.69 22.34 29.69 22.34 29.7 22.34" style="fill:#fff; opacity:.35;"/><polygon points="29.7 22.34 29.7 22.34 29.69 22.34 29.69 22.34 29.7 22.34" style="opacity:.17;"/><path d="M31.01,21.77c.34-.33.52-.77.61-1.27.04-.25.06-.51.06-.78,0-.28-.02-.58-.05-.87-.05-.54-.14-1.07-.21-1.55-.04-.26-.06-.53-.08-.8-.08-1.08,0-2.17.27-3.21.01-.04.01-.08.02-.11.07-.24.16-.48.27-.71.47-1,1.28-1.85,2.25-2.1-1.71-.44-3.19,1.14-3.67,2.82-.38,1.33-.42,2.76-.22,4.12.23,1.59.66,3.74-.65,4.65.04.12.06.26.09.39.58-.08,1.02-.28,1.32-.57Z" style="fill:#fff; opacity:.35;"/><path d="M31.01,21.77c.34-.33.52-.77.61-1.27.04-.25.06-.51.06-.78,0-.28-.02-.58-.05-.87-.05-.54-.14-1.07-.21-1.55-.04-.26-.06-.53-.08-.8-.08-1.08,0-2.17.27-3.21.01-.04.01-.08.02-.11.07-.24.16-.48.27-.71.47-1,1.28-1.85,2.25-2.1-1.71-.44-3.19,1.14-3.67,2.82-.38,1.33-.42,2.76-.22,4.12.23,1.59.66,3.74-.65,4.65.04.12.06.26.09.39.58-.08,1.02-.28,1.32-.57Z" style="opacity:.17;"/><path d="M31.01,21.77c-.3.29-.73.49-1.32.57h0c.58-.08,1.02-.28,1.32-.57Z" style="fill:#fff; opacity:.35;"/><path d="M31.01,21.77c-.3.29-.73.49-1.32.57h0c.58-.08,1.02-.28,1.32-.57Z" style="opacity:.17;"/><path d="M17.33,9.99s0,0,0-.01c0-.09,0-.19,0-.29,0-.08,0-.16,0-.25,0,0,0-.01,0-.02,0,0,0-.02,0-.02,0,0,0,0,0,0,.01-.56.08-1.16.2-1.71h0c.03-.13.06-.25.09-.37v-.04c.04-.11.08-.21.12-.31l.02-.05c.04-.1.08-.19.12-.27l.02-.04.14-.23.02-.03.16-.18h.02s.18-.14.18-.14c.07-.04.15-.06.22-.09-.44-.16-.89-.15-1.37.09-.06.03-.12.08-.18.13,0,0-.01,0-.02.01-.05.05-.11.12-.16.19,0,.01-.02.02-.02.03-.05.07-.09.15-.14.23,0,.01-.02.03-.02.04-.04.09-.08.18-.12.27,0,.02-.01.03-.02.05-.04.1-.07.2-.11.31,0,.01,0,.03-.01.04-.03.12-.07.24-.09.36,0,0,0,0,0,0-.09.38-.15.79-.18,1.2,0,0,0,0,0,0,0,.01,0,.02,0,.03-.02.2-.02.4-.02.6,0,.06,0,.11,0,.17,0,.02,0,.05,0,.07.44.21.85.42,1.2.64-.02-.13-.04-.26-.05-.41Z" style="fill:#fff; opacity:.35;"/><path d="M17.33,9.99s0,0,0-.01c0-.09,0-.19,0-.29,0-.08,0-.16,0-.25,0,0,0-.01,0-.02,0,0,0-.02,0-.02,0,0,0,0,0,0,.01-.56.08-1.16.2-1.71h0c.03-.13.06-.25.09-.37v-.04c.04-.11.08-.21.12-.31l.02-.05c.04-.1.08-.19.12-.27l.02-.04.14-.23.02-.03.16-.18h.02s.18-.14.18-.14c.07-.04.15-.06.22-.09-.44-.16-.89-.15-1.37.09-.06.03-.12.08-.18.13,0,0-.01,0-.02.01-.05.05-.11.12-.16.19,0,.01-.02.02-.02.03-.05.07-.09.15-.14.23,0,.01-.02.03-.02.04-.04.09-.08.18-.12.27,0,.02-.01.03-.02.05-.04.1-.07.2-.11.31,0,.01,0,.03-.01.04-.03.12-.07.24-.09.36,0,0,0,0,0,0-.09.38-.15.79-.18,1.2,0,0,0,0,0,0,0,.01,0,.02,0,.03-.02.2-.02.4-.02.6,0,.06,0,.11,0,.17,0,.02,0,.05,0,.07.44.21.85.42,1.2.64-.02-.13-.04-.26-.05-.41Z" style="opacity:.17;"/><path d="M29.69,22.34s0,0,0,0c-.03-.13-.05-.27-.09-.39-.01,0-.03.02-.05.03.05.12.09.24.13.36Z" style="fill:#fff; opacity:.35;"/><path d="M29.69,22.34s0,0,0,0c-.03-.13-.05-.27-.09-.39-.01,0-.03.02-.05.03.05.12.09.24.13.36Z" style="opacity:.17;"/><path d="M34.06,11.58h0c.31-.16.66-.2,1.07-.04h0c-.41-.16-.77-.12-1.07.04Z" style="fill:#fff; opacity:.35;"/><path d="M34.06,11.58h0c.31-.16.66-.2,1.07-.04h0c-.41-.16-.77-.12-1.07.04Z" style="opacity:.17;"/><path d="M34.06,11.58c.1.04.2.09.3.15.31.2.61.05.77-.19-.41-.16-.77-.12-1.07.04Z" style="fill:#fff; opacity:.35;"/><path d="M34.06,11.58c.1.04.2.09.3.15.31.2.61.05.77-.19-.41-.16-.77-.12-1.07.04Z" style="opacity:.17;"/><path d="M31.9,12.47c.47-1,1.28-1.85,2.26-2.1t0,0c-.97.25-1.79,1.1-2.25,2.1Z" style="fill:#fff; opacity:.35;"/><path d="M31.9,12.47c.47-1,1.28-1.85,2.26-2.1t0,0c-.97.25-1.79,1.1-2.25,2.1Z" style="opacity:.17;"/><path d="M31.63,18.86c.03.29.05.58.05.87,0-.28-.02-.58-.05-.87Z" style="fill:#fff; opacity:.35;"/><path d="M31.63,18.86c.03.29.05.58.05.87,0-.28-.02-.58-.05-.87Z" style="opacity:.17;"/><path d="M30.12,24.71c.52-.45.97-.82,1.38-1-.23-.09-.47-.16-.72-.13-.22.02-.46.13-.72.3.04.28.06.56.06.84Z" style="fill:#fff; opacity:.35;"/><path d="M30.12,24.71c.52-.45.97-.82,1.38-1-.23-.09-.47-.16-.72-.13-.22.02-.46.13-.72.3.04.28.06.56.06.84Z" style="opacity:.17;"/><path d="M31.61,13.3c-.28,1.04-.35,2.14-.27,3.21-.08-1.08,0-2.17.27-3.21Z" style="fill:#fff; opacity:.35;"/><path d="M31.61,13.3c-.28,1.04-.35,2.14-.27,3.21-.08-1.08,0-2.17.27-3.21Z" style="opacity:.17;"/><path d="M20.02,13.04c.17,0,.34-.01.51-.04-.21-.03-.42-.06-.62-.12.04.05.08.1.12.16Z" style="fill:#fff; opacity:.35;"/><path d="M20.02,13.04c.17,0,.34-.01.51-.04-.21-.03-.42-.06-.62-.12.04.05.08.1.12.16Z" style="opacity:.17;"/><path d="M10.47,27.45c1.51-.85,4.29-1.2,6.35-1.32-.69-1.29-1.03-2.98-1.28-4.42,0-.06-.02-.11-.03-.17-.26,0-.51-.04-.71-.14-1.2-.61-1.51-1.96-1.9-1.88l-.13.1c-.07.25-.06.58-.24.48-.15-.07-.2-.21-.21-.33,0,.07-.03.15-.07.2.29.43.68,1.05,1.4,1.42.2.1.44.14.71.14.24,1.43.57,3.14,1.24,4.47-2.02.01-4.68.21-6.16,1.04-2.37,1.33-2.43,3.84-3.14,4.92-.16.25-.79,1.21-1.65,2.54.21.26.43.51.65.77,1.11-1.72,1.95-3.02,2.14-3.31.71-1.08.65-3.19,3.01-4.52Z" style="fill:#fff; opacity:.35;"/><path d="M10.47,27.45c1.51-.85,4.29-1.2,6.35-1.32-.69-1.29-1.03-2.98-1.28-4.42,0-.06-.02-.11-.03-.17-.26,0-.51-.04-.71-.14-1.2-.61-1.51-1.96-1.9-1.88l-.13.1c-.07.25-.06.58-.24.48-.15-.07-.2-.21-.21-.33,0,.07-.03.15-.07.2.29.43.68,1.05,1.4,1.42.2.1.44.14.71.14.24,1.43.57,3.14,1.24,4.47-2.02.01-4.68.21-6.16,1.04-2.37,1.33-2.43,3.84-3.14,4.92-.16.25-.79,1.21-1.65,2.54.21.26.43.51.65.77,1.11-1.72,1.95-3.02,2.14-3.31.71-1.08.65-3.19,3.01-4.52Z" style="opacity:.17;"/><path d="M11.89,19.56s0,0,0,0c0-.02.01-.05.01-.05,0,0-.01.03-.02.05Z" style="fill:#fff; opacity:.35;"/><path d="M11.89,19.56s0,0,0,0c0-.02.01-.05.01-.05,0,0-.01.03-.02.05Z" style="opacity:.17;"/><path d="M32.96,23.79c-.09-.03-.18-.06-.27-.08.07.03.14.07.2.1.02-.01.04-.01.06-.02Z" style="fill:#fff; opacity:.35;"/><path d="M32.96,23.79c-.09-.03-.18-.06-.27-.08.07.03.14.07.2.1.02-.01.04-.01.06-.02Z" style="opacity:.17;"/><path d="M12.14,18.45h.02s-.05-.05-.07-.08c0,0,.02,0,.02,0-.44-.07-.86-.1-1.17,0,.02.03.05.04.07.07,0,0-.01,0-.02,0-.72.41-.68,1.39-.55,1.47.14.07.32-.41.32-.41,0,0-.19.55.15.56.2.01.25-.15.27-.29.02.11.07.25.21.33.12.06.16-.06.19-.22-.12-.16-.12-1.05.56-1.44Z" style="fill:#fff; opacity:.35;"/><path d="M12.14,18.45h.02s-.05-.05-.07-.08c0,0,.02,0,.02,0-.44-.07-.86-.1-1.17,0,.02.03.05.04.07.07,0,0-.01,0-.02,0-.72.41-.68,1.39-.55,1.47.14.07.32-.41.32-.41,0,0-.19.55.15.56.2.01.25-.15.27-.29.02.11.07.25.21.33.12.06.16-.06.19-.22-.12-.16-.12-1.05.56-1.44Z" style="opacity:.17;"/><path d="M14.88,18.63s0-.03-.01-.04c-.54-1.62-1.45-4.14-1.6-4.65-.17-.59-.93-1.94-1.18-2.39-.25-.45-.01-1.68-.01-1.68,0,0-.23-.34-.23-.69,0-.07,0-.14.03-.21.03-.11.11-.21.23-.29-.49-.11-.89-.16-1.07-.06,0,0,0,0,0,0-.25.14-.33.35-.33.56,0,.35.23.69.23.69,0,0-.24,1.23.01,1.68.25.45,1.01,1.8,1.18,2.39.14.5,1.01,2.89,1.55,4.51.45.09.89.2,1.24.26,0-.03-.02-.05-.02-.08Z" style="fill:#fff; opacity:.35;"/><path d="M14.88,18.63s0-.03-.01-.04c-.54-1.62-1.45-4.14-1.6-4.65-.17-.59-.93-1.94-1.18-2.39-.25-.45-.01-1.68-.01-1.68,0,0-.23-.34-.23-.69,0-.07,0-.14.03-.21.03-.11.11-.21.23-.29-.49-.11-.89-.16-1.07-.06,0,0,0,0,0,0-.25.14-.33.35-.33.56,0,.35.23.69.23.69,0,0-.24,1.23.01,1.68.25.45,1.01,1.8,1.18,2.39.14.5,1.01,2.89,1.55,4.51.45.09.89.2,1.24.26,0-.03-.02-.05-.02-.08Z" style="opacity:.17;"/><path d="M32.11,23.68c.2-.03.39-.01.58.03-.24-.1-.5-.16-.77-.14-.14.01-.28.06-.43.13.08.03.17.06.25.11.12-.07.25-.11.36-.13Z" style="fill:#6e4726;"/><path d="M11.91,29.03c1.4-.93,3.99-1.33,5.99-1.5-.09-.09-.18-.18-.28-.28-.31-.31-.57-.7-.8-1.12-2.07.12-4.84.47-6.35,1.32-2.37,1.33-2.3,3.44-3.01,4.52-.19.29-1.03,1.59-2.14,3.31.69.79,1.44,1.53,2.24,2.21,1.01-1.86,1.77-3.26,1.95-3.57.63-1.13.15-3.38,2.41-4.89Z" style="fill:#6e4726;"/><polygon points="25.21 29.66 25.21 29.65 25.21 29.65 25.21 29.66" style="fill:#6e4726;"/><path d="M29.79,26.61c1.32-1.09,2.3-2.38,3.11-2.8-.07-.04-.13-.07-.2-.1-.19-.04-.39-.06-.58-.03-.12.02-.24.07-.36.13-.08-.05-.17-.07-.25-.11-.4.19-.86.56-1.38,1,0,.64-.1,1.29-.33,1.9Z" style="fill:#6e4726;"/><path d="M19.58,6.52l.03-.02.23-.08h.02s.22-.02.22-.02c.23.02.43.07.62.15-.65-.7-1.34-.9-2.07-.63.31.11.61.31.91.62l.04-.02Z" style="fill:#fff;"/><path d="M20.83,6.69c.05.05.09.11.14.16-.04-.06-.09-.11-.14-.16Z" style="fill:#fff;"/><path d="M18.23,6.14h-.02s-.16.2-.16.2l-.02.03-.14.23-.02.04c-.04.09-.08.18-.12.27l-.02.05c-.04.1-.07.2-.11.31v.04c-.05.12-.08.24-.11.36h0c-.12.55-.19,1.16-.2,1.72.31-.52.73-1.57,1.15-2.01h0c.09-.1.18-.18.26-.27l.03-.03.25-.22.04-.03.24-.17.04-.03.2-.11c-.29-.31-.6-.5-.91-.62-.07.03-.15.05-.22.09l-.18.13Z" style="fill:#fff;"/><path d="M17.32,9.69c0-.08,0-.16,0-.25,0,.09,0,.17,0,.25Z" style="fill:#fff;"/><path d="M17.73,10.63s-.08-.05-.11-.07c.04.02.08.05.11.07Z" style="fill:#fff;"/><path d="M17.38,10.4c-.02-.13-.04-.27-.05-.41,0,.15.03.28.05.41,0,0,.01,0,.01,0,0,0,0,0-.01,0Z" style="fill:#fff;"/><path d="M34.16,10.37c.26.07.53.18.8.35.33.2.33.57.17.82.12.05.25.11.38.19.31.2.61.05.77-.19.03-.04.04-.09.06-.14,0-.03.02-.05.03-.08.03-.17-.01-.34-.14-.48-.04-.04-.07-.08-.13-.12-.68-.43-1.35-.5-1.95-.35Z" style="fill:#fad6de;"/><path d="M34.06,11.58c-1.97-.85-2.7,2.58-2.74,3.92-.04,1.48.5,2.88.5,4.35,0,1.46-.76,2.62-1.92,3.23.03.13.06.26.09.39,1.1-.23,2-.87,2.51-1.79.3-.53.47-1.14.47-1.83,0-1.47-.54-2.87-.5-4.35.01-.41.09-1,.24-1.61.07-.27.15-.54.25-.81.03-.09.07-.17.11-.26.24-.55.57-1.02.99-1.24Z" style="fill:#fad6de;"/><path d="M29.7,22.37c.08.23.15.47.21.71,1.16-.61,1.92-1.77,1.92-3.23,0-1.47-.54-2.87-.5-4.35.04-1.35.77-4.78,2.74-3.92.31-.16.66-.2,1.07-.04.16-.25.15-.62-.17-.82-.27-.17-.54-.28-.8-.35-.97.25-1.79,1.1-2.26,2.1-.11.23-.2.47-.27.71-.01.04-.01.07-.02.11-.28,1.04-.35,2.14-.27,3.21.02.27.04.54.08.8.07.48.16,1.01.21,1.55.03.29.05.58.05.87,0,.27-.02.53-.06.78-.08.5-.27.94-.61,1.27-.3.29-.73.49-1.32.57,0,0,0,.02,0,.02Z" style="fill:#fad6de;"/><path d="M29.69,22.34s0,.02,0,.02c0,0,0-.02,0-.02,0,0,0,0,0,0Z" style="fill:#fad6de;"/><path d="M21.02,6.92s-.04-.04-.05-.06c.1.12.19.25.29.4-.08-.12-.15-.23-.23-.33Z" style="fill:#aeb1b1;"/><path d="M21.76,8.27s0,0,0-.01c0,0,0,0,0,0,0,0,0,0,0-.01,0,0,0,0,0,0,0,0,0,0,0-.01,0,0,0,0,0,0,0,0,0,0,0-.01,0,0,0,0,0,0,0,0,0,0,0,0,0,0,0-.01,0-.02,0,.03,0,.06.02.1,0,0,0,0,0,0Z" style="fill:#aeb1b1;"/><path d="M20.72,6.56s0,0-.01,0c.04.04.08.09.12.13-.04-.04-.07-.09-.11-.13Z" style="fill:#aeb1b1;"/><path d="M17.32,9.4s0,.02,0,.02c0,0,0,.01,0,.02,0-.01,0-.03,0-.04,0,0,0,0,0,0Z" style="fill:#aeb1b1;"/><path d="M17.33,9.98s0,0,0,.01c0-.1,0-.2,0-.3,0,.1,0,.2,0,.29Z" style="fill:#aeb1b1;"/><path d="M19.87,6.43h-.02s-.23.08-.23.08l-.03.02-.04.02s.01,0,.01.01c0,0,0,0,.01,0,.04.04.08.09.12.14.04.05.08.09.12.14.1.13.2.26.3.41.12.19.25.4.37.63.05.09.08.17.11.26,0,.01,0,.02.01.04,0,.03.01.06.02.1.02,0,.04,0,.06,0,.09,0,.17,0,.25.03.11.03.21.08.31.12.07-.03.13-.05.19-.06.04-.01.08-.03.12-.04.07-.02.13-.02.19-.03.01,0,.02,0,.03,0,0-.03,0-.06-.02-.1v-.03s-.12-.26-.12-.26c-.12-.23-.25-.44-.37-.63-.09-.14-.19-.27-.29-.4-.04-.06-.09-.11-.14-.16-.04-.05-.08-.09-.12-.13-.19-.08-.39-.13-.62-.15l-.22.02Z" style="fill:#aeb1b1;"/><path d="M17.39,10.41c.08.05.15.1.23.14.04.02.08.05.11.07.1.07.2.14.29.21.08.06.15.13.23.2.12-.21.29-.44.48-.68,0,0,0,0,0,0,.07-.08.14-.16.22-.25.02-.02.04-.05.06-.07.07-.07.14-.14.21-.21.03-.03.07-.07.11-.1.06-.06.13-.12.2-.18.05-.04.09-.08.14-.12.06-.05.12-.1.18-.15.06-.04.11-.09.17-.13.06-.04.11-.09.17-.13.06-.04.12-.09.18-.13.05-.04.11-.07.16-.11.07-.04.13-.08.19-.12.05-.03.1-.06.15-.08.07-.03.13-.06.2-.09.05-.02.09-.04.14-.06,0,0,0,0,0,0-.1-.04-.19-.09-.31-.12-.08-.02-.16-.03-.25-.03-.02,0-.04,0-.06,0,0-.03,0-.06-.02-.1,0-.01,0-.02-.01-.04-.03-.09-.06-.17-.11-.26-.12-.23-.25-.44-.37-.63-.1-.15-.2-.29-.3-.41-.04-.05-.08-.09-.12-.14-.04-.05-.08-.1-.12-.14,0,0,0,0-.01,0,0,0-.01,0-.01-.01l-.2.11-.04.03-.24.17-.04.03-.25.22-.03.03c-.09.08-.18.17-.26.26h0c-.42.45-.84,1.5-1.15,2.01,0,.01,0,.03,0,.04,0,.09,0,.17,0,.25,0,.1,0,.2,0,.3.01.14.03.28.05.41,0,0,0,0,.01,0Z" style="fill:#aeb1b1;"/><path d="M29.67,24.14c.13-.1.26-.19.39-.27-.02-.14-.04-.27-.06-.4-.07.02-.15.03-.23.04-.02.2-.05.41-.09.63Z" style="fill:#fff;"/><path d="M20.94,15.58c1.88,2.06,4.93,2.9,6.15,4.19.69.73,1.26,1.55,1.46,2.57.42-.06.75-.19,1.02-.36-.36-.91-.85-1.7-1.33-2.21-1.22-1.29-4.27-2.13-6.15-4.19-.86-.94-1.5-1.79-2.07-2.54-.42,0-.85-.05-1.27-.16.6.78,1.27,1.69,2.19,2.7Z" style="fill:#fff;"/><path d="M29.46,23.55c-.15.01-.26-.03-.35-.1-.02-.02-.05-.03-.07-.05-.07.02-.13.04-.2.06.08.41.13.82.13,1.24.25-.21.48-.4.7-.57.05-.22.08-.43.09-.63-.1.02-.2.04-.31.05Z" style="fill:#fff;"/><path d="M29.76,23.5h0c.08-.01.15-.02.23-.04h0c-.07.02-.15.03-.23.04Z" style="fill:#fff;"/><path d="M29.11,23.45c.09.07.2.11.35.1.11,0,.2-.03.31-.05h0c-.1.02-.2.04-.31.05-.15.01-.26-.03-.35-.1Z" style="fill:#fff;"/><path d="M12.17,8.62h0s.03.06.04.09c1.18.3,2.89,1.01,4.01,1.69,0-.04,0-.08-.01-.12,0-.06-.02-.11-.02-.17-.01-.11-.01-.23-.02-.35-1.61-.77-3.54-1.4-4-1.14-.03.02-.05.04-.07.06h0s.04-.04.07-.06Z" style="fill:#fff;"/><path d="M29.38,25.13c-.04.11-.13.25-.19.38.33-.27.64-.55.93-.8,0-.28-.03-.56-.06-.84-.12.08-.25.17-.39.27-.07.31-.16.64-.29.99Z" style="fill:#fff;"/><path d="M29.46,22.38c.08,0,.16-.02.24-.03h0c-.08.01-.15.03-.24.03-.44.03-.61.45-.54.77-.07-.33.1-.74.54-.77Z" style="fill:#fff;"/><path d="M16.21,10.28s0,.08.01.12c-1.12-.67-2.83-1.39-4.01-1.69.07.22.18.46.37.58.43.27.93.26.93.26,0,0-.81.64-1.44.32,0,0-.23-.34-.23-.69,0,.35.23.69.23.69,0,0-.24,1.24.01,1.68.25.45,1.01,1.8,1.18,2.39.15.51,1.06,3.03,1.6,4.65-.01-.03-.02-.06-.03-.1.11.02.23.03.35.03.8,0,1.69-.38,2.27-.63.03-.01.06-.02.09-.02.14,0,.23.13.08.2-.66.29-1.57.65-2.45.65-.09,0-.18,0-.27-.01,0-.02-.02-.05-.02-.07,0,.03.02.05.02.08.23.04.42.05.54.01l3.21,1.8s-1.2.67-2.35.93c.1,0,.19.02.29.02.85,0,1.69-.2,2.48-.6.03-.01.05-.02.08-.02.16,0,.23.26.06.34-.83.41-1.71.62-2.6.62-.36,0-.72-.03-1.07-.1.24,1.44.59,3.13,1.28,4.42,1.17-.07,2.11-.07,2.46-.04.43.03,1.19-.15,1.96-.32.98-.23,1.98-.45,2.33-.25.21.13.33.49.4.9.49-.17.91-.27,1.11-.16,2.77-1.03,3.42-.76,3.18-.04.33-.23.64-.47.93-.71.07-.13.15-.26.19-.38.13-.35.23-.68.29-.99-.22.17-.45.36-.7.57,0-.42-.05-.83-.13-1.24.07-.01.13-.04.2-.06-.07-.07-.1-.16-.13-.26-.07-.33.1-.74.54-.77.08,0,.16-.02.24-.03-.04-.12-.08-.24-.13-.36-.27.17-.6.3-1.02.36-.2-1.02-.77-1.84-1.46-2.57-1.22-1.29-4.27-2.13-6.15-4.19-.92-1.01-1.59-1.91-2.19-2.7.41.1.85.16,1.27.16-.04-.05-.08-.11-.12-.16-.83-.21-1.56-.59-1.82-1.02-.04-.06-.05-.14-.05-.22h0c0-.08.02-.18.06-.28-.09,0-.17-.02-.25-.04-.24-.07-.39-.43-.47-.93-.35-.21-.77-.43-1.2-.64,0,.12,0,.24.02.35,0,.06.01.11.02.17ZM15.05,12.03c0,.09-.14.09-.14,0h0c0-.1.14-.1.14-.01h0ZM15.18,12.62c-.09,0-.09-.14,0-.14s.09.14,0,.14ZM15.48,12.22c-.09,0-.09-.14,0-.14s.09.14,0,.14ZM16.58,11.43c0,.18-.15.32-.32.32s-.32-.15-.32-.32.15-.32.32-.32.32.15.32.32Z" style="fill:#fff;"/><path d="M11.87,8.98c.03-.11.11-.21.23-.29h0c-.11.09-.19.18-.23.29Z" style="fill:#fff;"/><path d="M25.07,26.26c-.2-.1-.62,0-1.11.16.01.06.02.12.03.19.48-.15.88-.28,1.08-.35Z" style="fill:#fff;"/><path d="M29.18,25.51c-.5.94-1.61,2.16-2.88,3.14-.59.57-1.08.99-1.09,1.01,0,0,0,0,0,0,0,0,0,0,0,0,0,0,.03-.02.05-.03.02-.01.02-.01.06-.04.06-.03.14-.08.23-.14.02-.01.02-.01.04-.03.11-.07.25-.15.4-.24.05-.03.1-.06.15-.09.84-.52,2.08-1.31,3.15-2.09.17-.12.33-.25.49-.39.23-.61.33-1.26.33-1.9-.29.25-.6.52-.93.8Z" style="fill:#fff;"/><path d="M26.3,28.65c1.28-.99,2.38-2.2,2.88-3.14-.29.24-.6.48-.93.71-.22.65-1.17,1.67-1.95,2.43Z" style="fill:#fff;"/><path d="M23.99,26.61c0-.07-.02-.12-.03-.19-.53.18-1.14.44-1.72.68.6-.15,1.22-.33,1.75-.49Z" style="fill:#fff;"/><path d="M22.24,27.1c.58-.23,1.2-.5,1.72-.68-.07-.42-.19-.78-.4-.9-.35-.21-1.35.02-2.33.25-.77.18-1.53.36-1.96.32-.35-.03-1.3-.03-2.46.04.23.43.49.81.8,1.12.09.09.18.18.28.28,1.23-.1,2.23-.12,2.61-.12s1.03-.13,1.74-.31Z" style="fill:#fff;"/><path d="M18.02,10.83c-.09-.07-.18-.14-.29-.21-.04-.02-.08-.05-.11-.07-.07-.05-.15-.1-.23-.14,0,0-.01,0-.01,0,.08.5.23.86.47.93.07.02.16.04.25.04.04-.11.09-.22.16-.34-.08-.07-.15-.14-.23-.2Z" style="fill:#fff;"/><path d="M29.76,23.5c.08-.01.15-.02.23-.04-.02-.13-.06-.26-.09-.39-.04.02-.09.04-.13.06,0,.12,0,.24,0,.36Z" style="fill:#fff;"/><path d="M29.46,23.55c.11,0,.2-.03.31-.05.01-.12,0-.24,0-.36-.23.11-.47.2-.73.27.02.02.04.03.07.05.09.07.2.11.35.1Z" style="fill:#fff;"/><path d="M29.77,23.14s.09-.04.13-.06c-.06-.24-.13-.48-.21-.71.05.25.07.5.07.77Z" style="fill:#fff;"/><path d="M29.7,22.37s0-.02,0-.02c-.08.01-.15.03-.24.03-.44.03-.61.45-.54.77.02.1.06.19.13.26.26-.07.5-.16.73-.27,0-.27-.02-.53-.07-.77Z" style="fill:#fff;"/><path d="M17.62,10.55c-.07-.05-.15-.1-.23-.14.08.05.15.1.23.14Z" style="fill:#fff;"/><path d="M18.02,10.83c-.09-.07-.18-.14-.29-.21.1.07.2.14.29.21Z" style="fill:#fff;"/><path d="M18.02,10.83c.08.06.15.14.23.2,0,0,0,0,0,0-.08-.07-.15-.14-.23-.2Z" style="fill:#fff;"/><path d="M11.85,9.19c0-.07,0-.14.03-.21-.02.07-.03.14-.03.21Z" style="fill:#e196aa;"/><path d="M12.18,8.62h0s-.05.04-.07.06c.04,0,.08.02.12.03-.01-.03-.03-.06-.04-.09Z" style="fill:#e196aa;"/><path d="M13.51,9.55s-.5,0-.93-.26c-.19-.12-.3-.35-.37-.58-.04,0-.08-.02-.12-.03-.11.09-.19.18-.23.29-.02.07-.03.14-.03.21,0,.35.23.69.23.69.63.32,1.44-.32,1.44-.32Z" style="fill:#e196aa;"/><path d="M22.02,9.16c.04.09.09.17.12.27.09.29.13.64.12,1.04-.02.4-.09.85-.21,1.36-.05.19-.13.34-.23.48,0,.01-.01.03-.02.04,0,0,0-.01,0-.02-.28.38-.75.59-1.28.67.97.13,1.95-.03,2.43-.67.37-1.72.06-2.76-.93-3.17Z" style="fill:#fad6de;"/><path d="M23.2,11.83c-.05.19-.13.34-.23.48.1-.14.18-.29.23-.48Z" style="fill:#fad6de;"/><path d="M21.81,8.27s-.03,0-.05,0c0,0,0,0,0,0,.02,0,.03,0,.05,0Z" style="fill:#fad6de;"/><path d="M21.8,12.33s0,.01,0,.02c0-.01.01-.03.02-.04.1-.14.18-.29.23-.48.13-.51.2-.96.21-1.36.02-.4-.02-.75-.12-1.04-.03-.1-.08-.18-.12-.27-.08-.04-.17-.07-.26-.1-.02,0-.04,0-.06,0,0,0,0,.01-.01.02-.03.07-.06.14-.09.21-.02.04-.04.08-.06.12-.05.08-.1.15-.15.23-.02.03-.03.05-.05.08,0,0,0,0,0,0,0,0-.01.02-.02.03,0,0-.01.01-.02.02-.02.02-.04.05-.06.07,0,0,0,0,0,0,0,0,0,0-.01.01,0,0,0,0,0,0,0,0,0,0-.01.01,0,0,0,0,0,0-.02.02-.04.05-.06.07,0,0,0,0,0,0,0,0,0,0,0,0,0,0,0,0,0,0,0,0,0,0,0,0,0,0,0,0,0,0,0,0,0,0,0,0,0,0,0,0,0,0,0,0,0,0,0,0,0,0,0,0,0,0,0,0,0,0,0,0,0,0,0,0,0,0,0,0,0,0,0,0,0,0,0,0,0,0,0,0,0,0,0,0,0,0,0,0,0,0,0,0,0,0-.01.01,0,0,0,0,0,0,0,0,0,0-.01.01,0,0,0,0,0,0h-.01s0,.01,0,.02c0,0,0,0,0,0,0,0,0,0,0,0,0,0,0,0,0,0,0,0,0,0,0,0,0,0,0,0,0,0,0,0,0,0,0,0,0,0,0,0,0,0,0,0,0,0,0,0,0,0,0,0,0,0,0,0,0,0,0,0-.01,0-.02.02-.03.03,0,0,0,0,0,0,0,0,0,0-.01.01,0,0,0,0,0,0,0,0,0,0-.01,0,0,0,0,0,0,0h-.01s0,.01,0,.01c0,0,0,0-.01,0h0s0,.01-.01.01c0,0,0,0,0,0,0,0,0,0-.01.01h0s-.02.02-.03.02c0,0,0,0,0,0,0,0,0,0,0,0,0,0,0,0,0,0,0,0,0,0-.01,0,0,0,0,0,0,0,0,0,0,0,0,0,0,0,0,0,0,0,0,0,0,0,0,0,0,0,0,0,0,0,0,0,0,0,0,0,0,0,0,0-.01,0,0,0,0,0,0,0,0,0,0,0-.01,0,0,0,0,0,0,0,0,0,0,0,0,0,0,0,0,0,0,0,0,0-.01,0-.02.01,0,0,0,0,0,0,0,0,0,0,0,0,0,0,0,0,0,0,0,0,0,0,0,0h0s0,.01,0,.01c0,0,0,0,0,0,0,0,0,0,0,0,0,0,0,0,0,0,0,0,0,0,0,0,0,0,0,0,0,0h-.01s0,.01,0,.01c0,0,0,0-.01,0h-.01s0,.01,0,.01c0,0-.01,0-.02.01,0,0,0,0-.01,0,0,0,0,0,0,0,0,0,0,0,0,0,0,0,0,0,0,0,0,0,0,0,0,0,0,0,0,0,0,0,0,0,0,0,0,0,0,0,0,0,0,0,0,0,0,0,0,0,0,0,0,0-.01,0,0,0,0,0,0,0,0,0,0,0,0,0,0,0,0,0-.01,0,0,0,0,0,0,0-.02.01-.04.03-.07.04,0,0,0,0,0,0,0,0-.01,0-.02,0,0,0,0,0,0,0,0,0,0,0-.01,0,0,0,0,0,0,0,0,0,0,0-.01,0,0,0,0,0,0,0,0,0-.01,0-.02,0,0,0,0,0,0,0-.03.02-.07.04-.1.06,0,0,0,0,0,0,0,0,0,0-.01,0,0,0,0,0,0,0,0,0,0,0,0,0,0,0-.01,0-.02,0,0,0,0,0,0,0,0,0-.01,0-.02,0-.22.13-.45.24-.68.33,0,0-.01,0-.02,0-.23.09-.45.16-.67.21,0,0,0,0,0,0,0,0,0,0,0,0-.03,0-.06,0-.1.01.45.45.87.96,1.31,1.55.2.05.41.09.62.12.53-.08.99-.29,1.28-.67Z" style="fill:#fad6de;"/><path d="M20.75,10.3h0s0,0,0,0Z" style="fill:#fad6de;"/><path d="M20.05,10.78c-.22.13-.45.24-.68.33.23-.09.46-.2.68-.33Z" style="fill:#fad6de;"/><path d="M21.69,9.08c-.03.07-.06.14-.09.21.04-.07.07-.14.09-.21Z" style="fill:#fad6de;"/><path d="M21.53,9.42c-.05.08-.1.15-.15.23.05-.07.11-.15.15-.23Z" style="fill:#fad6de;"/><polygon points="21.04 10.04 21.04 10.04 21.04 10.04 21.04 10.04" style="fill:#fad6de;"/><path d="M20.43,10.54s0,0,0,0c0,0,0,0,0,0Z" style="fill:#fad6de;"/><path d="M18.54,11.29s.03.03.05.05c.03,0,.06,0,.1-.01-.04,0-.08,0-.12-.01,0,0-.02-.01-.02-.02Z" style="fill:#fad6de;"/><path d="M21.3,9.75s-.01.01-.02.02c0,0,.01-.01.02-.02Z" style="fill:#fad6de;"/><polygon points="20.08 10.76 20.08 10.76 20.08 10.76 20.08 10.76" style="fill:#fad6de;"/><path d="M19.35,11.12c-.23.09-.45.16-.67.21.21-.04.44-.11.67-.21Z" style="fill:#fad6de;"/><polygon points="21.75 8.28 21.76 8.27 21.76 8.27 21.75 8.27 21.75 8.28" style="fill:#fad6de;"/><path d="M21.59,9.29s-.04.08-.06.12c.02-.04.04-.08.06-.12Z" style="fill:#fad6de;"/><path d="M21.32,9.72s0,0,0,0c.02-.03.03-.05.05-.08-.03.03-.05.07-.07.11,0,0,.01-.02.02-.03Z" style="fill:#fad6de;"/><path d="M20.1,10.75s0,0,0,0c.03-.02.07-.04.1-.06,0,0,0,0,0,0,0,0,.01,0,.02,0,0,0,0,0,0,0,0,0,0,0,.01,0,0,0,0,0,0,0,0,0,0,0,.01,0,0,0,0,0,0,0,0,0,.01,0,.02,0,0,0,0,0,0,0,.02-.01.04-.03.07-.04,0,0,0,0,0,0,0,0,0,0,.01,0,0,0,0,0,0,0,0,0,0,0,0,0,0,0,0,0,.01,0,0,0,0,0,0,0,0,0,0,0,0,0,0,0,0,0,0,0,0,0,0,0,0,0,0,0,0,0,0,0-.11.08-.22.15-.34.22,0,0,0,0,.01,0Z" style="fill:#fad6de;"/><path d="M19.37,11.11s-.01,0-.02,0c0,0,.01,0,.02,0Z" style="fill:#fad6de;"/><polygon points="18.68 11.32 18.69 11.32 18.68 11.32 18.68 11.32" style="fill:#fad6de;"/><path d="M20.06,10.77s0,0,0,0c0,0,.01,0,.02,0,0,0,0,0,0,0-.01,0-.02.01-.04.02,0,0,.01,0,.02,0Z" style="fill:#fad6de;"/><path d="M21.69,9.08s0-.01.01-.02c0,0,0,0,0,0,0,0,0,.01,0,.02Z" style="fill:#fad6de;"/><path d="M20.43,10.54s0,0,0,0c0,0,0,0,.01,0,0,0,.01,0,.02-.01,0,0,0,0,0,0h.01s0-.01.01-.02c0,0,0,0,0,0h.01s0-.01,0-.01c0,0,0,0,0,0,0,0,0,0,0,0,0,0,0,0,0,0,0,0,0,0,0,0,0,0,0,0,0,0h0s0-.01,0-.01c0,0,0,0,0,0,0,0,0,0,0,0,0,0,0,0,0,0,0,0,.01,0,.02-.01,0,0,0,0,0,0,0,0,0,0,0,0,0,0,0,0,0,0,0,0,0,0,.01,0,0,0,0,0,0,0,0,0,0,0,.01,0,0,0,0,0,0,0,0,0,0,0,0,0,0,0,0,0,0,0,0,0,0,0,0,0,0,0,0,0,0,0,0,0,0,0,0,0,0,0,0,0,.01,0,0,0,0,0,0,0,0,0,0,0,0,0-.1.08-.21.16-.32.24,0,0,0,0,0,0Z" style="fill:#fad6de;"/><path d="M20.77,10.28h0s0,0,.01-.01c0,0,0,0,0,0,0,0,0,0,.01,0h0s0-.01.01-.01h0s0-.01.01-.01c0,0,0,0,0,0,0,0,0,0,.01,0,0,0,0,0,0,0,0,0,0,0,.01-.01,0,0,0,0,0,0,.01,0,.02-.02.03-.03,0,0,0,0,0,0,0,0,0,0,0,0,0,0,0,0,0,0,0,0,0,0,0,0,0,0,0,0,0,0,0,0,0,0,0,0,0,0,0,0,0,0,0,0,0,0,0,0,0,0,0,0,0,0,0,0,0,0,0,0,0,0,0,0,0,0h.01s0-.01,0-.01c0,0,0,0,.01-.01,0,0,0,0,0,0,0,0,0,0,.01-.01-.09.09-.19.18-.29.26,0,0,.02-.01.03-.02Z" style="fill:#fad6de;"/><path d="M21.05,10.03s0,0,0,0c0,0,0,0,0,0,0,0,0,0,0,0,0,0,0,0,0,0,0,0,0,0,0,0,0,0,0,0,0,0,0,0,0,0,0,0,0,0,0,0,0,0,0,0,0,0,0,0,0,0,0,0,0,0,0,0,0,0,0,0,0,0,0,0,0,0,0,0,0,0,0,0,.02-.02.04-.05.06-.07,0,0,0,0,0,0,0,0,0,0,.01-.01,0,0,0,0,0,0,0,0,0,0,.01-.01,0,0,0,0,0,0,.02-.02.04-.05.06-.07-.08.09-.16.18-.24.27,0,0,0,0,0,0Z" style="fill:#fad6de;"/><path d="M21.75,8.27s-.02,0-.03,0c.01,0,.02,0,.03,0,0,0,0,0,0,0Z" style="fill:#fad6de;"/><path d="M21.41,8.35s.08-.03.12-.04c-.04,0-.08.02-.12.04Z" style="fill:#fad6de;"/><path d="M21.08,8.47s.09-.04.14-.06c-.04.02-.09.04-.14.06Z" style="fill:#fad6de;"/><path d="M18.74,10.36c-.2.24-.36.47-.48.68,0,0,0,0,0,0,.12-.21.28-.44.48-.68Z" style="fill:#fad6de;"/><path d="M20.74,8.65s.1-.06.15-.08c-.05.03-.1.05-.15.08Z" style="fill:#fad6de;"/><path d="M18.4,11.16s.09.08.14.13c0,0,.02.01.02.02.04,0,.08,0,.12.01,0,0,0,0,0,0,.21-.04.44-.11.67-.21,0,0,.01,0,.02,0,.23-.09.46-.2.68-.33.01,0,.02-.01.04-.02,0,0,0,0,0,0,0,0,0,0,0,0,.12-.07.23-.14.34-.22,0,0,0,0,0,0,.11-.08.22-.16.32-.24h0c.1-.08.2-.17.29-.26,0,0,0,0,0,0h0c.09-.09.17-.18.24-.27,0,0,.01-.01.02-.02.03-.03.05-.07.07-.11.05-.07.11-.15.15-.23.02-.04.04-.08.06-.12.04-.07.07-.14.09-.21,0,0,0-.01,0-.02-.83-.16-2.4,1.02-3.3,2.11Z" style="fill:#fad6de;"/><path d="M19.03,10.03c.07-.07.14-.14.21-.21-.07.07-.14.14-.21.21Z" style="fill:#fad6de;"/><path d="M20.03,9.13c.06-.04.11-.09.17-.13-.06.04-.12.08-.17.13Z" style="fill:#fad6de;"/><path d="M19.68,9.41c.06-.05.12-.1.18-.15-.06.05-.12.1-.18.15Z" style="fill:#fad6de;"/><path d="M19.34,9.72c.06-.06.13-.12.2-.18-.07.06-.13.12-.2.18Z" style="fill:#fad6de;"/><path d="M18.74,10.35c.07-.08.14-.16.22-.25-.08.08-.15.16-.22.25Z" style="fill:#fad6de;"/><path d="M20.38,8.87c.05-.04.11-.07.16-.11-.05.03-.11.07-.16.11Z" style="fill:#fad6de;"/><path d="M18.09,11.37c-.03.1-.06.19-.06.28,0-.08.03-.18.06-.28,0,0,0,0,0,0Z" style="fill:#fad6de;"/><path d="M18.24,11.37c-.07.09-.15.19-.2.28,0,.08,0,.16.05.22.26.42.99.81,1.82,1.02-.45-.58-.86-1.1-1.31-1.55-.12.02-.24.03-.34.03Z" style="fill:#fad6de;"/><path d="M18.4,11.16c-.06.07-.1.14-.16.21.11,0,.22-.01.34-.03-.02-.02-.03-.03-.05-.05-.05-.04-.1-.08-.14-.13Z" style="fill:#fad6de;"/><path d="M18.25,11.04s0,0,0,0c-.07.12-.12.23-.16.34,0,0,0,0,0,0,.04-.1.09-.22.16-.34Z" style="fill:#fad6de;"/><path d="M18.54,11.29s-.09-.09-.14-.13c0,0,0,0,0,0,.05.04.1.08.14.13Z" style="fill:#fad6de;"/><polygon points="18.25 11.03 18.25 11.04 18.25 11.04 18.25 11.04 18.25 11.03" style="fill:#fad6de;"/><path d="M22.84,8.71c-.2-.19-.46-.33-.78-.41-.08-.02-.16-.03-.25-.03.09,0,.17,0,.25.03.31.09.57.22.78.41Z" style="fill:#fff;"/><path d="M22.95,12.35s.01-.03.02-.04c0,0-.01.02-.02.02,0,0,0,.01,0,.02Z" style="fill:#fff;"/><path d="M21.53,8.31c.07-.02.13-.02.19-.03-.06,0-.13.01-.19.03Z" style="fill:#fff;"/><path d="M21.41,8.35c-.06.02-.12.04-.19.06h0c.07-.03.13-.05.19-.06Z" style="fill:#fff;"/><path d="M18.74,10.36s0,0,0,0c0,0,0,0,0,0Z" style="fill:#fff;"/><path d="M18.96,10.1s.04-.05.06-.07c-.02.02-.04.05-.06.07Z" style="fill:#fff;"/><path d="M19.23,9.82s.07-.07.11-.1c-.04.03-.07.07-.11.1Z" style="fill:#fff;"/><path d="M20.88,8.57c.07-.03.13-.06.2-.09-.06.03-.13.06-.2.09Z" style="fill:#fff;"/><path d="M20.2,9c.06-.04.12-.09.18-.13-.06.04-.12.08-.18.13Z" style="fill:#fff;"/><polygon points="21.22 8.41 21.22 8.41 21.22 8.41 21.22 8.41" style="fill:#fff;"/><path d="M20.54,8.77c.06-.04.13-.08.19-.12-.06.04-.13.07-.19.12Z" style="fill:#fff;"/><path d="M19.86,9.26c.06-.04.11-.09.17-.13-.06.04-.11.09-.17.13Z" style="fill:#fff;"/><path d="M19.54,9.54s.09-.08.14-.12c-.05.04-.09.08-.14.12Z" style="fill:#fff;"/><path d="M21.76,8.28s0,0,0,0c0,.03,0,.06,0,.09,0,.07.02.15.01.22,0,.05,0,.09-.01.14,0,.02,0,.04,0,.07.1.11.18.23.25.36.99.41,1.31,1.45.93,3.17,0,0,.01-.02.02-.02.1-.14.18-.29.23-.48.38-1.52.26-2.55-.36-3.12-.2-.19-.46-.33-.78-.41-.08-.02-.16-.03-.25-.03-.02,0-.03,0-.05,0,0,0,0,0,0,0Z" style="fill:#fff;"/><path d="M21.7,9.06s.04,0,.06,0c.09.03.18.07.26.1-.07-.13-.15-.26-.25-.36,0,.05-.02.1-.04.15-.01.04-.02.08-.03.11Z" style="fill:#fff;"/><path d="M21.77,8.37c0,.07.02.15.01.22,0-.07,0-.14-.01-.22Z" style="fill:#fff;"/><path d="M21.77,8.8s0-.04,0-.07c0,.02,0,.04-.01.06,0,0,0,0,0,0Z" style="fill:#fff;"/><path d="M21.73,8.94s.03-.1.04-.15c0,0,0,0,0,0,0,.05-.02.1-.03.15Z" style="fill:#fff;"/><path d="M21.78,8.59s0,.09-.01.14c0-.05.01-.09.01-.14Z" style="fill:#fff;"/><path d="M21.76,8.28s0,0,0,0c0,0,0,0,0,0,0,0,0,0,0,0,0,.03.01.06.02.1,0-.03,0-.06,0-.09Z" style="fill:#fff;"/><path d="M21.69,9.06s0,0,0,0c.01-.04.02-.08.03-.11-.01.04-.02.08-.03.11Z" style="fill:#fff;"/><path d="M21.69,8.71s.04.06.07.08c0-.02,0-.04.01-.06,0-.05.01-.09.01-.14,0-.07,0-.14-.01-.22,0-.03,0-.06-.02-.1-.01,0-.02,0-.03,0-.06,0-.13.01-.19.03-.04,0-.08.02-.12.04-.06.02-.12.04-.19.06.18.08.34.17.47.29Z" style="fill:#fff;"/><path d="M18.4,11.16c.9-1.08,2.47-2.26,3.3-2.11.01-.04.02-.08.03-.11.01-.05.02-.1.03-.15-.02-.03-.04-.06-.07-.08-.13-.12-.3-.21-.47-.29,0,0,0,0,0,0-.04.02-.09.04-.14.06-.06.03-.13.06-.2.09-.05.03-.1.05-.15.08-.06.04-.13.07-.19.12-.05.03-.11.07-.16.11-.06.04-.12.08-.18.13-.06.04-.12.08-.17.13-.06.04-.11.09-.17.13-.06.05-.12.1-.18.15-.05.04-.09.08-.14.12-.07.06-.13.12-.2.18-.04.03-.07.07-.11.1-.07.07-.14.14-.21.21-.02.02-.04.05-.06.07-.08.08-.15.16-.22.25,0,0,0,0,0,0-.2.24-.36.47-.48.68.05.04.1.08.14.13Z" style="fill:#fff;"/><path d="M18.1,11.37c-.03.1-.06.19-.06.28h0c.06-.09.13-.18.2-.28-.05,0-.1,0-.14,0Z" style="fill:#fff;"/><path d="M18.25,11.04c-.07.12-.12.23-.16.34.05,0,.1,0,.14,0,.05-.07.1-.14.16-.21-.05-.04-.1-.08-.14-.13Z" style="fill:#fff;"/><path d="M18.4,11.16s-.1-.08-.14-.13c0,0,0,0,0,0,.05.04.1.08.14.13,0,0,0,0,0,0Z" style="fill:#fff;"/><path d="M15.17,18.72c.88,0,1.79-.36,2.45-.65.15-.06.05-.2-.08-.2-.03,0-.06,0-.09.02-.57.25-1.47.63-2.27.63-.12,0-.23,0-.35-.03.01.03.02.06.03.1,0,.01,0,.03.01.04,0,.02.02.05.02.07.09,0,.18.01.27.01Z" style="fill:#d4d4d4;"/><path d="M19.22,21.2c.17-.09.1-.34-.06-.34-.02,0-.05,0-.08.02-.8.39-1.63.6-2.48.6-.1,0-.19,0-.29-.02-.27.06-.54.1-.8.1,0,.06.02.11.03.17.36.07.72.1,1.07.1.89,0,1.77-.2,2.6-.62Z" style="fill:#d4d4d4;"/><path d="M11.63,19.63c-.02.09-.04.18-.06.26,0,0,.01.02.02.03.12.06.26-.25.3-.36-.04-.02-.09-.04-.13-.03-.06.01-.1.05-.13.1Z" style="fill:#e196aa;"/><path d="M11.9,19.56c-.03.12-.13.5.16.51.1,0,.16-.03.2-.09-.14-.2-.25-.36-.36-.43Z" style="fill:#e196aa;"/><path d="M12.32,19.78c.02.11.07.25.21.33.18.09.17-.23.24-.48l-.03.02v-.02c-.05-.11,0-.22.07-.31-.13.02-.26-.02-.36-.09l-.12-.15c-.05-.15.04-.31.13-.45-.12-.03-.22-.1-.31-.18h-.02c-.68.4-.68,1.29-.56,1.45.02-.08.03-.18.06-.26.04-.04.07-.09.13-.1.04,0,.09,0,.13.03,0-.02.02-.05.02-.05,0,0,0,.03-.01.05.11.06.22.22.36.43.04-.06.06-.13.07-.2Z" style="fill:#e196aa;"/><path d="M12.28,18.39s0,0,0,0c.52.1,1.06.24,1.47.31-.03-.08-.06-.17-.09-.26-.57-.12-1.15-.2-1.56-.08.05,0,.1.02.15.02h.01Z" style="fill:#fff;"/><path d="M12.29,18.4c.08.1.19.18.31.2-.07.11-.15.25-.11.38l.1.13c.09.07.2.1.31.08-.06.07-.1.17-.07.26v.02s-.03.1-.05.15l.13-.1c.39-.08.7,1.27,1.9,1.88.2.1.44.14.71.14-.01-.07-.02-.13-.03-.2-.15-.89-.26-1.65-.4-2.11-.05-.16-.11-.34-.17-.54-.35-.06-.79-.16-1.24-.26.03.08.06.18.09.26-.41-.07-.94-.21-1.47-.31Z" style="fill:#fff;"/><path d="M12.16,18.45l.11-.05c-.05,0-.1-.02-.15-.02,0,0-.02,0-.02,0,.02.03.05.04.07.07Z" style="fill:#fff;"/><path d="M18.66,20.52l-3.21-1.8c-.12.04-.31.02-.54-.01.06.2.12.38.17.54.14.46.26,1.22.4,2.11.28.06.55.09.83.1,1.15-.26,2.35-.93,2.35-.93Z" style="fill:#fff;"/><path d="M16.31,21.45c-.28-.01-.55-.04-.83-.1.01.06.02.13.03.2.25,0,.52-.03.8-.1Z" style="fill:#fff;"/><path d="M12.28,18.39h-.01s.02,0,.02,0c0,0,0,0,0,0Z" style="fill:#fff;"/><path d="M12.83,19.46c-.03-.09.01-.19.07-.26-.11.02-.22-.01-.31-.08l-.1-.13c-.05-.13.03-.27.11-.38-.12-.03-.23-.1-.31-.2,0,0-.02,0-.02,0l-.11.05c.09.09.19.16.31.18-.09.13-.18.3-.13.45l.12.15c.1.08.23.11.36.09-.07.09-.12.2-.08.31v.02s.05-.02.05-.02c.02-.06.03-.11.06-.15v-.02Z" style="fill:#fff;"/><path d="M34.17,23.81c-.21-.14-.5-.2-.91-.13.31-.05.62.01.91.13Z" style="fill:#925f32;"/><path d="M26.72,34.2c.73-.57,7.87-8.67,7.87-9.4,0-.43-.13-.79-.42-.99-.28-.12-.59-.18-.91-.13-.1.02-.2.06-.3.11.63.25,1.12.82,1.12,1.34,0,.73-6.98,8.34-7.71,8.91-.73.57-10.54,3.19-11.66,4.43-.55.61-1.02,1.47-1.44,2.5.33.13.66.25,1,.36.46-1.19.97-2.18,1.59-2.86,1.12-1.24,10.12-3.69,10.85-4.26Z" style="fill:#925f32;"/><path d="M14.28,41.32s0,0,.01,0c.45-1.19.96-2.18,1.58-2.87-.62.68-1.13,1.67-1.59,2.86Z" style="fill:#925f32;"/><path d="M26.38,34.03c.73-.57,7.71-8.18,7.71-8.91,0-.51-.49-1.09-1.12-1.34-.02.01-.04.01-.06.02.54.31.92.88.89,1.35-.06.73-7.34,8.65-8.12,9.16-.77.51-11,1.52-12.21,2.66-.75.71-1.38,1.8-1.98,3.14.58.3,1.18.58,1.8.83.42-1.03.88-1.88,1.44-2.5,1.12-1.24,10.93-3.86,11.66-4.43Z" style="fill:#925f32;"/><path d="M23.6,30.16c.66-.12,1.29-.28,1.61-.51h0c-.56.2-1.1.37-1.61.51Z" style="fill:#925f32;"/><path d="M25.67,34.33c.77-.51,8.06-8.43,8.12-9.16.04-.47-.35-1.04-.89-1.35-.81.42-1.79,1.71-3.11,2.8,0,0,0,0,0,0-.38.99-1.86,1.91-3.49,2.61-.09.22-.2.45-.36.69-.5.71-2.02.95-3.81,1.17-.44.05-.82.1-1.02.15-.59.15-1.64,1.13-1.99,1.5-.07.07-.16.11-.25.11l-.24-.1c-.14-.13-.14-.36,0-.49.14-.15,1.43-1.47,2.33-1.69.24-.06.62-.11,1.11-.17.13-.02.28-.03.43-.05-1.68.02-2.96-1.17-4.44-2.65-1.99.17-4.53.57-5.91,1.49-2.26,1.51-2,3.62-2.63,4.75-.17.31-.94,1.71-1.95,3.57,1.2,1.02,2.52,1.9,3.93,2.63.6-1.34,1.23-2.43,1.98-3.14,1.21-1.15,11.43-2.15,12.21-2.66Z" style="fill:#925f32;"/><path d="M11.91,29.03c-2.26,1.51-1.78,3.76-2.41,4.89.63-1.13.37-3.24,2.63-4.75,1.38-.92,3.92-1.32,5.91-1.49-.05-.05-.1-.1-.15-.15-2,.17-4.59.57-5.99,1.5Z" style="fill:#925f32;"/><polygon points="25.21 29.66 25.21 29.66 25.21 29.65 25.21 29.65 25.21 29.66" style="fill:#925f32;"/><path d="M24.03,28.28s.56-.17,1.37-.52c.02-.7-.04-1.36-.32-1.51-.2.07-.6.21-1.08.35.1.78.04,1.67.04,1.67Z" style="fill:#925f32;"/><path d="M25.4,27.77c.66-.28,1.48-.67,2.33-1.19.18-.11.35-.23.53-.36.24-.72-.4-.99-3.18.04.28.14.34.8.32,1.51Z" style="fill:#925f32;"/><path d="M25.32,29.59c.06-.03.14-.08.23-.14-.09.06-.18.11-.23.14Z" style="fill:#925f32;"/><path d="M26.15,29.08c.09-.05.17-.11.27-.17-.03.1-.08.21-.12.31,1.63-.7,3.11-1.62,3.49-2.61,0,0,0,0,0,0-.16.13-.32.26-.49.39-1.07.78-2.32,1.57-3.15,2.09Z" style="fill:#925f32;"/><path d="M25.26,29.62s-.04.03-.05.03c0,0,0,0,0,0,0,0,.03-.02.04-.03Z" style="fill:#925f32;"/><path d="M25.6,29.42c.11-.07.25-.15.4-.24-.15.09-.28.17-.4.24Z" style="fill:#925f32;"/><path d="M25.4,27.77c-.02.62-.1,1.26-.15,1.62.36-.22.71-.47,1.05-.74.78-.76,1.73-1.78,1.95-2.43-.17.12-.34.24-.53.36-.85.52-1.67.91-2.33,1.19Z" style="fill:#925f32;"/><path d="M22.24,27.1c-.71.18-1.37.31-1.74.31s-1.38.02-2.61.12c.05.05.1.1.15.15,1.26-.11,2.3-.13,2.68-.13.34,0,.91-.2,1.52-.45Z" style="fill:#925f32;"/><path d="M25.25,29.38c-.59.36-1.18.64-1.74.79.03,0,.06-.01.09-.02.51-.14,1.05-.31,1.61-.51,0,0,.02-.1.04-.27Z" style="fill:#925f32;"/><path d="M25.21,29.65s0,0,0,0c.01-.01.5-.43,1.09-1.01-.34.27-.69.52-1.05.74-.02.17-.04.27-.04.27Z" style="fill:#925f32;"/><path d="M25.25,29.38c.05-.35.13-1,.15-1.62-.81.34-1.37.52-1.37.52,0,0,.06-.89-.04-1.67-.53.16-1.15.34-1.75.49-.61.25-1.18.45-1.52.45-.38,0-1.42.02-2.68.13,1.47,1.48,2.76,2.67,4.44,2.65.32-.04.68-.09,1.03-.15.56-.16,1.15-.43,1.74-.79Z" style="fill:#925f32;"/><path d="M25.21,29.66h0c-.32.23-.95.39-1.61.51-.06.02-.13.04-.19.05-.33.09-.64.12-.93.12-.15.02-.3.04-.43.05-.48.06-.87.11-1.11.17-.89.22-2.18,1.54-2.33,1.69-.13.14-.13.36,0,.49l.24.1c.09,0,.18-.04.25-.11.35-.37,1.4-1.35,1.99-1.5.2-.05.58-.1,1.02-.15,1.79-.22,3.3-.46,3.81-1.17.16-.23.27-.46.36-.69-.36.15-.72.3-1.09.43,0,0,0,0,0,0Z" style="fill:#794f2a;"/><path d="M23.41,30.21s.06-.03.1-.03c-.35.06-.71.11-1.03.15.3,0,.61-.03.93-.12Z" style="fill:#794f2a;"/><path d="M26.15,29.08c-.05.03-.1.06-.15.09-.15.09-.28.17-.4.24-.02.01-.03.02-.04.03-.1.06-.18.11-.23.14-.03.02-.04.02-.06.04-.01,0-.04.02-.04.03,0,0,0,0,0,0,0,0,0,0,0,0,.36-.13.73-.27,1.09-.43.04-.1.09-.21.12-.31-.1.06-.18.11-.27.17Z" style="fill:#794f2a;"/><path d="M23.41,30.21c.06-.02.12-.03.19-.05-.03,0-.06.01-.09.02-.03,0-.06.03-.1.03Z" style="fill:#794f2a;"/><path d="M15.48,12.22c.09,0,.09-.14,0-.14s-.09.14,0,.14Z" style="fill:#bcbec0;"/><path d="M15.18,12.62c.09,0,.09-.14,0-.14s-.09.14,0,.14Z" style="fill:#bcbec0;"/><path d="M14.91,12.02h0c0,.1.14.1.14.01h0c0-.1-.14-.1-.14-.01Z" style="fill:#bcbec0;"/><path d="M15.93,11.43c0,.18.15.32.32.32s.32-.15.32-.32-.15-.32-.32-.32-.32.15-.32.32Z" style="fill:#343c3d;"/></g></svg>