<?xml version="1.0" encoding="UTF-8"?><svg id="b" xmlns="http://www.w3.org/2000/svg" viewBox="0 0 42.52 42.52"><g id="c"><circle cx="21.26" cy="21.26" r="21.26" style="fill:#fff; opacity:.35;"/><path d="M35.01,22.81c-.09-.23-.23-.43-.4-.6-.17-.17-.38-.31-.6-.4-.22-.09-.47-.14-.71-.14h-.73c-.8-2.59-2.52-4.79-4.83-6.19,0,0-.12-2.59,1.6-4.36.04-.04.07-.09.08-.14.01-.05,0-.11-.01-.16-.02-.05-.06-.1-.1-.13-.05-.03-.1-.05-.16-.05-1.05-.04-2.16.06-3.16.41,0-.13.03-.26.03-.4,0-.77-.15-1.54-.44-2.25s-.73-1.36-1.27-1.91c-.55-.55-1.19-.98-1.91-1.27-.71-.29-1.48-.44-2.25-.44-.8,0-1.57.17-2.3.48h0s-.06.02-.09.04c-.18.08-.35.18-.52.27-.09.05-.18.1-.27.15-.02.02-.05.03-.08.04-.18.12-.35.26-.52.4-.04.03-.08.06-.12.09-.46.41-.86.89-1.17,1.42,0,0,0,0,0,.01h0c-.13.23-.25.46-.35.7-.44,1.07-.56,2.25-.33,3.39.18.93.6,1.79,1.19,2.52-.38.12-.76.25-1.11.4-.06.02-.12.04-.17.07-.11.05-.22.11-.33.16-.16.07-.32.14-.47.22-.08.04-.16.09-.24.14-.17.09-.34.19-.51.29-.72.45-1.37.97-1.95,1.54-1.19,1.19-2.09,2.63-2.63,4.22,0,0,0,.02,0,.03h-2.02c-.05,0-.83-.04-1.43-.56.26,0,1.33-.06,1.98-.7.34-.33.51-.76.51-1.27,0-1.21-.96-1.85-1.9-1.85-.51,0-.99.18-1.35.51-.28.26-.62.74-.62,1.55,0,.41.06.77.16,1.08h-1.19c-.19,0-.34.15-.34.34s.15.34.34.34h1.52c.61.9,1.65,1.21,2.31,1.24h1.84c-.37,1.38-.49,2.82-.32,4.25.21,1.67.79,3.26,1.71,4.67s2.15,2.58,3.59,3.44v2.5c0,.18.04.36.11.53t0,0c.03.07.08.12.12.18.06.09.1.19.18.27,0,0,0,0,0,0,0,0,0,0,0,0,.06.06.14.09.2.14.08.06.15.13.24.16,0,0,0,0,0,0,.07.03.15.03.23.05.1.02.19.06.3.06h1.9c.08,0,.15-.03.2-.08s.08-.13.08-.2v-2.24c.11.02.22.04.33.06.58.09,1.16.14,1.74.14h3.42c.44,0,.87-.03,1.3-.08.11-.01.22-.03.33-.04v1.07c0,.18.04.36.11.53s.17.32.3.45c.13.13.28.23.45.3s.35.1.53.1h1.9c.08,0,.15-.03.2-.08.05-.05.08-.13.08-.2v-3.35c1.42-.76,2.65-1.82,3.61-3.1s1.64-2.76,1.97-4.34h.49c.49,0,.96-.19,1.31-.54.35-.35.54-.82.54-1.31v-1.83c0-.24-.05-.48-.14-.71ZM4.2,20.11c-.13-.29-.21-.64-.21-1.08s.14-.81.41-1.05c.23-.21.55-.33.89-.33.59,0,1.23.37,1.23,1.17,0,.33-.1.58-.31.79-.53.52-1.53.5-1.56.5h-.45Z" style="opacity:.3;"/><path d="M10.37,21.51h-2.45c-.66-.02-1.7-.33-2.31-1.24h-1.52c-.19,0-.34-.15-.34-.34s.15-.34.34-.34h1.19c-.1-.31-.16-.67-.16-1.08,0-.8.34-1.28.62-1.55.36-.33.84-.51,1.35-.51.94,0,1.9.63,1.9,1.85,0,.51-.17.94-.51,1.27-.65.64-1.72.69-1.98.7.6.52,1.38.56,1.43.56h2.44c.19,0,.34.15.34.34s-.15.34-.34.34M6,19.6h.45s1.03.01,1.56-.5c.21-.2.31-.46.31-.79,0-.81-.64-1.17-1.23-1.17-.34,0-.66.12-.89.33-.27.25-.41.61-.41,1.05s.08.79.21,1.08" style="fill:#f28ba8;"/><path d="M5.79,18.53h0c0-.44.14-.81.41-1.05.23-.21.55-.33.89-.33.59,0,1.23.37,1.23,1.17h0c0,.33-.1.58-.31.79-.53.52-1.53.5-1.56.5h-.45c-.13-.29-.21-.64-.21-1.08h0M7.09,16.47c-.51,0-.99.18-1.35.51-.28.26-.62.74-.62,1.55,0,.41.06.77.16,1.08h-1.19c-.19,0-.34.15-.34.34s.15.34.34.34h1.52c.61.9,1.65,1.21,2.31,1.24h1.82c.06-.23.13-.45.21-.67h-2.02c-.05,0-.83-.04-1.43-.56h0c.26,0,1.32-.06,1.98-.7.34-.33.51-.76.51-1.27,0-1.21-.96-1.85-1.9-1.85" style="fill:#e46e8c;"/><path d="M36.95,23.01v1.83c0,.49-.2.96-.54,1.31-.35.35-.82.54-1.31.54h-.49c-.33,1.57-1.01,3.05-1.97,4.34-.97,1.28-2.2,2.34-3.62,3.1v3.35l-.08.2-.2.08h-1.9c-.18,0-.36-.04-.53-.1-.17-.07-.32-.17-.45-.3-.13-.13-.23-.28-.3-.45-.07-.17-.11-.35-.11-.53v-1.07c-.11.02-.22.03-.33.04-.43.05-.87.08-1.3.08h-3.42c-.58,0-1.17-.05-1.74-.14-.11-.02-.22-.04-.33-.06v2.24l-.08.2-.2.08h-1.9c-.37,0-.72-.15-.98-.41-.26-.26-.4-.61-.4-.98v-2.5c-1.44-.86-2.67-2.04-3.59-3.44-.92-1.41-1.5-3-1.71-4.67-.21-1.67-.03-3.36.51-4.95.54-1.59,1.45-3.03,2.63-4.22,1.54-1.54,3.59-2.66,6.17-3.16l7.71-2.26c1.23-.87,2.92-1.12,4.47-1.06l.16.05.1.13v.16s-.06.14-.06.14c-1.72,1.78-1.6,4.36-1.6,4.36,2.32,1.4,4.04,3.61,4.83,6.2h.73c.24,0,.48.05.71.14s.43.23.6.4.31.38.4.6c.09.22.14.47.14.71" style="fill:#e196aa;"/><path d="M9.75,21.51h0c-.37,1.38-.48,2.83-.3,4.25.21,1.67.79,3.26,1.71,4.67s2.15,2.58,3.59,3.44c-1.44-.86-2.67-2.04-3.59-3.44-.92-1.41-1.5-3-1.71-4.67-.18-1.42-.08-2.87.3-4.25M14.77,14.91c-.82.48-1.54,1.05-2.18,1.68-1.19,1.19-2.09,2.63-2.63,4.22,0,0,0,.02,0,.03h0s0-.02,0-.03c.54-1.59,1.45-3.03,2.63-4.22.64-.64,1.36-1.2,2.17-1.68M14.81,14.89s-.02.01-.03.02c.01,0,.02-.01.03-.02M15.83,14.36s0,0,0,0c0,0,0,0,0,0M15.88,14.34s-.01,0-.02.01c0,0,.01,0,.02-.01M17.35,13.79c-.51.16-1,.34-1.46.55.46-.21.95-.39,1.46-.55,0,0,0,0,0,0" style="fill:#f0cad4;"/><path d="M9.95,20.84h0c-.08.22-.14.45-.21.67h0c.06-.23.13-.45.21-.67" style="fill:#d65774;"/><path d="M17.81,37.76h0,0M15.16,37.35s0,0,0,0c.13.13.28.23.45.3.17.07.34.1.53.1h0,0c-.37,0-.72-.15-.98-.41M15.14,37.34s0,0,0,0c0,0,0,0,0,0M15.13,37.33s0,0,0,0c0,0,0,0,0,0M15.12,37.31s0,0,0,0c0,0,0,0,0,0M15.11,37.3s0,0,0,0c0,0,0,0,0,0M15.1,37.29s0,0,0,0c0,0,0,0,0,0M15.09,37.28h0s0,0,0,0M14.9,37s0,0,0,0c0,0,0,0,0,0M14.89,36.98s0,0,0,0c0,0,0,0,0,0M14.75,36.4c0,.17.04.35.11.51.01.03.02.05.03.08-.09-.18-.14-.38-.14-.58" style="fill:#f0cad4;"/><path d="M17.81,37.76h0,0M17.35,13.79c-.51.16-1,.34-1.46.55,0,0,0,0,0,0,0,0-.02,0-.02.01-.01,0-.02,0-.03.01,0,0,0,0,0,0-.35.16-.69.34-1.01.52-.01,0-.02.01-.03.02h-.01c-.81.49-1.54,1.05-2.17,1.69-1.19,1.19-2.09,2.63-2.63,4.22,0,0,0,.02,0,.03h0c-.08.22-.14.45-.21.67h0c-.37,1.38-.48,2.82-.3,4.25.21,1.67.79,3.26,1.71,4.67.92,1.41,2.15,2.58,3.59,3.44h0v2.52c0,.2.05.4.14.58h0s0,0,0,0c0,0,0,0,0,0,0,0,0,0,0,0,.05.1.11.19.19.28h0s0,0,.01.01c0,0,0,0,0,0,0,0,0,0,0,.01,0,0,0,0,0,0,0,0,0,0,0,0,0,0,0,0,0,0,0,0,0,0,0,0,0,0,0,0,0,0,0,0,0,0,0,0,0,0,0,0,0,0,0,0,0,0,0,0,.26.26.61.4.98.41h1.67c-.18,0-.36-.04-.52-.1-.17-.07-.32-.17-.45-.3-.13-.13-.23-.28-.3-.45s-.11-.35-.11-.53v-2.5c-1.44-.86-2.67-2.04-3.59-3.44-.92-1.41-1.5-3-1.71-4.67-.21-1.67-.03-3.36.51-4.95.55-1.59,1.45-3.03,2.64-4.22.96-.96,2.12-1.76,3.49-2.34-.15-.15-.28-.3-.41-.46" style="fill:#d4778d;"/><path d="M25.38,16.62l-.12-.02s-.92-.31-3.44-.31-3.17.3-3.18.3c-.17.07-.37,0-.44-.16-.08-.17-.01-.36.15-.44.08-.04.83-.37,3.47-.37s3.63.34,3.67.36c.17.06.26.26.2.43-.05.14-.18.22-.31.22" style="fill:#343c3d;"/><path d="M29.01,18.32c-.19,0-.38.06-.55.17-.16.11-.29.26-.36.44s-.09.38-.06.57c.04.19.13.37.27.5.14.14.31.23.5.27.19.04.39.02.57-.06.18-.07.33-.2.44-.36.11-.16.17-.35.17-.55,0-.26-.1-.51-.29-.69-.18-.18-.43-.29-.69-.29Z" style="fill:#343c3d;"/><path d="M27.81,10.12c0,1.16-.34,2.3-.99,3.26-.64.97-1.56,1.72-2.63,2.16-1.07.44-2.25.56-3.39.34-1.14-.23-2.19-.79-3.01-1.61-.82-.82-1.38-1.87-1.61-3.01-.23-1.14-.11-2.32.34-3.39.44-1.07,1.2-1.99,2.16-2.63.97-.65,2.1-.99,3.26-.99.77,0,1.54.15,2.25.44.71.29,1.36.73,1.91,1.27.55.55.98,1.19,1.27,1.91.29.71.44,1.48.44,2.25" style="fill:#fcd385;"/><path d="M21.97,4.25h-.03c-.79,0-1.58.16-2.3.47l1.04,1.18,5.29,5.99,1.04,1.18c-.64,1.09-1.61,1.95-2.77,2.45l-1.04-1.18-5.29-5.99-1.04-1.18c.61-1.05,1.54-1.89,2.64-2.39-.29.13-.57.29-.83.46-.97.64-1.72,1.56-2.16,2.63-.3.72-.45,1.49-.45,2.26,0,.38.04.76.11,1.13.23,1.14.79,2.19,1.61,3.01.82.82,1.87,1.38,3.01,1.61.38.08.76.11,1.14.11.77,0,1.53-.15,2.25-.45,1.07-.44,1.99-1.2,2.63-2.16.64-.97.99-2.1.99-3.26v-.04c0-.76-.15-1.51-.44-2.21-.29-.71-.73-1.36-1.27-1.91-.55-.55-1.19-.98-1.91-1.27-.7-.29-1.46-.44-2.22-.44" style="fill:#fbc66f;"/><path d="M19.63,4.72s-.08.04-.12.05c.04-.02.08-.04.12-.05h0" style="fill:#fff;"/><path d="M19.63,4.72s-.08.04-.12.05c-1.11.5-2.03,1.34-2.64,2.39l1.04,1.18,5.29,5.99,1.04,1.18c1.16-.5,2.13-1.36,2.77-2.45l-1.04-1.18-5.29-5.99-1.04-1.18" style="fill:#fcd18c;"/><path d="M21.94,14.65c-1.21,0-2.35-.47-3.2-1.33-1.77-1.77-1.77-4.64,0-6.4.86-.86,1.99-1.33,3.2-1.33s2.35.47,3.2,1.33c1.77,1.77,1.77,4.64,0,6.4-.86.86-1.99,1.33-3.2,1.33ZM21.94,5.85c-1.14,0-2.21.44-3.02,1.25-1.67,1.67-1.67,4.38,0,6.04.81.81,1.88,1.25,3.02,1.25s2.21-.44,3.02-1.25c1.67-1.67,1.67-4.38,0-6.04-.81-.81-1.88-1.25-3.02-1.25Z" style="fill:#fff;"/></g></svg>