<?xml version="1.0" encoding="UTF-8"?><svg id="b" xmlns="http://www.w3.org/2000/svg" viewBox="0 0 42.52 42.52"><g id="c"><circle cx="21.26" cy="21.26" r="21.26" style="fill:#fff; opacity:.35;"/><path d="M28.65,29.63c.02-.23.05-.46.09-.69,0-.01,0-.02,0-.03.26-1.55.86-3.02,1.77-4.32,1.45-2.03,2.3-4.51,2.3-7.19,0-6.55-5.09-11.92-11.52-12.38h0c-.13,0-.27-.02-.4-.02-.16,0-.33-.01-.49-.01-5.35,0-9.92,3.4-11.66,8.15-.07.19-.13.38-.2.58-.12.39-.22.79-.31,1.19-.17.81-.25,1.64-.25,2.5,0,1.01.12,1.98.35,2.92.08.31.16.62.26.92.05.15.1.3.16.45.09.25.2.5.31.74.05.11.1.23.16.34.31.64.67,1.25,1.08,1.82,0,0,0,0,0,0,.14.19.26.39.39.6.04.06.07.12.11.19.09.15.17.3.25.45.03.07.07.13.1.2.1.21.2.42.29.63.01.03.02.07.04.1.07.18.14.37.2.56.03.08.05.16.08.25.05.15.09.3.13.45.02.08.04.17.06.25.05.22.1.43.13.65,0,.01,0,.03,0,.04,0,.02,0,.03,0,.05.03.21.06.43.08.65,0,.06.01.11.01.17.01.17.02.34.02.51-.16.08-.3.17-.43.28,0,0,0,0,0,0-.13.11-.24.24-.33.38,0,0,0,.01-.01.02-.04.06-.07.13-.1.19,0,.01-.01.02-.02.04-.03.07-.06.15-.08.22,0,0,0,.02,0,.03-.02.07-.03.13-.05.2,0,.02,0,.04,0,.06-.01.08-.02.16-.02.24,0,.06,0,.13,0,.19,0,.02,0,.05.01.07,0,.04,0,.08.02.12,0,.03.01.06.02.09,0,.03.01.06.02.09,0,.03.02.06.03.1,0,.02.02.05.03.07.01.04.03.07.05.1,0,.02.02.04.03.06.02.04.04.07.06.11,0,.01.02.03.03.04.03.04.05.08.08.11,0,0,.01.02.02.03.03.04.06.08.1.11,0,0,.01.01.02.02.04.04.08.07.12.11,0,0,0,0,.01,0,.04.04.09.07.13.1,0,0,0,0,0,0,.29.2.64.33,1.01.34,0,0,0,0,0,0,.08.13.17.25.27.37.1.12.2.24.32.36.1.1.21.2.32.29.09.08.19.15.29.22.02.01.03.02.05.03.23.16.48.29.74.4,0,0,0,0,0,0v.02s.54,1.81.54,1.81c.31,1.06,1.25,1.82,2.34,1.91.07,0,.15,0,.22,0h4.74c1.18,0,2.23-.78,2.56-1.92l.54-1.83c.52-.22.99-.54,1.4-.95.22-.22.41-.47.58-.73,1.01-.03,1.82-.85,1.82-1.87,0-.74-.43-1.38-1.06-1.68,0-.17.01-.34.02-.5,0-.06,0-.12.01-.17Z" style="opacity:.17;"/><path d="M27.63,34.26c.03-.11,0-.23-.09-.31-.08-.08-.21-.1-.31-.06-.45.18-.94.27-1.43.27h-7.35c-.5,0-.98-.09-1.43-.27-.11-.04-.23-.02-.31.06-.08.08-.12.2-.09.31l.58,1.96c.33,1.14,1.38,1.92,2.56,1.92h4.74c1.18,0,2.23-.78,2.56-1.92l.58-1.96" style="fill:#343c3d; fill-rule:evenodd;"/><path d="M13.93,29.37c0,.1.05.19.13.24.08.06.18.07.27.04.13-.04.26-.07.41-.07h14.79c.14,0,.28.02.41.07.09.03.19.02.27-.04.08-.06.13-.15.13-.24.02-2.12.69-4.18,1.91-5.92,1.45-2.03,2.3-4.51,2.3-7.19,0-6.85-5.56-12.41-12.41-12.41s-12.41,5.56-12.41,12.41c0,2.68.85,5.16,2.31,7.18,1.22,1.74,1.89,3.8,1.91,5.93" style="fill:#fde5b6; fill-rule:evenodd;"/><path d="M29.67,32.58c.06-.09.06-.21,0-.3-.05-.09-.15-.15-.26-.15h-14.58c-.11,0-.21.06-.26.15-.05.09-.05.21,0,.3.19.32.42.61.68.87.85.85,1.99,1.32,3.19,1.32h7.35c1.2,0,2.35-.48,3.19-1.32.26-.26.49-.56.68-.87M13.93,29.37c0,.1.05.19.13.24.08.06.18.07.27.04.13-.04.26-.07.41-.07h14.79c.14,0,.28.02.41.07.09.03.19.02.27-.04.08-.06.13-.15.13-.24,0-.7.09-1.39.23-2.07l-.06-.25c-.06-.07-.14-.11-.23-.11H14c-.09,0-.18.04-.23.11l-.06.25c.14.68.22,1.37.23,2.07" style="fill:#a3b8b3; fill-rule:evenodd;"/><path d="M14.74,32.72h14.79c1.03,0,1.87-.84,1.87-1.87s-.84-1.87-1.87-1.87h-14.79c-1.03,0-1.87.84-1.87,1.87s.84,1.87,1.87,1.87" style="fill:#668980; fill-rule:evenodd;"/><path d="M12.31,23.87c.75,1.19,1.25,2.51,1.48,3.89v.04c.04.23.07.46.09.69v.17c.03.17.03.34.04.5,0,0,0,0,0,0,0-.02,0-.04,0-.06h0s0-.04,0-.06h0c0-.07,0-.13-.01-.2h0c0-.07,0-.13-.01-.19,0,0,0,0,0,0,0-.06-.01-.13-.02-.19,0,0,0,0,0-.01,0-.02,0-.03,0-.05,0,0,0,0,0-.01,0-.02,0-.04,0-.06,0,0,0,0,0-.01,0-.01,0-.03,0-.04,0,0,0-.01,0-.02,0-.01,0-.02,0-.04,0,0,0-.01,0-.02,0-.01,0-.03,0-.04,0-.01,0-.02,0-.04,0,0,0-.02,0-.03,0-.01,0-.02,0-.03,0,0,0-.02,0-.03,0-.01,0-.02,0-.03,0,0,0-.01,0-.02,0-.02,0-.05-.01-.07,0,0,0,0,0-.01,0-.01,0-.03,0-.04,0,0,0-.01,0-.02,0-.01,0-.03,0-.04h0c0-.05-.01-.1-.02-.14,0,0,0,0,0-.01,0-.01,0-.03,0-.04,0,0,0,0,0-.01,0-.03,0-.05-.01-.08,0,0,0,0,0,0,0-.01,0-.02,0-.03,0,0,0-.02,0-.02,0,0,0-.02,0-.03,0-.01,0-.02,0-.04,0,0,0-.01,0-.02,0-.02,0-.04-.01-.06-.26-1.21-.73-2.37-1.4-3.43M12.23,23.75s.05.08.08.12c-.03-.04-.05-.08-.08-.12M12.19,23.69s.02.04.04.06c-.01-.02-.02-.04-.04-.06M12.15,23.63s.02.03.03.05c-.01-.02-.02-.03-.03-.05M12.1,23.56s.02.04.04.05c-.01-.02-.02-.04-.04-.05M12.07,23.51s.02.03.03.05c-.01-.02-.02-.03-.03-.05M12.02,23.44s.03.04.04.05c-.01-.02-.03-.04-.04-.05M22.12,3.84c-6.85,0-12.41,5.56-12.41,12.41h0c0-6.85,5.56-12.41,12.41-12.41.02,0,.04,0,.06,0-.02,0-.04,0-.06,0" style="fill:#ccc;"/><path d="M13.93,29.11h0s0,0,0,0M13.92,29.04h0s0,0,0,0M13.91,28.84h0s0,0,0,0M13.9,28.65s0,0,0,0c0,0,0,0,0,0M13.88,28.45s0,0,0,.01c0,0,0,0,0-.01M13.88,28.39s0,0,0,.01c0,0,0,0,0-.01M13.87,28.31s0,0,0,.01c0,0,0,0,0-.01M13.86,28.25s0,.01,0,.02c0,0,0-.01,0-.02M13.85,28.19s0,.01,0,.02c0,0,0-.01,0-.02M13.84,28.11s0,.02,0,.04c0-.01,0-.02,0-.04M13.83,28.05s0,.02,0,.03c0-.01,0-.02,0-.03M13.83,27.99s0,.02,0,.03v-.03M13.81,27.9s0,.05.01.07c0-.02,0-.05-.01-.07M13.8,27.85s0,.03,0,.04c0-.01,0-.03,0-.04M13.8,27.79s0,.03,0,.04c0-.01,0-.03,0-.04M13.77,27.65s.02.09.02.13c0-.04-.01-.09-.02-.13M13.76,27.6s0,.03,0,.04c0-.01,0-.03,0-.04M13.75,27.51s.01.05.01.08c0-.03,0-.05-.01-.08M13.74,27.47s0,.02,0,.03c0-.01,0-.02,0-.03M13.73,27.41s0,.02,0,.03c0,0,0-.02,0-.03M13.72,27.36s0,.01,0,.02c0,0,0-.01,0-.02M22.12,3.84c-6.85,0-12.41,5.56-12.41,12.41,0,2.68.85,5.16,2.31,7.18h0s.03.04.04.05c0,0,0,0,0,.01.01.02.02.03.03.05,0,0,0,0,0,0,.01.02.02.04.04.05,0,0,0,0,0,.01.01.02.02.03.03.05,0,0,0,0,0,0,.01.02.02.04.04.06,0,0,0,0,0,0,.03.04.05.08.08.12,0,0,0,0,0,0,.67,1.05,1.14,2.22,1.4,3.43,0,0,0,0,0,0l.06-.25c.06-.07.14-.11.23-.11h1.41c-.31-1.25-.85-2.43-1.6-3.49-1.46-2.02-2.31-4.5-2.31-7.18,0-6.55,5.09-11.92,11.52-12.38-.28-.02-.55-.03-.84-.04-.02,0-.04,0-.06,0" style="fill:#cab792;"/><path d="M15.41,26.93h-1.41c-.09,0-.18.04-.23.11l-.06.25s0,0,0,0c0,.02,0,.04.01.06,0,0,0,.01,0,.02,0,.01,0,.02,0,.04,0,0,0,.02,0,.03,0,0,0,.02,0,.02,0,.01,0,.02,0,.03,0,0,0,0,0,0,0,.03.01.05.01.08,0,0,0,0,0,.01,0,.01,0,.03,0,.04,0,0,0,0,0,.01,0,.04.02.09.02.13h0s0,.04,0,.05c0,0,0,.01,0,.02,0,.01,0,.03,0,.04,0,0,0,0,0,.01,0,.02,0,.05.01.07,0,0,0,.01,0,.02v.03s0,.02,0,.03c0,.01,0,.02,0,.03,0,0,0,.02,0,.03,0,.01,0,.02,0,.04,0,.01,0,.03,0,.04,0,0,0,.01,0,.02,0,.01,0,.02,0,.04,0,0,0,.01,0,.02,0,.01,0,.03,0,.04,0,0,0,0,0,.01,0,.02,0,.04,0,.06,0,0,0,0,0,.01,0,.02,0,.03,0,.05,0,0,0,0,0,.01,0,.06.01.13.02.19,0,0,0,0,0,0,0,.06,0,.13.01.19h0c0,.07,0,.13.01.2h0s0,.04,0,.07h0s0,.04,0,.06c.24-.12.52-.18.81-.18h.97c0-.11-.01-.21-.02-.32v-.17c-.04-.23-.06-.46-.1-.69v-.04c-.05-.28-.11-.55-.18-.83" style="fill:#82938f;"/><path d="M12.9,31.2s0,0,0,0c0,0,0,0,0,0M12.89,31.18s0,0,0,0c0,0,0,0,0,0M12.89,31.15s0,0,0,0c0,0,0,0,0,0M12.89,31.13s0,0,0,0c0,0,0,0,0,0M12.88,31.1s0,0,0,0c0,0,0,0,0,0M12.88,31.08s0,0,0,0c0,0,0,0,0,0M12.88,31.06s0,0,0,0c0,0,0,0,0,0M12.87,31.03s0,0,0,0c0,0,0,0,0,0M12.87,31.01s0,0,0,.01c0,0,0,0,0-.01M12.87,30.98h0s0,0,0,0M12.87,30.96s0,0,0,.01c0,0,0,0,0-.01M12.87,30.94s0,0,0,.01c0,0,0,0,0-.01M12.87,30.91s0,0,0,.01c0,0,0,0,0-.01M12.87,30.89s0,0,0,.01c0,0,0,0,0-.01M12.87,30.85v.02-.02M12.87,30.83v.02h0v-.02M12.87,30.81s0,.01,0,.02c0,0,0-.01,0-.02M12.87,30.78s0,.01,0,.02c0,0,0-.01,0-.02M12.87,30.76s0,0,0,.01c0,0,0,0,0-.01M12.87,30.74s0,0,0,.01c0,0,0,0,0-.01M12.87,30.71s0,0,0,.01c0,0,0,0,0-.01M12.87,30.69s0,0,0,0c0,0,0,0,0,0M12.88,30.65h0s0,0,0,0" style="fill:#ccc;"/><path d="M16.66,34.4l.54,1.82c.33,1.14,1.38,1.92,2.56,1.92h1.79c-1.18,0-2.23-.78-2.56-1.92l-.43-1.45h-.11c-.62,0-1.23-.13-1.79-.37" style="fill:#2a3031;"/><path d="M14.67,32.72c.17.26.36.5.58.73.41.41.88.72,1.4.95h0c.56.25,1.17.37,1.79.37h.11l-.11-.37c-.52-.22-1-.54-1.4-.95-.22-.22-.41-.47-.58-.73h-1.73s-.04,0-.06,0" style="fill:#82938f;"/><path d="M15.7,28.98h-.97c-.29,0-.56.07-.81.18,0,0,0,0,0,0h0c-.57.28-.97.83-1.05,1.48h0s0,.03,0,.05c0,0,0,0,0,0,0,0,0,0,0,.01,0,0,0,0,0,.01,0,0,0,0,0,.01,0,0,0,0,0,.01,0,0,0,0,0,0,0,0,0,0,0,.01,0,0,0,0,0,0,0,0,0,.01,0,.02,0,0,0,0,0,0,0,0,0,.01,0,.02,0,0,0,0,0,0v.02h0v.02s0,0,0,.01c0,0,0,0,0,.01,0,0,0,0,0,.01,0,0,0,0,0,.01,0,0,0,0,0,.01,0,0,0,0,0,.01,0,0,0,0,0,.01,0,0,0,0,0,.01,0,0,0,0,0,.01,0,0,0,0,0,.01,0,0,0,0,0,.01,0,0,0,0,0,.01,0,0,0,0,0,.01,0,0,0,0,0,0,0,0,0,0,0,.01,0,0,0,0,0,0,0,0,0,.01,0,.02,0,0,0,0,0,0,0,0,0,.01,0,.02,0,0,0,0,0,0,0,0,0,.01,0,.02,0,0,0,0,0,0,0,0,0,.01,0,.02,0,0,0,0,0,0,0,0,0,.01,0,.02,0,0,0,0,0,0,0,0,0,.01,0,.02,0,0,0,0,0,0,.16.85.89,1.49,1.78,1.52h0s.04,0,.06,0h1.73s0,0,0,0c-1-.03-1.81-.86-1.81-1.87,0-.74.43-1.38,1.06-1.68,0-.06,0-.13,0-.19" style="fill:#526e66;"/><path d="M21.75,17.35l-.02.1-.09.03h-.05s-.13.03-.13.03h-.02l-.1.02h-.06s-.1.03-.1.03h0c-.27.03-.54.04-.82.03h-.02c-.47-.03-.96-.12-1.45-.29l-.08-.03-.21-.08-.08-.03c-.11-.04-.22-.1-.34-.15-.11-.05-.22-.1-.32-.16-.18-.1-.37-.2-.55-.31-.36-.22-.72-.49-1.05-.79-.24-.22-.47-.43-.67-.67-.09-.1-.16-.18-.24-.28-.08-.1-.15-.19-.23-.28l-.1-.15c-.07-.09-.13-.19-.2-.29-.06-.1-.12-.2-.18-.29-.54-.95-.81-1.94-.77-2.84v-.11s0-.03,0-.03v-.1s.02-.05.02-.05v-.02h0s.12-.14.12-.14l.11-.03h0l.09-.02.1-.02h.08s.07-.02.07-.02h.14s.17-.02.17-.02h.52s0,0,0,0h.15s.16.03.16.03c1.24.16,2.57.76,3.74,1.79,1.71,1.51,2.57,3.5,2.37,5.11" style="fill:#00845f;"/><path d="M21.2,17.56h0c-.18.02-.36.03-.54.03h0c.18,0,.37-.01.55-.03M21.46,17.51h0l-.1.02h-.06s-.1.03-.1.03h0l.09-.02h.06s.09-.03.09-.03M21.62,17.48h-.02s-.13.03-.13.03h0l.13-.03h.01M15.04,10.42s-.08,0-.12,0h-.09.51s0,0,0,0h.15s.16.03.16.03c0,0,0,0,0,0h0s-.16-.02-.16-.02h-.15s0,0,0,0c-.1,0-.21-.01-.31-.01" style="fill:#7eae7d;"/><path d="M15.12,10.42h-.47s-.1.02-.1.02h-.1s-.08.02-.08.02l-.1.02-.09.02h0l-.11.03-.12.13h0v.08s-.02.1-.02.1v.14c-.05.9.22,1.89.76,2.84.06.09.12.2.18.29.07.1.13.2.2.29l.1.15c.08.09.15.19.22.28.08.1.16.18.24.28.2.23.42.45.66.67.34.3.69.57,1.05.79.18.11.37.22.55.31.1.05.21.1.32.16.11.05.22.1.34.15l.08.03.21.08.08.03c.49.16.98.26,1.45.29h.02c.09,0,.18,0,.27,0,.18,0,.37-.01.54-.03h0l.1-.02h.06s.1-.03.1-.03h.02l.13-.03h.02s.01,0,.01,0h.02s0,0,0,0l.09-.13c0-.09-.05-.16-.15-.18-1.15-.21-2.36-.8-3.43-1.74-1.59-1.41-2.44-3.24-2.38-4.79l-.15-.17s0,0,0,0l-.16-.02h-.15s0,0,0,0h-.22" style="fill:#006441;"/><path d="M18.18,13.54l-.21.03.03.21h0s.1.07.28.21c.54.42,1.79,1.48,3.22,3.1h.21s.01-.2.01-.2c-1.92-2.18-3.54-3.35-3.54-3.35" style="fill:#00563e;"/><path d="M28.01,22.4c-1.82,1.45-3.9,2.19-5.71,2.2h-.04s-.11,0-.11,0h-.14s-.07-.01-.07-.01h-.15s-.02-.01-.02-.01c-.34-.02-.66-.07-.97-.15l-.1-.03c-.1-.03-.19-.06-.28-.08-.24-2.24,1.08-4.98,3.57-6.95.2-.17.42-.32.63-.46,2.08-1.46,4.42-2.01,6.27-1.64l.08.02.12.03.1.03.08.02.13.04.13.09.05.14c.15,2.19-1.16,4.84-3.58,6.77" style="fill:#00845f;"/><path d="M30.75,15.24s.06.01.09.02c-.03,0-.06-.01-.09-.02M30.72,15.23s0,0,0,0c0,0,0,0,0,0M30.68,15.23s0,0,0,0c0,0,0,0,0,0" style="fill:#7eae7d;"/><path d="M29.74,15.15c-1.61,0-3.44.59-5.12,1.75h0c-.21.14-.42.29-.63.46-2.29,1.82-3.6,4.29-3.6,6.41,0,.18,0,.36.03.53.09.02.19.06.28.08l.1.03c.31.08.63.13.97.15h.02s.15.01.15.01h.07s.14.01.14.01h.11s.04,0,.04,0c-.21-2.23,1.1-4.95,3.57-6.91,1.81-1.43,3.86-2.19,5.67-2.2l-.12-.09-.13-.04-.08-.02-.1-.03-.12-.03-.08-.02h0s-.03,0-.05,0c-.03,0-.06-.01-.09-.02,0,0-.02,0-.03,0,0,0,0,0,0,0,0,0-.02,0-.03,0,0,0,0,0,0,0-.31-.05-.62-.07-.95-.07" style="fill:#006441;"/><path d="M28.37,18.19c-3.33,1.41-5.79,4.23-5.8,4.23v.21s.23-.01.23-.01c0,0,.15-.17.43-.45.84-.85,2.83-2.67,5.26-3.7l.08-.2-.2-.08" style="fill:#00563e;"/></g></svg>