<?xml version="1.0" encoding="UTF-8"?><svg id="b" xmlns="http://www.w3.org/2000/svg" xmlns:xlink="http://www.w3.org/1999/xlink" viewBox="0 0 42.52 42.52"><defs><clipPath id="d"><path d="M22.44,5c-.42-.38-1.06-.38-1.49,0-.77.7-1.98,1.74-2.76,2.13-3.86,1.96-8.82,2.08-11.01,2.03-.62-.02-1.14.48-1.14,1.11v10.71c0,13.48,13.55,16.8,15.44,17.2.15.03.29.03.43,0,1.88-.4,15.44-3.72,15.44-17.2v-10.71c0-.62-.51-1.12-1.14-1.11-2.2.06-7.16-.07-11.02-2.03-.79-.4-1.99-1.43-2.76-2.13" style="fill:none;"/></clipPath><clipPath id="e"><path d="M21.7,34.61c-2.93-.72-12.12-3.77-12.12-13.63v-8.31c3.06-.14,6.9-.7,10.22-2.39.23-.12.81-.41,1.9-1.27,1.09.86,1.67,1.15,1.9,1.27,3.32,1.68,7.16,2.25,10.22,2.39v8.31c0,9.87-9.2,12.91-12.12,13.63" style="fill:none;"/></clipPath><clipPath id="f"><path d="M27,21.95h-10.56v-5.98c0-2.53,2.06-4.58,4.58-4.58h1.39c2.53,0,4.59,2.06,4.59,4.58v5.98M17.69,20.7h8.07v-4.73c0-1.84-1.5-3.34-3.34-3.34h-1.39c-1.84,0-3.34,1.5-3.34,3.34v4.73" style="fill:none;"/></clipPath><clipPath id="g"><path d="M27.33,29.81h-11.27c-.65,0-1.17-.52-1.17-1.17v-8.97c0-.65.52-1.17,1.17-1.17h11.27c.65,0,1.17.52,1.17,1.17v8.97c0,.65-.52,1.17-1.17,1.17" style="fill:none;"/></clipPath></defs><g id="c"><circle cx="21.26" cy="21.26" r="21.26" style="fill:#fff; opacity:.35;"/><path d="M20.49,8.76c-.4-.36-.99-.36-1.39,0-.72.66-1.85,1.63-2.58,1.99-3.6,1.83-8.24,1.95-10.3,1.9-.58-.01-1.06.45-1.06,1.03v10.01c0,12.6,12.67,15.71,14.43,16.08.14.03.27.03.4,0,1.76-.37,14.43-3.48,14.43-16.08v-10.01c0-.58-.48-1.05-1.06-1.03-2.06.05-6.69-.07-10.3-1.9-.74-.38-1.86-1.34-2.58-1.99Z" style="opacity:.17;"/><path d="M22.44,5c-.42-.38-1.06-.38-1.49,0-.77.7-1.98,1.74-2.76,2.13-3.86,1.96-8.82,2.08-11.01,2.03-.62-.02-1.14.48-1.14,1.11v10.71c0,13.48,13.55,16.8,15.44,17.2.15.03.29.03.43,0,1.88-.4,15.44-3.72,15.44-17.2v-10.71c0-.62-.51-1.12-1.14-1.11-2.2.06-7.16-.07-11.02-2.03-.79-.4-1.99-1.43-2.76-2.13" style="fill:#33bdd1;"/><g style="clip-path:url(#d);"><polyline points="38.2 40.16 21.7 40.16 21.7 3.46 38.2 3.46 38.2 40.16" style="fill:#99dee8;"/></g><path d="M21.7,34.61c-2.93-.72-12.12-3.77-12.12-13.63v-8.31c3.06-.14,6.9-.7,10.22-2.39.23-.12.81-.41,1.9-1.27,1.09.86,1.67,1.15,1.9,1.27,3.32,1.68,7.16,2.25,10.22,2.39v8.31c0,9.87-9.2,12.91-12.12,13.63" style="fill:#99dee8;"/><g style="clip-path:url(#e);"><polyline points="35.29 35.28 21.7 35.28 21.7 8.34 35.29 8.34 35.29 35.28" style="fill:#cceff4;"/></g><path d="M27,21.95h-10.56v-5.98c0-2.53,2.06-4.58,4.58-4.58h1.39c2.53,0,4.59,2.06,4.59,4.58v5.98M17.69,20.7h8.07v-4.73c0-1.84-1.5-3.34-3.34-3.34h-1.39c-1.84,0-3.34,1.5-3.34,3.34v4.73" style="fill:#fff;"/><g style="clip-path:url(#f);"><path d="M21.46,12.34c-.06,0-.11,0-.17,0-2.23.05-2.92.96-3.38,1.59-.79,1.1-.54,3.09-.54,3.09,0,0,.11-.02.31-.06v-.99h0c0-1.84,1.5-3.34,3.34-3.34h1.39c1.32,0,2.47.77,3.01,1.89-.37-.88-1.51-2.19-3.96-2.19" style="fill:#f2f2f2;"/></g><path d="M27.33,29.81h-11.27c-.65,0-1.17-.52-1.17-1.17v-8.97c0-.65.52-1.17,1.17-1.17h11.27c.65,0,1.17.52,1.17,1.17v8.97c0,.65-.52,1.17-1.17,1.17" style="fill:#fcd385;"/><g style="clip-path:url(#g);"><path d="M15.48,18.65c-.35.2-.59.58-.59,1.02v8.97c0,.65.52,1.17,1.17,1.17h11.27c.65,0,1.17-.52,1.17-1.17h0c-.05.21-.19.41-.5.47-.32.06-1.79.08-3.61.08-3.64,0-8.69-.08-8.69-.08,0,0-.46-.05-.46-.87v-9.2s.05-.22.23-.39" style="fill:#e7bf77;"/></g><path d="M23.15,22.37c0,.79-.64,1.43-1.43,1.43s-1.43-.64-1.43-1.43.64-1.43,1.43-1.43,1.43.64,1.43,1.43Z" style="fill:#b79258;"/><polygon points="22.55 26.92 20.89 26.92 21.57 21.33 21.87 21.33 22.55 26.92" style="fill:#b79258;"/></g></svg>