<?xml version="1.0" encoding="UTF-8"?><svg id="b" xmlns="http://www.w3.org/2000/svg" viewBox="0 0 42.52 42.52"><g id="c"><circle cx="21.26" cy="21.26" r="21.26" style="fill:#fff; opacity:.35;"/><path d="M34.54,16.03c0-4.83-3.92-8.74-8.74-8.74-2.39,0-4.56.96-6.14,2.52-1.58-1.56-3.75-2.52-6.14-2.52-4.83,0-8.74,3.92-8.74,8.74,0,2.44,1,4.64,2.6,6.23-1.61,1.59-2.6,3.79-2.6,6.23,0,4.83,3.91,8.74,8.74,8.74,2.39,0,4.56-.96,6.13-2.52,0,0,0,0,0,0,0,0,0,0,0,0,1.58,1.55,3.74,2.51,6.13,2.51,4.83,0,8.74-3.92,8.74-8.74,0-2.44-1-4.64-2.61-6.23,1.61-1.59,2.61-3.79,2.61-6.23ZM25.8,13.66c1.32,0,2.38,1.07,2.38,2.38s-1.07,2.38-2.38,2.38-2.38-1.07-2.38-2.38,1.07-2.38,2.38-2.38ZM13.52,13.66c1.31,0,2.38,1.07,2.38,2.38s-1.07,2.38-2.38,2.38-2.38-1.07-2.38-2.38,1.07-2.38,2.38-2.38ZM13.52,30.88c-1.32,0-2.38-1.07-2.38-2.38s1.07-2.38,2.38-2.38,2.38,1.07,2.38,2.38-1.07,2.38-2.38,2.38ZM25.8,30.88c-1.31,0-2.38-1.07-2.38-2.38s1.07-2.38,2.38-2.38,2.38,1.07,2.38,2.38-1.07,2.38-2.38,2.38Z" style="opacity:.3;"/><path d="M23.85,14.63v-.17c-.03-.26-.05-.51-.09-.76-.04-.29-.1-.57-.17-.85h0c-.04-.15-.08-.29-.12-.43-.04-.14-.09-.27-.14-.41s-.1-.27-.16-.4c-.28-.66-.64-1.27-1.07-1.84-.09-.11-.17-.22-.26-.33-.18-.22-.37-.43-.57-.63-1.58-1.56-3.74-2.52-6.14-2.52-4.83,0-8.74,3.92-8.74,8.74,0,2.44,1,4.64,2.6,6.23h0c1.58,1.56,3.74,2.52,6.13,2.52s4.55-.96,6.13-2.51h0s0,0,0,0h0c.54-.53,1-1.13,1.39-1.78.06-.09.11-.19.16-.28.06-.09.11-.19.15-.28.05-.09.09-.19.14-.29.04-.1.09-.19.12-.29.04-.1.08-.2.12-.3.05-.13.09-.27.14-.4l.06-.21.06-.2c.04-.14.07-.28.1-.43.03-.14.05-.28.08-.42.04-.24.06-.48.08-.73l.02-.24c0-.12,0-.24,0-.36,0-.14,0-.27-.01-.41ZM15.12,12.66c1.32,0,2.38,1.07,2.38,2.38s-1.07,2.38-2.38,2.38-2.38-1.07-2.38-2.38,1.07-2.38,2.38-2.38Z" style="fill:#01c9e7;"/><path d="M27.4,6.29c-2.39,0-4.56.96-6.14,2.52-.1.1-.2.2-.29.31-.2.21-.38.42-.54.65-.6.79-1.07,1.68-1.36,2.65-.05.14-.08.28-.12.42h0c-.06.23-.11.45-.14.68l-.02.11-.03.23-.03.21-.02.21v.15s-.02.22-.02.22c0,.13-.01.26-.01.4,0,.3.02.59.05.88.03.29.08.58.13.87.06.29.13.57.22.84.04.14.09.27.14.4.11.31.24.6.39.9.07.14.15.29.23.43.4.7.89,1.34,1.46,1.9h0s0,0,0,0h0c1.58,1.56,3.74,2.51,6.13,2.51s4.55-.96,6.13-2.51h0c1.61-1.59,2.61-3.79,2.61-6.23,0-4.83-3.92-8.74-8.74-8.74ZM27.4,12.66c1.32,0,2.38,1.07,2.38,2.38s-1.07,2.38-2.38,2.38-2.38-1.07-2.38-2.38,1.07-2.38,2.38-2.38Z" style="fill:#e196aa;"/><path d="M23.85,27.09v-.17c-.02-.12-.03-.25-.04-.37-.01-.13-.03-.26-.05-.39-.04-.29-.1-.57-.17-.85h0c-.04-.15-.08-.29-.12-.43-.04-.13-.08-.25-.13-.38-.04-.1-.08-.2-.12-.3l-.08-.2c-.06-.14-.12-.28-.19-.41-.05-.1-.09-.19-.15-.28-.07-.12-.14-.25-.22-.37-.34-.56-.74-1.08-1.2-1.55l-.02-.03-.09-.09h0s0,0,0,0h0s0,0,0,0l-.06-.06c-1.57-1.52-3.71-2.46-6.08-2.46s-4.56.96-6.14,2.52c-1.61,1.59-2.6,3.79-2.6,6.23,0,4.83,3.91,8.74,8.74,8.74,2.39,0,4.56-.96,6.13-2.52h0c.54-.53,1-1.13,1.39-1.78.06-.09.11-.19.16-.28.06-.09.11-.19.15-.28.05-.09.09-.19.14-.29.04-.1.09-.19.12-.29.04-.1.08-.2.12-.3.05-.13.09-.27.14-.4.03-.11.06-.21.09-.31l.03-.1c.04-.14.07-.28.1-.43.03-.14.05-.28.08-.42.07-.43.1-.88.1-1.33,0-.14,0-.27-.01-.41ZM15.12,29.88c-1.32,0-2.38-1.07-2.38-2.38s1.07-2.38,2.38-2.38,2.38,1.07,2.38,2.38-1.07,2.38-2.38,2.38Z" style="fill:#c1d100;"/><path d="M33.53,21.26c-1.58-1.56-3.75-2.52-6.14-2.52s-4.49.93-6.06,2.45l-.08.07h0s0,0,0,0h0s-.08.09-.08.09c-1.07,1.08-1.85,2.43-2.24,3.95h0c-.06.26-.12.52-.16.78-.08.46-.12.94-.12,1.42,0,.3.02.59.05.88s.08.58.13.87c.06.29.13.57.22.84.04.14.09.27.14.4.45,1.23,1.16,2.32,2.07,3.22h0c1.58,1.56,3.74,2.52,6.13,2.52,4.83,0,8.74-3.92,8.74-8.74,0-2.44-1-4.64-2.61-6.23ZM27.4,29.88c-1.32,0-2.38-1.07-2.38-2.38s1.07-2.38,2.38-2.38,2.38,1.07,2.38,2.38-1.07,2.38-2.38,2.38Z" style="fill:#b5d0ee;"/><path d="M15.12,18.75c2.39,0,4.56.96,6.14,2.52-1.58,1.56-3.75,2.52-6.14,2.52s-4.56-.96-6.14-2.52c1.58-1.56,3.75-2.52,6.14-2.52Z" style="fill:#f2bd65;"/><path d="M23.86,15.04c0,2.43-.99,4.64-2.6,6.22-1.61-1.58-2.6-3.79-2.6-6.22s1-4.64,2.6-6.22c1.61,1.59,2.6,3.79,2.6,6.22Z" style="fill:#f2bd65;"/><path d="M21.26,21.27c-1.61-1.58-2.6-3.79-2.6-6.22s1-4.64,2.6-6.22c1.61,1.59,2.6,3.79,2.6,6.22s-.99,4.64-2.6,6.22Z" style="fill:#c1d100;"/><path d="M33.53,21.27c-1.58,1.56-3.75,2.52-6.14,2.52s-4.56-.96-6.14-2.52c1.58-1.56,3.75-2.52,6.14-2.52s4.56.96,6.14,2.52Z" style="fill:#a6a6ed;"/><path d="M21.26,21.27c-1.58,1.56-3.75,2.52-6.14,2.52s-4.56-.96-6.14-2.52c1.58-1.56,3.75-2.52,6.14-2.52s4.56.96,6.14,2.52Z" style="fill:#b5d0ee;"/><path d="M23.86,27.5c0,2.43-.99,4.64-2.6,6.22-1.61-1.58-2.6-3.79-2.6-6.22s1-4.64,2.6-6.22c1.61,1.59,2.6,3.79,2.6,6.22Z" style="fill:#f7595f;"/><path d="M23.86,27.5c0,2.43-.99,4.64-2.6,6.22-1.61-1.58-2.6-3.79-2.6-6.22s1-4.64,2.6-6.22c1.61,1.59,2.6,3.79,2.6,6.22Z" style="fill:#e196aa;"/><path d="M33.53,21.27c-1.58,1.56-3.75,2.52-6.14,2.52s-4.56-.96-6.14-2.52c1.58-1.56,3.75-2.52,6.14-2.52s4.56.96,6.14,2.52Z" style="fill:#01c9e7;"/></g></svg>