<?xml version="1.0" encoding="UTF-8"?><svg id="b" xmlns="http://www.w3.org/2000/svg" viewBox="0 0 42.52 42.52"><g id="c"><circle cx="21.26" cy="21.26" r="21.26" style="fill:#fff; opacity:.35;"/><path d="M34.12,16.7l3.11-3.11c.11-.11.11-.29,0-.4l-4.9-4.9c-.11-.11-.29-.11-.4,0l-3.11,3.11L10.95,29.27h0l-2.35,7.06s0,0,0,0c-.03.08-.02.16,0,.24,0,.02.01.04.02.06.01.03.01.06.03.08v-.02c.12.18.32.29.55.22l1.8-.6h0l5.25-1.75h0l17.87-17.87" style="opacity:.3;"/><path d="M33.56,14.82l-5.3-5.3,3.11-3.11c.11-.11.29-.11.4,0l4.9,4.9c.11.11.11.29,0,.4l-3.11,3.11" style="fill:#e196aa;"/><path d="M8.04,34.46c-.12.37.23.71.59.59l7.05-2.36-5.3-5.3-2.35,7.06" style="fill:#fff;"/><polyline points="15.68 32.7 10.39 27.4 28.26 9.53 33.56 14.82 15.68 32.7" style="fill:#f9b01b;"/><path d="M21.97,21.44l-.23-.1c-.13-.13-.13-.33,0-.46l6.29-6.29c.13-.13.34-.13.46,0,.13.13.13.33,0,.46l-6.29,6.29-.23.1Z" style="fill:#343c3d;"/><path d="M10.43,34.45l-1.8.6c-.37.12-.71-.23-.59-.59l.6-1.81,1.79,1.79" style="fill:#343c3d;"/><polyline points="10.39 27.4 8.04 34.46 8.64 32.66 9.19 33.21 12.02 29.03 10.39 27.4" style="fill:#d8d8d8;"/><path d="M8.64,32.66l-.6,1.81h0c-.05.14-.02.28.04.39l1.11-1.64-.55-.55" style="fill:#2c3334;"/><polyline points="28.26 9.53 10.39 27.4 12.02 29.03 12.26 28.78 29.88 11.15 28.26 9.53" style="fill:#d39517;"/><path d="M31.57,6.34c-.07,0-.14.03-.2.08l-3.11,3.11,1.62,1.62,3.31-3.31-1.43-1.43c-.05-.05-.13-.08-.2-.08" style="fill:#bf7f90;"/></g></svg>