<?xml version="1.0" encoding="UTF-8"?><svg id="b" xmlns="http://www.w3.org/2000/svg" viewBox="0 0 42.52 42.52"><g id="c"><circle cx="21.26" cy="21.26" r="21.26" style="fill:#fff; opacity:.35;"/><path d="M31.25,35.05c-2.38,2.38-5.41,4-8.71,4.65-3.3.66-6.72.32-9.83-.97-3.11-1.29-5.76-3.47-7.63-6.26-1.87-2.8-2.87-6.09-2.87-9.45s1-6.65,2.87-9.45c1.87-2.8,4.53-4.98,7.63-6.26,3.11-1.29,6.53-1.62,9.83-.97,3.3.66,6.33,2.28,8.71,4.65,1.58,1.58,2.83,3.45,3.69,5.52.85,2.06,1.29,4.28,1.29,6.51s-.44,4.45-1.29,6.51c-.85,2.06-2.11,3.94-3.69,5.52Z" style="opacity:.17;"/><path d="M21.74,37.47c9,0,16.3-7.3,16.3-16.3S30.75,4.87,21.74,4.87,5.44,12.17,5.44,21.17s7.3,16.3,16.3,16.3" style="fill:#fff;"/><path d="M21.79,4.87l-.14.06-.06.14v5.69l.02.09.05.07.08.04h.09c.4-.08.81-.13,1.22-.14.3,0,.6.05.88.16s.54.28.75.49c.22.21.39.46.51.74.12.28.18.58.18.88s-.06.6-.18.88c-.12.28-.29.53-.51.74-.22.21-.47.38-.75.49s-.58.17-.88.16c-.41-.01-.82-.07-1.22-.15h-.09s-.08.04-.08.04l-.05.07-.02.09v5.69l.06.14.14.06h5.44c-.06.35-.1.7-.11,1.06,0,.35.06.71.19,1.04.13.33.33.63.58.88.25.25.55.45.87.59.33.14.68.21,1.03.21s.71-.07,1.03-.21c.33-.14.62-.34.87-.59.25-.25.44-.55.58-.88.13-.33.2-.68.19-1.04,0-.35-.05-.71-.11-1.06h5.45l.14-.06.06-.14c0-8.94-7.27-16.22-16.21-16.23Z" style="fill:#cce3e6;"/><path d="M20.45,26.99c.41.01.81.06,1.21.15h.09s.08-.04.08-.04l.05-.07.02-.09v-5.69l-.06-.14-.14-.06h-5.44c.06-.35.1-.7.11-1.06,0-.36-.06-.71-.19-1.04-.13-.33-.33-.63-.57-.88-.25-.25-.55-.45-.87-.59-.33-.14-.68-.21-1.03-.21s-.71.07-1.03.21c-.33.14-.62.34-.87.59-.25.25-.44.55-.58.88-.13.33-.2.68-.19,1.04,0,.35.05.71.11,1.06h-5.45l-.14.06-.06.14c0,8.94,7.27,16.22,16.21,16.23l.14-.06.06-.14v-5.69l-.02-.09-.05-.07-.08-.04h-.09c-.4.08-.8.13-1.21.15-.3,0-.6-.05-.88-.16-.28-.11-.54-.28-.75-.49-.22-.21-.39-.46-.51-.74-.12-.28-.18-.58-.18-.88s.06-.6.18-.88c.12-.28.29-.53.51-.74.22-.21.47-.38.75-.49.28-.11.58-.17.88-.16" style="fill:#862567;"/><path d="M15.35,6.18c-2.92,1.25-5.41,3.32-7.17,5.97-1.76,2.64-2.71,5.74-2.73,8.92h.2l.04-.02h2.58c-.04-.46-.06-.92-.06-1.39,0-2.66.65-5.28,1.89-7.63,1.24-2.35,3.04-4.36,5.24-5.85" style="fill:#d8d8d8;"/><path d="M8.27,21.05h-2.58l-.04.02h2.62s0-.01,0-.02" style="fill:#721f57;"/><path d="M5.44,21.06h0v.11h0s0-.07,0-.11" style="fill:#e9e9e9;"/><path d="M21.9,35.75v1.52l-.06.14-.14.06s.03,0,.04,0h.16v-1.72s0,0,0,0M5.65,21.06h-.2s0,.07,0,.11c0,4.32,1.72,8.47,4.77,11.52.78.78,1.63,1.47,2.54,2.07-4.38-2.91-7.27-7.89-7.27-13.52l.06-.14.1-.04" style="fill:#e9e9e9;"/><path d="M8.27,21.06h-2.62l-.1.04-.06.14c0,5.64,2.89,10.62,7.27,13.52,2.64,1.74,5.74,2.69,8.95,2.7l.14-.06.06-.14v-1.52c-3.58-.58-6.87-2.34-9.34-5-2.47-2.66-3.98-6.07-4.29-9.68" style="fill:#7a225e;"/><path d="M30.91,34.65s0,0-.01,0c0,0,0,0,.01,0h0" style="fill:#d8d8d8;"/><path d="M30.91,34.65s-.01,0-.02.01c0,0,0,0,0,0,0,0,0,0,.01,0h0" style="fill:#d8d8d8;"/><path d="M24.02,37.31c-.57.08-1.16.13-1.75.15.59-.02,1.17-.07,1.75-.15M24.08,37.31s-.04,0-.06,0c.02,0,.04,0,.06,0M24.15,37.3s0,0,0,0c0,0,0,0,0,0" style="fill:#d8d8d8;"/><path d="M30.89,34.66c-2.03.86-4.2,1.29-6.38,1.29-.87,0-1.74-.07-2.61-.21v1.72c.12,0,.25,0,.37,0,.59-.02,1.18-.07,1.75-.15,0,0,0,0,0,0,.02,0,.04,0,.06,0,.02,0,.04,0,.06,0,0,0,0,0,0,0,2.41-.36,4.72-1.25,6.75-2.63" style="fill:#d8d8d8;"/></g></svg>