<?xml version="1.0" encoding="UTF-8"?><svg id="b" xmlns="http://www.w3.org/2000/svg" xmlns:xlink="http://www.w3.org/1999/xlink" viewBox="0 0 42.23 56.9"><defs><clipPath id="d"><path d="M42.23,35.79c0,11.66-9.45,21.11-21.11,21.11S0,47.45,0,35.79,9.45,14.67,21.11,14.67s21.11,9.45,21.11,21.11" style="fill:none;"/></clipPath></defs><g id="c"><path d="M42.23,35.79c0,11.66-9.45,21.11-21.11,21.11S0,47.45,0,35.79,9.45,14.67,21.11,14.67s21.11,9.45,21.11,21.11" style="fill:#00adc6;"/><g style="clip-path:url(#d);"><path d="M42.11,28.46l-6.73-9.17s-2.29.19-3.92.89c-1.63.7-3.51,3.04-4.9,3.04s-4.32-.05-5.24.38c-.92.43-1.12,1.77-1.47,2.1-.35.33-.86.28-1.37.09-.51-.19-1.58-.09-2,.28-.42.37-.42,1.36-.37,1.5.05.14.69.8.69.8,0,0-.83.98-.92,1.12-.09.14-.84,1.45.51,1.64,1.35.19,2.55-.89,3.11-1.17.56-.28,2.79,1.45,3.34,1.5.22.02.59-.1,1.01-.21.66-.18,1.44-.36,1.87-.02.7.56.37,1.82-.56,2.71-.93.89-3.62.37-4.23.09-.6-.28-1.67-1.25-3.53-.84-1.86.4-3.39,2.62-3.99,4.07-.6,1.45.23,2.71,1.28,3.37.63.4,1.36.38,2.1.37.49,0,.99-.02,1.45.09,1.16.28,2.23,1.59,2.37,2.43.14.84.09,5.01.23,6.62.14,1.61,1.65,2.38,2.74,2.04,1.09-.34,2.32-2.99,3.11-4.73.79-1.73,2.51-5.29,3.02-6.83.51-1.54-.93-3.09-.93-3.09,0,0,2.14,0,2.65-.51.51-.51.23-2.43.23-2.43.81.11,3.34,3.6,4.04,3.98.7.37,2.69.33,4.32-2.67,1.63-3,2.63-3.02,2.63-3.02l-.54-4.42" style="fill:#027180;"/><path d="M14.68,23.17s1.23-.23,2.39-1.17,1.87-.91,2.28-1.89c.41-.98-.04-1.81-1.44-1.85-1.4-.05-2.18.28-2.74,1.03s-1.53,3.02-1.32,3.56c.21.54.83.33.83.33Z" style="fill:#027180;"/><path d="M12.25,19.89c-.06-1.03-.41-.68-.79-.34-.21.19-.42.38-.61.34-.52-.11-1.95-2.57-1.95-2.57L1.19,25.51s.42,4.19,1.21,6.92c.79,2.72,1.65,3.84.93,4.87-.64.92-1.75.48-2.63,3.09-.89,2.61.5,5.81.59,6.53.09.72,7.76,6.76,7.76,6.76,0,0-.46-3.18-.42-3.88.05-.7,1.98-3.98,2.57-5.43.59-1.45.51-3.71-.29-4.45-.8-.74-3.73-1.12-4.96-2.34-1.22-1.22-2.48-3.69-1.69-5.85.79-2.16,1.82-2.48,2.28-1.73.45.75,2.14,1.5,2.97.56.84-.94,2.15-2.62,2.07-3.27-.07-.65-1.42-3.24-1.19-4.08.23-.84,1.95-1.72,1.86-3.31" style="fill:#027180;"/><path d="M31.12,46.47c-.58.23-1.31,2.27-1.55,2.99s.18,2.48,2.02,1.36c0,0,1.42-2.57,1.09-3.51-.33-.94-.98-1.08-1.56-.84Z" style="fill:#027180;"/><path d="M10.99,17.25c-.53.29-1.05.6-1.55.94.13.2.27.41.41.62.42-.61.81-1.13,1.14-1.56" style="fill:#009db4;"/><path d="M9.62,47.52c-.53,1.02-.97,1.93-1,2.27-.03.51.2,2.3.33,3.26,3.44,2.43,7.63,3.85,12.16,3.85,2.39,0,4.69-.4,6.84-1.13-1.91-.08-3.99-.37-6.22-.96-5.58-1.48-9.47-4.12-12.11-7.29M4.89,30.43c-.22.32-.43.75-.64,1.3-.56,1.53-.09,3.22.66,4.51-.18-1.48-.22-2.92-.16-4.3.02-.5.07-1.01.14-1.5M1.5,27.95c-.97,2.42-1.5,5.06-1.5,7.83,0,1.71.2,3.37.59,4.96.03-.12.07-.24.11-.36.89-2.61,1.99-2.17,2.63-3.09.72-1.03-.14-2.14-.93-4.87-.39-1.36-.7-3.09-.9-4.48" style="fill:#009db4;"/><path d="M9.44,18.19c-3.55,2.36-6.34,5.76-7.94,9.76h0c.2,1.39.5,3.12.9,4.48.79,2.72,1.65,3.84.93,4.87-.64.92-1.75.48-2.63,3.09-.04.12-.08.24-.11.36,1.22,5.05,4.25,9.39,8.37,12.3-.13-.96-.36-2.75-.33-3.26.02-.33.47-1.25,1-2.27-2.84-3.41-4.23-7.44-4.7-11.29-.76-1.29-1.22-2.98-.66-4.51.2-.55.42-.98.64-1.3.63-4.65,3.1-8.95,4.96-11.62-.14-.21-.28-.42-.41-.62h0" style="fill:#026774;"/><path d="M26.58,17.09c-.45,0-.92.07-1.13.32-.45.54,1.63,1.86,3.04,2.36.56.2,1.2.61,1.81,1.09.39-.28.78-.53,1.15-.69.32-.14.67-.26,1.02-.36-1.32-1.14-3.15-2.26-4.89-2.63,0,0-.49-.09-1.01-.09" style="fill:#5ecbdb;"/><path d="M32.48,19.82c-.35.1-.7.22-1.02.36-.37.16-.76.41-1.15.69.93.73,1.82,1.62,2.38,2.22.33.35.64.51.91.51.49,0,.81-.53.75-1.32-.04-.55-.78-1.51-1.87-2.45" style="fill:#5fa5af;"/></g><path d="M21.11,0c-4.97,0-9,4.03-9,9s9,18,9,18c0,0,9-13.03,9-18S26.08,0,21.11,0ZM21.11,13.5c-2.49,0-4.5-2.01-4.5-4.5s2.01-4.5,4.5-4.5,4.5,2.01,4.5,4.5-2.01,4.5-4.5,4.5Z" style="fill:#007bc4;"/></g></svg>