<?xml version="1.0" encoding="UTF-8"?><svg id="b" xmlns="http://www.w3.org/2000/svg" xmlns:xlink="http://www.w3.org/1999/xlink" viewBox="0 0 42.52 42.52"><defs><clipPath id="d"><circle cx="21.26" cy="21.26" r="21.26" transform="translate(-8.81 21.26) rotate(-45)" style="fill:none;"/></clipPath></defs><g id="c"><g style="clip-path:url(#d);"><rect x="-10.63" width="63.78" height="42.52" style="fill:#e53425;"/><path d="M27.82,18.7l-.76-.2.68-.38-.05-.78.57.53.73-.29-.33.71.5.6-.78-.09-.42.66-.15-.77ZM31.92,19.56c1.02-.3,2.05.7,2.05.7,0,0-.84-4.94-6.55-5.14-5.58.16-6.06,5.46-6.06,5.46.02-.08.51-1.65,2.67-2.6,1.43-.65,3.13-.21,3.13-.21l-.05.18s-1.31-.45-3.02.21c-2.06.81-2.61,2.66-2.61,2.66,0,0,.86-1.43,2.61-1.26.47.04.89.26,1.4.59.82.76,1.35,1.32,2.86,1.29,2.27.06,2.05-1.6,3.58-1.87Z" style="fill:#fff;"/><path d="M25.73,26.7l-.05-.78.57.53.73-.29-.33.71.5.6-.78-.09-.42.66-.15-.77-.76-.2.68-.38ZM26.18,30.87c.61.88-.03,2.16-.03,2.16,0,0,4.44-2.33,2.86-7.82-1.88-5.26-7.07-4.08-7.07-4.08.08,0,1.73-.02,3.29,1.74,1.06,1.16,1.17,2.91,1.17,2.91h-.18s.02-1.37-1.13-2.8c-1.41-1.71-3.33-1.66-3.33-1.66,0,0,1.62.38,2.01,2.09.1.46.03.92-.13,1.51-.47,1.01-.84,1.69-.34,3.11.64,2.18,2.16,1.46,2.89,2.83Z" style="fill:#fff;"/><path d="M17.47,27.19l.73-.29-.33.71.5.6-.78-.09-.42.66-.15-.77-.76-.2.68-.38-.05-.78.57.53ZM13.65,28.9c-.65.85-2.07.64-2.07.64,0,0,3.59,3.5,8.32.31,4.42-3.41,1.7-7.98,1.7-7.98.03.08.55,1.64-.63,3.67-.78,1.37-2.4,2.01-2.4,2.01l-.07-.17s1.32-.4,2.32-1.95c1.19-1.87.55-3.69.55-3.69,0,0,.14,1.66-1.37,2.56-.4.24-.87.31-1.48.35-1.11-.14-1.87-.28-3.07.64-1.88,1.28-.72,2.5-1.8,3.62Z" style="fill:#fff;"/><path d="M14.46,19.48l.5.6-.78-.09-.42.66-.15-.77-.76-.2.68-.38-.05-.78.57.53.73-.29-.33.71ZM11.65,16.38c-1-.35-1.24-1.77-1.24-1.77,0,0-2.22,4.5,2.28,8,4.61,3.15,8.12-.85,8.12-.85-.06.05-1.38,1.03-3.69.53-1.54-.31-2.65-1.67-2.65-1.67l.14-.12s.79,1.13,2.57,1.61c2.15.56,3.68-.62,3.68-.62,0,0-1.53.65-2.85-.51-.35-.31-.57-.73-.79-1.3-.21-1.1-.31-1.86-1.56-2.72-1.8-1.39-2.6.09-4-.59Z" style="fill:#fff;"/><path d="M20.85,14.24l-.42.66-.15-.77-.76-.2.68-.38-.05-.78.57.53.73-.29-.33.71.5.6-.78-.09ZM22.94,10.6c.03-1.06,1.3-1.73,1.3-1.73,0,0-4.96-.72-6.91,4.64-1.57,5.36,3.32,7.46,3.32,7.46-.07-.04-1.41-1-1.64-3.34-.18-1.57.76-3.04.76-3.04l.16.1s-.83,1.1-.74,2.94c.13,2.21,1.72,3.31,1.72,3.31,0,0-1.09-1.26-.39-2.87.19-.43.52-.77.99-1.15.98-.54,1.68-.87,2.1-2.32.76-2.14-.89-2.45-.68-3.99Z" style="fill:#fff;"/></g></g></svg>