<?xml version="1.0" encoding="UTF-8"?><svg id="b" xmlns="http://www.w3.org/2000/svg" viewBox="0 0 42.52 42.52"><g id="c"><circle cx="21.26" cy="21.26" r="21.26" style="fill:#fff; opacity:.35;"/><g style="opacity:.17;"><path d="M35.55,31.27c.1-.16.19-.32.29-.5.06-.1.11-.21.16-.31.09-.18.18-.36.26-.54.05-.11.1-.22.15-.33.09-.21.18-.43.26-.65.03-.07.06-.14.08-.21,0,0,0,0,0,0,1.12-3.15,1.35-6.93-1.37-7.71-2.42-.76-5.11-.92-8.94,1.16-2.67,1.45-6.01,2.46-9.04,1.74-3.03-.72-5.36-3.34-6.28-6.61,1.69-.86,2.41-4.47.94-6.18-2.08.68-3.6,1.9-3.78,3.6-2.1-1.17-4.25-.53-5.17.45,1.93,4.05,5.45,3.2,5.45,3.2,0,0-.3,3.53.34,8.07.08.58.24,1.17.47,1.76,0,0,0,0,0,0,.1.27.23.54.36.81.02.03.04.06.05.1.12.23.25.47.39.7.05.08.1.16.15.24.12.18.24.36.37.54.07.09.14.19.21.28.12.16.25.32.39.48.08.1.16.19.25.29.14.15.28.3.42.45.09.09.18.19.28.28.15.15.31.29.48.44.09.08.18.17.28.25.21.18.43.35.65.51.06.04.11.09.17.13.28.2.56.39.85.58.11.07.22.13.33.2.19.12.39.23.59.34.13.07.26.13.39.2.19.1.38.19.58.28.14.06.28.12.42.18.2.08.4.16.61.24.14.05.28.1.42.15.22.07.45.14.67.2.13.04.25.07.38.1.14.03.28.06.42.1.12,1.35.35,2.33.35,2.33,1.17-.23,2.43-.92,3.48-1.95,1.52.04,2.9-.03,4.16-.22,2.23-.34,4.09-1.09,5.68-2.37.65-.53,1.26-1.14,1.82-1.85.02-.02.04-.06.06-.08.13-.17.26-.36.39-.56.05-.08.1-.17.16-.26Z"/><path d="M32,18c.34,0,.61-.28.61-.61v-2.46c0-.34-.28-.61-.61-.61s-.61.28-.61.61v2.46c0,.34.27.61.61.61Z"/><path d="M34.46,16.77c.34,0,.61-.28.61-.61,0-.63.25-1.22.69-1.66l.36-.36c.24-.24.24-.63,0-.87-.24-.24-.63-.24-.87,0l-.36.36c-.68.68-1.05,1.58-1.05,2.53,0,.34.28.61.61.61Z"/><path d="M28.24,13.26c.44.44.69,1.04.69,1.66,0,.34.28.61.61.61s.61-.28.61-.61c0-.96-.37-1.86-1.05-2.53l-.36-.36c-.24-.24-.63-.24-.87,0-.24.24-.24.63,0,.87l.36.36Z"/></g><path d="M12.05,15.86c.92,3.27,3.25,5.89,6.28,6.61,3.03.72,6.37-.28,9.04-1.74,3.83-2.08,6.52-1.92,8.94-1.16,3.89,1.12,1.75,8.4-.43,11.15-3.06,3.85-7.26,4.83-13.68,4.34-6.42-.49-11.72-5.53-12.37-10.06s-.34-8.07-.34-8.07c0,0-3.52.85-5.45-3.2.91-.97,3.07-1.61,5.17-.45.18-1.7,1.7-2.93,3.78-3.6,1.47,1.7.75,5.32-.94,6.18Z" style="fill:#5d6364;"/><path d="M37.69,27.28c-.49,1.36-1.14,2.61-1.8,3.44-3.06,3.85-7.26,4.83-13.68,4.34-5.6-.44-10.35-4.32-11.9-8.32.38.41,3,3.08,7.73,4.48,5.13,1.52,9.98,1.51,13.83-1.29,2.29-1.67,3.26-2.75,5.82-2.66Z" style="fill:#fff;"/><path d="M20.99,29.32c-1.35,2.96-.25,7.8-.25,7.8,2.24-.43,4.84-2.53,5.55-5.6l-5.3-2.2Z" style="fill:#5d6364;"/><path d="M31.71,23.32c0,.68-.55,1.23-1.23,1.23s-1.23-.55-1.23-1.23.55-1.23,1.23-1.23,1.23.55,1.23,1.23Z"/><path d="M32.94,16.56c-.34,0-.61-.28-.61-.61v-2.46c0-.34.27-.61.61-.61s.61.28.61.61v2.46c0,.34-.28.61-.61.61Z" style="fill:#00adc6;"/><path d="M35.4,15.33c-.34,0-.61-.28-.61-.61,0-.96.37-1.86,1.05-2.53l.36-.36c.24-.24.63-.24.87,0,.24.24.24.63,0,.87l-.36.36c-.44.44-.69,1.04-.69,1.66,0,.34-.27.61-.61.61Z" style="fill:#00adc6;"/><path d="M30.48,14.1c-.34,0-.61-.28-.61-.61,0-.63-.24-1.22-.69-1.66l-.36-.36c-.24-.24-.24-.63,0-.87.24-.24.63-.24.87,0l.36.36c.68.68,1.05,1.58,1.05,2.53,0,.34-.27.61-.61.61Z" style="fill:#00adc6;"/></g></svg>