<?xml version="1.0" encoding="UTF-8"?><svg id="b" xmlns="http://www.w3.org/2000/svg" viewBox="0 0 42.52 42.52"><g id="c"><circle cx="21.26" cy="21.26" r="21.26" style="fill:#fff; opacity:.35;"/><path d="M30.8,24.85h0c-.24-.03-.48-.05-.73-.05-.57,0-1.12.09-1.64.24-1.38.42-2.52,1.37-3.2,2.61l-6.21-3.15c.34-.89.53-1.85.53-2.86s-.19-1.95-.52-2.83l6.01-2.98c.64,1.44,1.87,2.55,3.39,3.02.52.16,1.07.25,1.64.25.25,0,.49-.02.73-.05,0,0,0,0,0,0h0c2.7-.36,4.78-2.66,4.78-5.45s-2.08-5.07-4.78-5.42h0c-.24-.03-.48-.05-.73-.05-.57,0-1.12.09-1.64.24-1.47.45-2.67,1.5-3.32,2.86-.35.72-.55,1.52-.55,2.37h0c0,.28.03.55.07.82l-6.24,3.09c-1.24-2.05-3.36-3.49-5.85-3.82,0,0,0,0,0,0,0,0,0,0,0,0-.35-.05-.71-.08-1.07-.08-.84,0-1.64.13-2.4.36-.76.23-1.47.58-2.11,1.01-.43.29-.83.62-1.2.98-.37.36-.7.76-.99,1.19-.44.64-.78,1.35-1.02,2.1-.16.5-.27,1.03-.32,1.57-.03.27-.04.55-.04.83s.01.55.04.83c.39,3.8,3.41,6.82,7.21,7.21.27.03.55.04.83.04,2.94,0,5.5-1.57,6.91-3.91l6.33,3.21c-.09.4-.15.82-.15,1.26h0c0,3.04,2.47,5.51,5.51,5.51s5.51-2.47,5.51-5.51c0-2.79-2.08-5.07-4.78-5.42Z" style="opacity:.17;"/><path d="M26.94,13.45l-8.82,4.37c-.36.18-.51.61-.33.97.18.36.61.51.97.33l8.82-4.37c.36-.18.51-.61.33-.97-.18-.36-.61-.51-.97-.33M27.49,27.23l-8.79-4.46c-.36-.18-.8-.04-.98.32-.18.36-.04.8.32.98l8.79,4.46c.36.18.8.04.98-.32.18-.36.04-.8-.32-.98" style="fill:#343c3d;"/><path d="M13.22,29.04c4.46,0,8.08-3.62,8.08-8.08s-3.62-8.04-8.08-8.04-8.08,3.57-8.08,8.04,3.62,8.08,8.08,8.08" style="fill:#ebe6ee;"/><path d="M13.22,29.04c4.46,0,8.08-3.62,8.08-8.08s-3.62-8.04-8.08-8.04-8.08,3.57-8.08,8.04,3.62,8.08,8.08,8.08" style="fill:#b5d0ee;"/><path d="M13.26,29.04s-.02,0-.04,0c.01,0,.02,0,.04,0M13.22,12.93h0s.02,0,.04,0c-.01,0-.02,0-.04,0" style="fill:#d4d4d4;"/><path d="M13.22,12.93h0c-4.34,0-7.88,3.38-8.07,7.67,0,.12,0,.24,0,.36,0,4.46,3.62,8.08,8.08,8.08h0s.02,0,.04,0c.35,0,.7-.03,1.04-.08-3.95-.53-7.01-3.9-7.01-8s3.05-7.44,7.01-7.96c-.34-.04-.68-.08-1.04-.08-.01,0-.02,0-.04,0" style="fill:#96adc6;"/><path d="M31.81,18.42c3.04,0,5.51-2.47,5.51-5.51s-2.47-5.48-5.51-5.48-5.51,2.44-5.51,5.48,2.47,5.51,5.51,5.51" style="fill:#ebe6ee;"/><path d="M31.81,18.42c3.04,0,5.51-2.47,5.51-5.51s-2.47-5.48-5.51-5.48-5.51,2.44-5.51,5.48,2.47,5.51,5.51,5.51" style="fill:#fcd385;"/><path d="M31.81,7.44c-3.04,0-5.51,2.44-5.51,5.48h0c0-3.04,2.47-5.48,5.51-5.48h0" style="fill:#d4d4d4;"/><path d="M31.81,7.44c-3.04,0-5.51,2.44-5.51,5.48,0,3.04,2.47,5.51,5.51,5.51.25,0,.49-.02.73-.05-2.69-.36-4.78-2.66-4.78-5.45s2.08-5.07,4.78-5.42c-.24-.03-.48-.05-.73-.05h0" style="fill:#d2af6f;"/><path d="M31.81,35.1c3.04,0,5.51-2.47,5.51-5.51s-2.47-5.48-5.51-5.48-5.51,2.44-5.51,5.48,2.47,5.51,5.51,5.51" style="fill:#ebe6ee;"/><path d="M31.81,35.1c3.04,0,5.51-2.47,5.51-5.51s-2.47-5.48-5.51-5.48-5.51,2.44-5.51,5.48,2.47,5.51,5.51,5.51" style="fill:#007bc4;"/><path d="M31.81,24.12c-2.09,0-3.9,1.15-4.84,2.85-.23.42-.41.88-.52,1.36-.09.4-.15.83-.15,1.26,0,3.04,2.47,5.51,5.51,5.51.25,0,.49-.02.73-.05-2.69-.36-4.78-2.66-4.78-5.45s2.08-5.07,4.78-5.42c-.24-.03-.48-.05-.73-.05h0" style="fill:#0066a3;"/></g></svg>