<?xml version="1.0" encoding="UTF-8"?><svg id="b" xmlns="http://www.w3.org/2000/svg" xmlns:xlink="http://www.w3.org/1999/xlink" viewBox="0 0 42.52 42.52"><defs><clipPath id="d"><circle cx="21.26" cy="21.26" r="21.26" transform="translate(-6.52 9.75) rotate(-22.5)" style="fill:none;"/></clipPath></defs><g id="c"><g style="clip-path:url(#d);"><rect x="-3" width="85.04" height="42.52" style="fill:#1f429b;"/><rect x="-3" y="21.26" width="85.04" height="21.26" style="fill:#ce2028;"/><polyline points="33.82 21.26 -3 42.52 -3 0" style="fill:#fff;"/><circle cx="10.23" cy="21.26" r="4.25" style="fill:#fbd116;"/><polygon points="1.25 21.26 1.8 21.81 10.23 21.26 1.8 20.71 1.25 21.26" style="fill:#fbd116;"/><polygon points="2.2 22.32 2.65 22.77 10.23 21.26 2.2 22.32" style="fill:#fbd116;"/><polygon points="2.2 20.2 2.65 19.75 10.23 21.26 2.2 20.2" style="fill:#fbd116;"/><polygon points="3.88 14.91 3.88 15.69 10.23 21.26 4.66 14.91 3.88 14.91" style="fill:#fbd116;"/><polygon points="3.8 16.33 3.8 16.97 10.23 21.26 3.8 16.33" style="fill:#fbd116;"/><polygon points="5.3 14.83 5.93 14.83 10.23 21.26 5.3 14.83" style="fill:#fbd116;"/><polygon points="10.23 12.28 9.68 12.84 10.23 21.26 10.78 12.84 10.23 12.28" style="fill:#fbd116;"/><polygon points="9.17 13.23 8.72 13.68 10.23 21.26 9.17 13.23" style="fill:#fbd116;"/><polygon points="11.29 13.23 11.74 13.68 10.23 21.26 11.29 13.23" style="fill:#fbd116;"/><polygon points="16.58 14.91 15.79 14.91 10.23 21.26 16.58 15.69 16.58 14.91" style="fill:#fbd116;"/><polygon points="15.16 14.83 14.52 14.83 10.23 21.26 15.16 14.83" style="fill:#fbd116;"/><polygon points="16.65 16.33 16.65 16.97 10.23 21.26 16.65 16.33" style="fill:#fbd116;"/><polygon points="19.2 21.26 18.65 20.71 10.23 21.26 18.65 21.81 19.2 21.26" style="fill:#fbd116;"/><polygon points="18.26 20.2 17.81 19.75 10.23 21.26 18.26 20.2" style="fill:#fbd116;"/><polygon points="18.26 22.32 17.81 22.77 10.23 21.26 18.26 22.32" style="fill:#fbd116;"/><polygon points="16.58 27.61 16.58 26.83 10.23 21.26 15.79 27.61 16.58 27.61" style="fill:#fbd116;"/><polygon points="16.65 26.19 16.65 25.55 10.23 21.26 16.65 26.19" style="fill:#fbd116;"/><polygon points="15.16 27.69 14.52 27.69 10.23 21.26 15.16 27.69" style="fill:#fbd116;"/><polygon points="10.23 30.24 10.78 29.68 10.23 21.26 9.68 29.68 10.23 30.24" style="fill:#fbd116;"/><polygon points="11.29 29.29 11.74 28.84 10.23 21.26 11.29 29.29" style="fill:#fbd116;"/><polygon points="9.17 29.29 8.72 28.84 10.23 21.26 9.17 29.29" style="fill:#fbd116;"/><polygon points="3.88 27.61 4.66 27.61 10.23 21.26 3.88 26.83 3.88 27.61" style="fill:#fbd116;"/><polygon points="5.3 27.69 5.93 27.69 10.23 21.26 5.3 27.69" style="fill:#fbd116;"/><polygon points="3.8 26.19 3.8 25.55 10.23 21.26 3.8 26.19" style="fill:#fbd116;"/><polygon points="-2 6.22 -.33 6.43 .06 8.08 .78 6.55 2.46 6.69 1.23 5.53 1.89 3.97 .41 4.79 -.87 3.68 -.56 5.34 -2 6.22" style="fill:#fbd116;"/><polygon points="-2 36.3 -.56 37.18 -.87 38.84 .41 37.73 1.89 38.55 1.23 36.99 2.46 35.83 .78 35.97 .06 34.44 -.33 36.09 -2 36.3" style="fill:#fbd116;"/><polygon points="25.3 19.87 26.26 21.26 25.3 22.65 26.92 22.16 27.94 23.51 27.97 21.82 29.57 21.26 27.97 20.7 27.94 19.01 26.92 20.36 25.3 19.87" style="fill:#fbd116;"/></g></g></svg>