<?xml version="1.0" encoding="UTF-8"?><svg id="b" xmlns="http://www.w3.org/2000/svg" viewBox="0 0 42.52 42.52"><g id="c"><circle cx="21.26" cy="21.26" r="21.26" style="fill:#fff; opacity:.35;"/><path d="M38.06,20.82c-.03-2.8-1.63-5.43-4.26-6.68,0,0,0,0,0,0-.19-.09-.38-.18-.58-.25-.24-.09-.49-.17-.73-.23-1.54-.41-3.1-.29-4.51.23l4.74-4.74-2.12-2.12-11.96,11.96c.54-1.71.49-3.62-.32-5.38-.1-.23-.22-.44-.34-.65-.05-.09-.11-.17-.16-.26-.07-.12-.15-.23-.23-.34-.07-.1-.16-.2-.24-.3-.07-.08-.13-.17-.2-.25-.09-.1-.18-.2-.28-.3-.05-.05-.1-.11-.15-.15,0,0,0,0,0,0-2.01-1.94-5.01-2.65-7.75-1.66,0,0,0,0,0,0-.19.07-.37.14-.56.22,0,0-.02,0-.03.01h0c-.27.12-.52.26-.77.41-1.68,1.02-2.84,2.63-3.33,4.43-.45,1.64-.34,3.43.42,5.09,1.06,2.29,3.13,3.79,5.43,4.23.23.04.46.07.7.1l.82,1.78-6.57,6.57,2.12,2.12,6.47-6.47s.07-.01.11-.03l.06-.03s.01,0,.02,0l.22-.1,1.68-.77.22.48c-.62.53-.84,1.43-.49,2.2l.42.91c.36.78,1.18,1.19,1.99,1.07l.17.37s-.07.04-.09.06c-.38.32-.62.78-.66,1.28-.04.5.11.99.43,1.37l.65.77c.54.65,1.46.85,2.23.5.15-.07.29-.16.42-.27.3-.25.5-.57.6-.94l.85.02c.17.43.48.78.9.99.45.22.96.26,1.44.1l.95-.32c.07-.02.13-.05.19-.08.87-.4,1.3-1.39,1-2.3-.09-.28-.25-.52-.45-.72l.47-1.1,2.07.78c.52.2,1.11-.07,1.3-.59l1.34-3.55c2.59-.4,4.89-2.14,5.88-4.76.09-.23.16-.47.22-.7.03-.1.04-.2.07-.3.03-.13.06-.27.09-.4.02-.13.03-.25.05-.38.01-.11.03-.21.03-.32,0-.14.01-.27.01-.41,0-.07,0-.14,0-.21,0,0,0,0,0,0ZM7.44,18.61c-1.04-2.25-.05-4.92,2.2-5.95,1.09-.5,2.27-.52,3.32-.16.07.02.13.04.2.07.21.08.41.18.61.29.06.03.11.07.16.1.2.13.39.27.57.42.04.03.07.07.11.1.18.17.36.36.51.57.02.02.03.05.05.08.16.23.31.47.43.73,1.04,2.25.05,4.92-2.2,5.95-.27.12-.54.21-.82.28-.15.04-.3.05-.45.07-1.91.26-3.84-.71-4.69-2.55ZM18.21,30c-.12-.27-.44-.39-.71-.26-.27.12-.39.44-.26.71l.18.38c-.22-.06-.41-.21-.51-.43l-.42-.91c-.1-.22-.09-.46,0-.67l.18.39c.12.27.44.39.71.26.27-.12.39-.44.26-.71l-.17-.37c.2.07.37.21.47.42l.42.91c.1.21.09.43.01.63l-.17-.36ZM20.35,35.17c-.06.05-.12.09-.18.12-.33.15-.72.06-.95-.21l-.65-.77c-.14-.16-.2-.37-.19-.59.01-.15.08-.28.16-.4l.22.48c.12.27.44.39.71.26.27-.12.39-.44.26-.71l-.1-.23c.06.04.12.08.16.14l.57.68h-.29c-.3-.01-.54.22-.55.52,0,.3.23.54.52.55h.41c-.04.06-.07.12-.12.16ZM25.44,34.83l-.95.32c-.2.07-.42.05-.62-.04,0,0-.01-.01-.02-.02.05,0,.1,0,.14-.03.18-.08.31-.26.31-.47,0-.3-.23-.54-.52-.55h-.26c.08-.17.21-.3.38-.38.03-.01.05-.02.08-.03l.95-.32c.07-.02.14-.02.21-.03l-.17.39c-.12.27.01.59.28.7.15.06.3.05.43,0,.12-.05.22-.15.27-.28l.02-.04c.01.34-.19.67-.54.79ZM25.58,32.23c-.32-.07-.66-.06-.99.05l-.95.32c-.66.22-1.11.77-1.24,1.4l-.78-.02c-.07-.23-.19-.45-.35-.64l-.65-.77c-.39-.46-.97-.69-1.54-.66l-.21-.45c.6-.54.81-1.41.46-2.18l-.42-.91c-.35-.77-1.16-1.17-1.95-1.07l-.23-.49,1.92-.88c.51-.23.73-.83.5-1.34l-.59-1.28,4.98-4.98c-.08.22-.16.45-.22.67-.45,1.71-.27,3.47.42,5,0,0,0,.01,0,.02.18.4.41.79.66,1.15.12.17.25.34.38.5l-1.35,3.58s0,0,0,0l-.02.06c-.08.21-.05.42.03.62.01.04.02.07.04.11.02.03.04.06.07.09.11.18.27.33.48.41l.06.02s.01,0,.02,0l.23.08,1.65.62-.41.96ZM35.03,21.28c0,.09,0,.18-.02.27-.05.31-.12.62-.24.92-.87,2.32-3.46,3.49-5.78,2.62-.28-.1-.53-.23-.77-.38-.13-.08-.24-.18-.36-.27-1.53-1.17-2.2-3.23-1.48-5.13.87-2.32,3.46-3.49,5.78-2.62,1.09.41,1.92,1.21,2.41,2.18.09.18.17.38.23.57.03.09.07.18.09.28.05.2.09.41.11.61.01.1.03.19.04.29.01.22,0,.44-.02.66Z" style="opacity:.17;"/><path d="M18.84,30.13c-.94.43-2.06.02-2.5-.92l-.42-.91c-.43-.94-.02-2.06.92-2.5.94-.43,2.06-.02,2.5.92l.42.91c.43.94.02,2.06-.92,2.5ZM17.3,26.77c-.4.19-.58.67-.4,1.07l.42.91c.19.4.67.58,1.07.4s.58-.67.4-1.07l-.42-.91c-.19-.4-.67-.58-1.07-.4Z" style="fill:#b6b9b9;"/><path d="M21.05,34.61c-.77.35-1.68.15-2.23-.5l-.65-.77c-.32-.38-.48-.87-.43-1.37.04-.5.28-.95.66-1.28.13-.11.27-.2.42-.27.77-.35,1.68-.15,2.23.5l.65.77c.32.38.48.87.43,1.37-.04.5-.28.95-.66,1.28-.13.11-.27.2-.42.27ZM19.28,31.4l-.18.12c-.16.14-.27.33-.28.55s.05.42.19.59l.65.77c.23.28.62.37.95.21l.18-.12c.16-.14.27-.33.28-.55.02-.21-.05-.42-.19-.59l-.65-.77c-.23-.28-.62-.37-.95-.21Z" style="fill:#b6b9b9;"/><path d="M26.4,34.13l-.19.08-.95.32c-.48.16-.99.12-1.44-.1-.45-.22-.78-.61-.94-1.09-.33-.98.19-2.05,1.19-2.38l.95-.32c.98-.33,2.05.21,2.38,1.19.3.91-.12,1.9-1,2.3ZM24.33,32c-.37.17-.56.6-.43.99.07.2.21.37.4.47.19.1.41.11.62.04l.95-.32c.43-.14.65-.6.51-1.02-.14-.42-.6-.65-1.02-.51l-.95.32-.08.03Z" style="fill:#b6b9b9;"/><path d="M26.12,32.72c-.13.06-.29.07-.43,0-.27-.12-.4-.43-.28-.7l1.44-3.4c.12-.27.43-.4.7-.28.27.12.4.43.28.7l-1.44,3.4c-.05.13-.15.22-.27.28Z" style="fill:#858a8b;"/><path d="M17.8,27.83c-.27.12-.59,0-.71-.26l-1.54-3.35c-.12-.27,0-.59.26-.71.27-.12.59,0,.71.26l1.54,3.35c.12.27,0,.59-.26.71Z" style="fill:#858a8b;"/><path d="M19.91,32.42c-.27.12-.59,0-.71-.26l-1.54-3.35c-.12-.27,0-.59.26-.71.27-.12.59,0,.71.26l1.54,3.35c.12.27,0,.59-.26.71Z" style="fill:#858a8b;"/><path d="M24.42,33.41l-.24.05-3.69-.1c-.3,0-.53-.25-.52-.55s.25-.53.55-.52l3.69.1c.3,0,.53.25.52.55,0,.21-.13.39-.31.47Z" style="fill:#858a8b;"/><path d="M19.09,24.27l-4.88,2.24c-.51.23-1.11.01-1.34-.5l-2.18-4.75,6.72-3.09,2.18,4.75c.23.51.01,1.11-.5,1.34" style="fill:#c2c2c2;"/><path d="M14.49,26.38l-.28.13h0s.08-.03.08-.03l.21-.1M12.89,26.06v.02c.12.24.33.4.57.47-.24-.08-.45-.25-.57-.49" style="fill:#d4d4d4;"/><path d="M11.27,22.55l1.62,3.51c.12.24.33.41.57.49.1.03.21.04.31.04.15,0,.29-.03.43-.08h0s.28-.13.28-.13l.68-.32c-.16.07-.34.11-.51.11-.37,0-.71-.17-.87-.51l-1.42-3.09c-.14,0-.28.01-.42.01-.23,0-.45-.01-.68-.03" style="fill:#a1a1a1;"/><path d="M8.81,8.28c-3.76,1.73-5.4,6.18-3.67,9.93,1.73,3.76,6.18,5.4,9.93,3.67,3.76-1.73,5.4-6.18,3.67-9.93-1.73-3.76-6.18-5.4-9.93-3.67M13.82,19.17c-2.25,1.04-4.92.05-5.95-2.2-1.04-2.25-.05-4.92,2.2-5.95,2.25-1.04,4.92-.05,5.95,2.2,1.04,2.25.05,4.92-2.2,5.95" style="fill:#858a8b;"/><path d="M4.45,15.09c0,1.05.22,2.11.69,3.12-.47-1.01-.69-2.08-.69-3.12" style="fill:#d4d4d4;"/><path d="M9.4,8.05c-.2.07-.39.15-.58.23-2.74,1.26-4.36,3.98-4.36,6.81,0,1.05.22,2.11.69,3.12,1.26,2.74,3.97,4.36,6.81,4.36,1.05,0,2.11-.22,3.12-.69.26-.12.51-.26.75-.4-.84.3-1.7.45-2.54.45-2.83,0-5.54-1.61-6.8-4.36-1.61-3.5-.29-7.59,2.93-9.53" style="fill:#6f7374;"/><path d="M18.75,11.96c-.4-.87-.95-1.63-1.6-2.25-2.2,1.49-3.94,1.08-3.94,1.08h0c1.2.36,2.25,1.2,2.81,2.43,1.04,2.25.05,4.92-2.2,5.95-.52.24-1.06.37-1.6.4h0c1.89.51,2.84,2.33,2.84,2.33,3.76-1.73,5.4-6.18,3.67-9.93Z" style="fill:#5d6364;"/><path d="M16.49,22.83c-.21-.46-.75-.66-1.21-.45-.46.21-.66.75-.45,1.21.14.3.41.48.71.52l.13.27c.11.24.4.35.64.24s.35-.4.24-.64l-.13-.27c.17-.25.2-.58.07-.88Z" style="fill:#5d6364;"/><path d="M29.49,30.78l-5.03-1.89c-.52-.2-.79-.78-.59-1.3l1.84-4.89,6.92,2.61-1.84,4.89c-.2.52-.78.79-1.3.59" style="fill:#c2c2c2;"/><path d="M24.47,28.89l.08.03.21.08-.28-.11h0M23.86,27.62v.03c-.11.25-.07.51.05.73-.11-.23-.13-.5-.05-.76" style="fill:#d4d4d4;"/><path d="M25.23,24.01l-1.36,3.61c-.09.26-.06.53.05.76.12.22.32.4.55.51h0s.28.11.28.11l.72.26c-.52-.2-.89-.75-.69-1.27l1.2-3.18c-.27-.25-.52-.51-.75-.79" style="fill:#a1a1a1;"/><path d="M33.65,12.24c-3.87-1.46-8.19.5-9.65,4.37-1.46,3.87.5,8.19,4.37,9.65,3.87,1.46,8.19-.5,9.65-4.37,1.46-3.87-.5-8.19-4.37-9.65M29.42,23.45c-2.32-.87-3.49-3.46-2.62-5.78.87-2.32,3.46-3.49,5.78-2.62,2.32.87,3.49,3.46,2.62,5.78-.87,2.32-3.46,3.49-5.78,2.62" style="fill:#858a8b;"/><path d="M31.01,11.76c-2.05,0-4.01.84-5.42,2.32,1.41-1.47,3.37-2.32,5.42-2.32" style="fill:#d4d4d4;"/><path d="M31.01,11.76c-2.05,0-4.01.84-5.42,2.32-.68.71-1.22,1.56-1.59,2.53-1.46,3.87.5,8.19,4.37,9.65.27.1.54.18.81.25-3.48-1.65-5.17-5.73-3.79-9.4,1.13-3,3.98-4.85,7.01-4.85.61,0,1.22.07,1.83.23-.19-.09-.38-.18-.58-.25-.1-.04-.19-.07-.29-.1-.78-.26-1.57-.38-2.35-.38" style="fill:#6f7374;"/><path d="M38.01,21.89c.34-.9.49-1.82.48-2.72-2.61-.52-3.53-2.05-3.53-2.05h0c.59,1.1.73,2.44.25,3.71-.87,2.32-3.46,3.49-5.78,2.62-.53-.2-1-.5-1.41-.86h0c.97,1.71.34,3.66.34,3.66,3.87,1.46,8.19-.5,9.65-4.37Z" style="fill:#5d6364;"/><path d="M28.69,27.93c.18-.47-.06-1-.53-1.18s-1,.06-1.18.53c-.12.31-.05.63.13.87l-.11.28c-.09.25.03.53.28.62.25.09.53-.03.62-.28l.11-.28c.3-.06.56-.27.67-.57Z" style="fill:#5d6364;"/><rect x="2.56" y="19.34" width="36.08" height="3" transform="translate(-8.7 20.67) rotate(-45)" style="fill:#e25200;"/></g></svg>