<?xml version="1.0" encoding="UTF-8"?><svg id="b" xmlns="http://www.w3.org/2000/svg" viewBox="0 0 42.52 42.52"><g id="c"><circle cx="21.26" cy="21.26" r="21.26" style="fill:#fff; opacity:.35;"/><path d="M34.29,28.9l-4.04-9.11c-.02-.05-.06-.1-.11-.13-.05-.03-.1-.05-.16-.05h-3.52v-9.79c0-.08-.03-.15-.09-.21-.06-.06-.13-.09-.21-.09h-11.4c-.08,0-.15.03-.21.09-.06.06-.09.13-.09.21v9.79h-3.52c-.06,0-.11.02-.16.05s-.09.08-.11.13l-4.04,9.11h-.05v5.52c0,.08.03.15.09.21.06.06.13.09.21.09l27.15.1c.08,0,.15-.03.21-.09.06-.06.09-.13.09-.21v-5.62h-.05Z" style="opacity:.17;"/><polyline points="8.18 27.12 8.21 27.12 8.18 27.18 8.18 27.12" style="fill:#4bb3fd;"/><polyline points="35.93 27.18 35.93 32.69 35.84 32.9 35.63 32.99 8.48 32.89 8.27 32.8 8.18 32.59 8.18 27.18 8.21 27.12 12.27 17.96 12.38 17.83 12.54 17.79 31.57 17.79 31.74 17.83 31.85 17.96 35.91 27.12 35.93 27.18" style="fill:#00adc6;"/><polyline points="28.06 22.44 28.06 8 27.97 7.79 27.76 7.7 16.36 7.7 16.15 7.79 16.06 8 16.06 22.44 28.06 22.44" style="fill:#fff;"/><polyline points="18.42 7.7 16.36 7.7 16.15 7.79 16.06 8 16.06 22.44 18.42 22.44 18.42 7.7" style="fill:#d4d4d4;"/><path d="M8.23,27.07h-.05v.05h.02l.02-.05M35.93,27.07h-.05l.02.05.02.05v5.47-5.57" style="fill:#7fd6e2;"/><polyline points="8.21 27.12 8.18 27.12 8.18 27.18 8.21 27.12" style="fill:#2596e0;"/><polyline points="35.88 27.07 8.23 27.07 8.21 27.12 8.18 27.18 8.18 32.54 8.27 32.75 8.48 32.84 35.63 32.94 35.84 32.85 35.93 32.64 35.93 27.18 35.91 27.12 35.88 27.07" style="fill:#0091b0;"/><path d="M29.27,23.14h-14.43c-.19,0-.35-.16-.35-.35s.16-.35.35-.35h14.43c.19,0,.35.16.35.35s-.16.35-.35.35Z" style="fill:#3a3347;"/><path d="M22.43,17.59c-.12,0-.24-.05-.32-.13l-1.94-1.94c-.18-.18-.18-.46,0-.64s.46-.18.64,0l1.59,1.59,3.06-3.75c.16-.19.44-.22.64-.06.19.16.22.44.06.64l-3.38,4.14c-.08.1-.2.16-.33.17h-.02Z" style="fill:#c1d100;"/></g></svg>