<?xml version="1.0" encoding="UTF-8"?><svg id="b" xmlns="http://www.w3.org/2000/svg" xmlns:xlink="http://www.w3.org/1999/xlink" viewBox="0 0 42.52 42.52"><defs><clipPath id="d"><circle cx="21.26" cy="21.26" r="21.26" transform="translate(-3.13 38.84) rotate(-80.78)" style="fill:none;"/></clipPath><clipPath id="e"><rect y="0" width="63.78" height="42.52" style="fill:none;"/></clipPath></defs><g id="c"><g style="clip-path:url(#d);"><g style="clip-path:url(#e);"><rect width="63.78" height="42.52" style="fill:#fff;"/><rect width="63.78" height="21.26" style="fill:#ef3340;"/></g><path d="M9.19,10.63c0-3.71,2.59-6.82,6.05-7.62-.57-.13-1.16-.2-1.77-.2-4.32,0-7.82,3.5-7.82,7.82s3.5,7.82,7.82,7.82c.61,0,1.2-.07,1.77-.2-3.47-.8-6.05-3.91-6.05-7.62Z" style="fill:#fff;"/><polygon points="22.02 10.02 20.82 10.89 21.28 9.48 20.08 8.61 21.56 8.61 22.02 7.21 22.48 8.61 23.96 8.61 22.76 9.48 23.22 10.89 22.02 10.02" style="fill:#fff;"/><polygon points="19.65 14.5 18.45 13.63 19.93 13.63 20.39 12.22 20.85 13.63 22.33 13.63 21.13 14.5 21.59 15.91 20.39 15.04 19.19 15.91 19.65 14.5" style="fill:#fff;"/><polygon points="14.66 13.63 15.11 12.22 15.57 13.63 17.05 13.63 15.85 14.5 16.31 15.91 15.11 15.04 13.92 15.91 14.37 14.5 13.18 13.63 14.66 13.63" style="fill:#fff;"/><polygon points="13.94 8.61 15.42 8.61 14.22 9.48 14.68 10.89 13.48 10.02 12.29 10.89 12.74 9.48 11.55 8.61 13.03 8.61 13.48 7.21 13.94 8.61" style="fill:#fff;"/><polygon points="18.49 6.38 18.95 7.79 17.75 6.92 16.55 7.79 17.01 6.38 15.81 5.51 17.29 5.51 17.75 4.1 18.21 5.51 19.69 5.51 18.49 6.38" style="fill:#fff;"/></g></g></svg>