<?xml version="1.0" encoding="UTF-8"?><svg id="b" xmlns="http://www.w3.org/2000/svg" viewBox="0 0 42.52 42.52"><g id="c"><circle cx="21.26" cy="21.26" r="21.26" style="fill:#fff; opacity:.35;"/><path d="M34.29,34.52h-2.19V7.04c0-.15-.12-.26-.26-.26h-5.61c-.15,0-.26.12-.26.26v26.63h-2.63V14.49c0-.15-.12-.26-.26-.26h-5.61c-.15,0-.26.12-.26.26v19.18h-2.63v-9.98c0-.15-.12-.26-.26-.26h-5.61c-.15,0-.26.12-.26.26v10.82h-2.04c.19.21.39.41.58.61h27.31c.17,0,.31-.14.31-.31s-.14-.31-.31-.31Z" style="opacity:.17;"/><path d="M9.97,22.3c0-.15.12-.26.26-.26h5.61c.15,0,.26.12.26.26v10.87c0,.15-.12.26-.26.26h-5.61c-.15,0-.26-.12-.26-.26v-10.87" style="fill:#cceff4;"/><path d="M18.73,13.1c0-.15.12-.26.26-.26h5.61c.15,0,.26.12.26.26v20.07c0,.15-.12.26-.26.26h-5.61c-.15,0-.26-.12-.26-.26V13.1" style="fill:#00adc6;"/><path d="M27.5,5.65c0-.15.12-.26.26-.26h5.61c.15,0,.26.12.26.26v27.52c0,.15-.12.26-.26.26h-5.61c-.15,0-.26-.12-.26-.26V5.65" style="fill:#c1d100;"/><path d="M30.56,5.39h-2.8c-.15,0-.26.12-.26.26v27.52c0,.15.12.26.26.26h2.8V5.39" style="fill:#a9be00;"/><path d="M21.8,12.84h-2.8c-.15,0-.26.12-.26.26v20.07c0,.15.12.26.26.26h2.8V12.84" style="fill:#0091b0;"/><path d="M13.04,22.04h-2.8c-.15,0-.26.12-.26.26v10.87c0,.15.12.26.26.26h2.8v-11.39" style="fill:#a5d0cd;"/><path d="M35.82,33.74H7.78c-.17,0-.31-.14-.31-.31s.14-.31.31-.31h28.04c.17,0,.31.14.31.31s-.14.31-.31.31Z" style="fill:#343c3d;"/></g></svg>