<?xml version="1.0" encoding="UTF-8"?><svg id="b" xmlns="http://www.w3.org/2000/svg" xmlns:xlink="http://www.w3.org/1999/xlink" viewBox="0 0 42.52 42.52"><defs><clipPath id="d"><circle cx="21.26" cy="21.26" r="21.26" transform="translate(-6.52 9.75) rotate(-22.5)" style="fill:none;"/></clipPath></defs><g id="c"><g style="clip-path:url(#d);"><rect width="42.5" height="42.51" style="fill:#fff;"/><polygon points="19.12 25.5 19.12 42.51 23.37 42.51 23.37 25.5 42.5 25.5 42.5 17 23.37 17 23.37 0 19.12 0 19.12 17 0 17 0 25.5 19.12 25.5" style="fill:#cf142b;"/><polygon points="24.79 13.76 24.79 0 38.55 0 24.79 13.76" style="fill:#00247d;"/><polygon points="24.79 28.75 24.79 42.51 38.55 42.51 24.79 28.75" style="fill:#00247d;"/><polygon points="17.71 28.75 17.71 42.51 3.95 42.51 17.71 28.75" style="fill:#00247d;"/><polygon points="17.71 13.76 17.71 0 3.95 0 17.71 13.76" style="fill:#00247d;"/><polygon points="0 3.95 0 14.17 10.22 14.17 0 3.95" style="fill:#00247d;"/><polygon points="42.5 3.95 42.5 14.17 32.28 14.17 42.5 3.95" style="fill:#00247d;"/><polygon points="42.5 38.56 42.5 28.34 32.28 28.34 42.5 38.56" style="fill:#00247d;"/><polygon points="0 38.56 0 28.34 10.22 28.34 0 38.56" style="fill:#00247d;"/><polyline points="42.5 0 40.14 0 25.99 14.17 28.35 14.17 42.52 0" style="fill:#cf142b;"/><polyline points="16.5 28.34 14.14 28.34 0 42.51 2.36 42.51 16.53 28.34" style="fill:#cf142b;"/><polygon points="11.8 14.18 14.16 14.18 0 0 0 2.38 11.8 14.18" style="fill:#cf142b;"/><polygon points="30.69 28.34 28.33 28.34 42.49 42.52 42.49 40.14 30.69 28.34" style="fill:#cf142b;"/></g></g></svg>