<?xml version="1.0" encoding="UTF-8"?><svg id="b" xmlns="http://www.w3.org/2000/svg" viewBox="0 0 42.52 42.52"><g id="c"><circle cx="21.26" cy="21.26" r="21.26" style="fill:#fff; opacity:.35;"/><path d="M31.73,28.48c0,3.07-1.22,6.02-3.39,8.19-2.17,2.17-5.12,3.39-8.19,3.39s-6.02-1.22-8.19-3.39c-2.17-2.17-3.39-5.12-3.39-8.19,0-5.97,9.36-22.87,11.3-25.87.03-.05.08-.09.13-.12.05-.03.11-.04.17-.04s.12.01.17.04.1.07.13.12c1.97,2.97,11.28,19.9,11.28,25.87Z" style="opacity:.17;"/><path d="M34.14,27.53c0,3.07-1.22,6.02-3.39,8.19-2.17,2.17-5.12,3.39-8.19,3.39s-6.02-1.22-8.19-3.39c-2.17-2.17-3.39-5.12-3.39-8.19,0-5.97,9.36-22.87,11.3-25.87l.13-.12.17-.04.17.04.13.12c1.97,2.97,11.28,19.9,11.28,25.87" style="fill:#00adc6;"/><path d="M22.56,1.5l-.17.04-.13.12c-1.62,2.51-8.43,14.73-10.61,22.16,2.19-7.43,9-19.65,10.61-22.15l.13-.12.17-.04.17.04.13.12c.2.3.47.74.8,1.29,0,0,0,0,0,0-.33-.55-.6-.99-.8-1.29l-.13-.12-.17-.04" style="fill:#dae7f6;"/><path d="M22.56,1.5l-.17.04-.13.12c-1.62,2.5-8.42,14.72-10.61,22.15-.43,1.46-.68,2.73-.68,3.71,0,1.52.3,3.03.88,4.44.58,1.41,1.44,2.68,2.51,3.76,1.08,1.08,2.35,1.93,3.76,2.51,1.41.58,2.91.88,4.43.88.49,0,.97-.03,1.46-.09-2.94-.19-5.69-1.5-7.7-3.64-2.01-2.15-3.13-4.98-3.13-7.92,0-5.35,7.52-19.48,10.47-24.51-.33-.55-.6-.99-.8-1.29l-.13-.12-.17-.04" style="fill:#009dbf;"/><path d="M22.75,36.31c-.23,0-.42-.19-.42-.42s.19-.42.42-.42c2.1,0,4.07-.82,5.55-2.3,1.48-1.48,2.3-3.46,2.3-5.55,0-.23.19-.42.42-.42s.42.19.42.42c0,2.32-.9,4.51-2.55,6.15-1.64,1.64-3.82,2.55-6.15,2.55Z" style="fill:#fff;"/></g></svg>