<?xml version="1.0" encoding="UTF-8"?><svg id="b" xmlns="http://www.w3.org/2000/svg" xmlns:xlink="http://www.w3.org/1999/xlink" viewBox="0 0 42.23 56.9"><defs><clipPath id="d"><path d="M42.23,35.79c0,11.66-9.45,21.11-21.11,21.11S0,47.45,0,35.79,9.45,14.67,21.11,14.67s21.11,9.45,21.11,21.11" style="fill:none;"/></clipPath></defs><g id="c"><path d="M42.23,35.79c0,11.66-9.45,21.11-21.11,21.11S0,47.45,0,35.79,9.45,14.67,21.11,14.67s21.11,9.45,21.11,21.11" style="fill:#00adc6;"/><g style="clip-path:url(#d);"><path d="M34.6,27.38c.27-1.12-.94-2.26-2.2-3.28-1.33-1.08,2.29-6.47-.99-7.82-1.38-.57-3.96.43-6.29,1.42-1.94.83-3.71,1.66-4.47,1.58-1-.1-2.29.19-3.92.89-1.63.7-3.51,3.04-4.9,3.04s-4.32-.05-5.24.38c-.92.43-1.12,1.77-1.47,2.1-.35.33-.86.28-1.37.09-.51-.19-1.58-.09-2,.28-.42.37-.42,1.36-.37,1.5.05.14.69.8.69.8,0,0-.83.98-.92,1.12-.09.14-.84,1.45.51,1.64,1.35.19,2.55-.89,3.11-1.17.56-.28,2.79,1.45,3.34,1.5.22.02.59-.1,1.01-.21.66-.18,1.44-.36,1.87-.02.7.56.37,1.82-.56,2.71-.93.89-3.62.37-4.23.09-.6-.28-1.67-1.25-3.53-.84-1.86.4-3.39,2.62-3.99,4.07-.6,1.45.23,2.71,1.28,3.37.63.4,1.36.38,2.1.37.49,0,.99-.02,1.45.09,1.16.28,2.23,1.59,2.37,2.43.14.84.09,5.01.23,6.62.14,1.61,1.65,2.38,2.74,2.04,1.09-.34,2.32-2.99,3.11-4.73.79-1.73,2.51-5.29,3.02-6.83.51-1.54-.93-3.09-.93-3.09,0,0,2.14,0,2.65-.51.51-.51.23-2.43.23-2.43.81.11,3.34,3.6,4.04,3.98.7.37,1.78.22,3.41-2.78,1.63-3,2.57-2.67,3.54-2.91.35-.09,1.48.34,2.71.76,1.48.5,3.1,1.01,3.7.64,1.91-1.14-.89-2.17.26-6.89" style="fill:#027180;"/><path d="M-.04,23.17s1.23-.23,2.39-1.17,1.87-.91,2.28-1.89c.41-.98-.04-1.81-1.44-1.85-1.4-.05-2.18.28-2.74,1.03s-1.53,3.02-1.32,3.56c.21.54.83.33.83.33Z" style="fill:#027180;"/><path d="M16.4,46.47c-.58.23-1.31,2.27-1.55,2.99-.24.73.18,2.48,2.02,1.36,0,0,1.42-2.57,1.09-3.51s-.98-1.08-1.56-.84Z" style="fill:#027180;"/><path d="M10.99,17.25c-3.57,1.96-6.52,4.91-8.46,8.49.18-.03.38-.05.56-.05.25,0,.48.03.65.09.24.09.49.15.72.15.25,0,.48-.07.66-.24.35-.33.55-1.67,1.47-2.1.14-.06.32-.12.53-.16,1.31-2.69,2.87-4.89,3.87-6.18" style="fill:#009db4;"/><path d="M11.16,49.16c-.7,1.4-1.54,2.77-2.3,3.01-.17.05-.35.08-.54.08-.16,0-.32-.02-.49-.06,3.63,2.94,8.25,4.7,13.28,4.7,2.39,0,4.69-.4,6.84-1.13-1.91-.08-3.99-.37-6.22-.96-4.58-1.21-8.03-3.21-10.58-5.64M.62,40.9c.95,3.81,2.93,7.21,5.63,9.89-.07-.2-.12-.41-.14-.65-.14-1.61-.09-5.78-.23-6.62-.14-.84-1.21-2.15-2.37-2.43-.34-.08-.69-.1-1.05-.1-.13,0-.27,0-.4,0-.13,0-.26,0-.39,0-.36,0-.71-.02-1.04-.1M1.56,27.81C.64,30.06.1,32.5.01,35.06c.72-.89,1.64-1.65,2.67-1.87.31-.07.61-.1.88-.1.45,0,.84.08,1.18.19,0-.45,0-.9.02-1.34.03-.68.1-1.35.21-2.01-.02,0-.03,0-.05,0-.06,0-.11,0-.15.03-.51.26-1.58,1.19-2.8,1.19-.1,0-.21,0-.32-.02-1.35-.19-.6-1.5-.51-1.64.09-.14.92-1.12.92-1.12,0,0-.3-.31-.51-.55" style="fill:#009db4;"/><path d="M3.56,33.08c-.27,0-.56.03-.88.1-1.02.22-1.94.99-2.67,1.87H.01c0,.24-.01.49-.01.73h0c0,1.76.22,3.48.62,5.11.33.08.69.1,1.04.1.13,0,.26,0,.39,0,.13,0,.27,0,.4,0,.36,0,.71.02,1.05.1,1.16.28,2.23,1.59,2.37,2.43.14.84.09,5.01.23,6.62.02.23.07.45.14.65.5.5,1.03.97,1.57,1.41.16.04.33.06.49.06.19,0,.37-.03.54-.08.76-.24,1.6-1.61,2.3-3.01-4.76-4.55-6.39-10.61-6.42-15.89-.34-.11-.73-.19-1.18-.19M7.12,23.43c-.21.04-.4.1-.53.16-.92.43-1.12,1.77-1.47,2.1-.18.17-.41.24-.66.24-.23,0-.47-.06-.72-.15-.17-.06-.4-.09-.65-.09-.18,0-.38.02-.56.05h0c-.36.67-.69,1.36-.98,2.07h0c.2.24.51.55.51.55,0,0-.83.98-.92,1.12-.09.14-.84,1.45.51,1.64.11.01.21.02.32.02,1.22,0,2.28-.93,2.8-1.19.04-.02.09-.03.15-.03.02,0,.03,0,.05,0,.38-2.32,1.2-4.53,2.15-6.49" style="fill:#026774;"/><path d="M32.69,20c-.16.89-.41,1.79-.53,2.53.2.2.37.38.53.55.33.35.64.51.91.51.49,0,.81-.53.75-1.32-.04-.52-.68-1.38-1.66-2.26M26.58,17.09c-.45,0-.92.07-1.13.32-.04.05-.06.11-.06.17.4-.17.8-.34,1.2-.49h-.01" style="fill:#5ecbdb;"/><path d="M26.59,17.09c-.4.16-.8.32-1.2.49,0,.61,1.83,1.73,3.1,2.19,1.18.42,2.66,1.76,3.66,2.77.12-.74.37-1.64.53-2.53-1.33-1.2-3.27-2.43-5.1-2.82,0,0-.48-.09-.99-.09" style="fill:#5fa5af;"/><path d="M35.49,35.79s2.55,2.07,4.09,2.07,1.66-1.32,1.02-2.07c-.64-.74-5.74-1.55-5.11,0Z" style="fill:#027180;"/><path d="M39.45,29.17s-1.4,2.43-.64,3.57c.77,1.15,1.91-.77.64-3.57Z" style="fill:#027180;"/><path d="M34.35,20.23s.89,1.79,1.02,3.7c.13,1.91,1.67.97,1.28-2.45-.39-3.42-2.31-3.29-2.3-1.25Z" style="fill:#027180;"/><path d="M24.39,38.11s-1.79,2.43-.51,2.68,1.67-2.16.51-2.68Z" style="fill:#027180;"/></g><path d="M21.11,0c-4.97,0-9,4.03-9,9s9,18,9,18c0,0,9-13.03,9-18S26.08,0,21.11,0ZM21.11,13.5c-2.49,0-4.5-2.01-4.5-4.5s2.01-4.5,4.5-4.5,4.5,2.01,4.5,4.5-2.01,4.5-4.5,4.5Z" style="fill:#e25314;"/></g></svg>