<?xml version="1.0" encoding="UTF-8"?><svg id="b" xmlns="http://www.w3.org/2000/svg" xmlns:xlink="http://www.w3.org/1999/xlink" viewBox="0 0 42.52 42.52"><defs><clipPath id="d"><path d="M24.02,14.92h5.06c.64,0,1.12-.57,1.02-1.2l-.21-1.32c-.1-.61-.7-1-1.29-.84l-4.85,1.32c-.45.12-.76.53-.76,1,0,.57.46,1.03,1.03,1.03" style="fill:none;"/></clipPath></defs><g id="c"><circle cx="21.26" cy="21.26" r="21.26" style="fill:#fff; opacity:.35;"/><path d="M37.47,28.61c0-3.48-2.83-6.31-6.31-6.31h0c-.22,0-.43.01-.64.03-.21.02-.42.05-.63.1-.42.09-.83.22-1.22.38l-2.68-4.45.63-2.44h1.67c.64,0,1.12-.57,1.02-1.2l-.21-1.32c-.1-.61-.7-1-1.29-.84l-4.85,1.32c-.45.12-.76.53-.76,1,0,.57.46,1.03,1.03,1.03h1.6l-.44,1.72h-10.12l.69-2.7c.07-.26,0-.53-.15-.74s-.42-.33-.68-.33h-3.5c-.06,0-.11,0-.16.01-.8.17-2.38,1.06-2.38,3.15,0,.98.42,1.57.77,1.89.32.3.7.47,1.05.58.59.17,1.17-.28,1.12-.89-.03-.37-.29-.66-.65-.77-.13-.04-.26-.1-.36-.19-.05-.05-.2-.19-.2-.61,0-1.02.68-1.35.94-1.44h2.26l-1.73,6.76c-.23-.03-.47-.04-.71-.04h0c-.22,0-.43.01-.64.03s-.42.05-.63.1c-2.87.59-5.04,3.14-5.04,6.18h0c0,.55.08,1.08.21,1.58.04.15.08.3.13.45.11.33.25.65.41.96,0,0,0,.01,0,.02,1.07,1.97,3.16,3.31,5.55,3.31.21,0,.41-.01.62-.03,0,0,0,0,0,0,3.19-.31,5.7-3.01,5.7-6.28,0-2.64-1.63-4.9-3.93-5.84l.4-1.55,8.52,8.02h0c.16.15.37.23.59.23h2.44c.03.24.08.48.14.72.04.15.08.3.13.45.11.33.25.65.41.96,0,0,0,.01,0,.02,1.07,1.97,3.16,3.31,5.55,3.31.21,0,.41-.01.62-.03,0,0,0,0,0,0,3.19-.31,5.7-3.01,5.7-6.28ZM14.12,28.61c0,1.96-1.6,3.56-3.56,3.56s-3.56-1.6-3.56-3.56,1.6-3.56,3.56-3.56c0,0,.01,0,.02,0l-.48,1.88c-.74.2-1.28.87-1.28,1.67,0,.96.78,1.74,1.74,1.74s1.74-.78,1.74-1.74c0-.49-.2-.93-.53-1.25l.48-1.86c1.11.6,1.87,1.76,1.87,3.11ZM28.63,26.1l.99,1.64h-1.91c.16-.63.47-1.2.92-1.64ZM21.99,26.98l-8.1-7.62h10.05l-1.95,7.62ZM25.38,20.71l1.81,3c-1.22.99-2.06,2.42-2.28,4.04h-1.33l1.8-7.04ZM31.15,32.17c-1.66,0-3.05-1.15-3.44-2.69h1.93c.3.52.86.88,1.51.88.96,0,1.74-.78,1.74-1.74s-.78-1.74-1.74-1.74c-.01,0-.03,0-.04,0l-.99-1.65c.33-.1.67-.17,1.03-.17,1.96,0,3.56,1.6,3.56,3.56s-1.6,3.56-3.56,3.56Z" style="opacity:.17;"/><path d="M24.67,4.63s-.06-.06-.1-.07c-.03-.01-.07-.02-.1-.03-.02,0-.04-.01-.06-.02-.03,0-.05-.02-.08-.02-.03-.01-.06-.02-.09-.02-.03,0-.04,0-.06-.01-1.41-.28-3.17.14-4.75,1.24-.16.1-.32.22-.47.35-1.88,1.49-2.88,3.57-2.7,5.26.07.02.14.04.21.06.03,0,.05.02.08.02.23.06.48.1.74.12t.01,0s.07,0,.11,0c.02,0,.03,0,.05,0,.03,0,.07,0,.11,0,.03,0,.05,0,.08,0,0,0,.02,0,.03,0,1.38,0,2.95-.57,4.33-1.66,1.83-1.46,2.82-3.46,2.71-5.12,0-.04-.01-.08-.03-.11Z" style="opacity:.17;"/><path d="M31.95,33.92c-3.48,0-6.31-2.83-6.31-6.31s2.83-6.31,6.31-6.31,6.31,2.83,6.31,6.31-2.83,6.31-6.31,6.31M31.95,24.05c-1.96,0-3.56,1.6-3.56,3.56s1.6,3.56,3.56,3.56,3.56-1.59,3.56-3.56-1.59-3.56-3.56-3.56" style="fill:#566c0f;"/><path d="M11.37,33.92c-3.48,0-6.31-2.83-6.31-6.31s2.83-6.31,6.31-6.31,6.31,2.83,6.31,6.31-2.83,6.31-6.31,6.31M11.37,24.05c-1.96,0-3.56,1.6-3.56,3.56s1.59,3.56,3.56,3.56,3.56-1.59,3.56-3.56-1.6-3.56-3.56-3.56" style="fill:#729014;"/><path d="M5.05,27.61c0,3.44,2.77,6.25,6.19,6.31-3.43-.07-6.19-2.87-6.19-6.31" style="fill:#d4d4d4;"/><path d="M11.37,21.3c-3.48,0-6.31,2.83-6.31,6.31h0c0,3.44,2.77,6.25,6.19,6.31.04,0,.08,0,.12,0,.21,0,.41-.01.62-.03-3.19-.31-5.7-3.01-5.7-6.28s2.5-5.97,5.7-6.28c-.2-.02-.41-.03-.62-.03h0" style="fill:#5f7811;"/><path d="M31.95,21.3c-.88,0-1.72.18-2.49.51l.3.5c.82-.53,1.78-.88,2.8-.98-.2-.02-.41-.03-.62-.03h0" style="fill:#475a0c;"/><path d="M27.99,22.7c-1.22.99-2.06,2.42-2.29,4.04h1.23c.17-1.25.71-2.39,1.51-3.29l-.45-.75" style="fill:#475a0c;"/><path d="M25.7,28.47h0c.42,3.04,3,5.39,6.13,5.45-3.13-.06-5.72-2.41-6.13-5.45" style="fill:#d4d4d4;"/><path d="M26.93,28.47h-1.23c.42,3.03,3,5.39,6.13,5.45.04,0,.08,0,.12,0,.21,0,.41-.01.62-.03-2.91-.28-5.24-2.55-5.64-5.42" style="fill:#475a0c;"/><path d="M31.95,25.87h-.04s-5.13-8.51-5.13-8.51l.88-3.43-1.67-.43-.8,3.13h-10.12l.69-2.7c.07-.26,0-.53-.15-.74-.16-.21-.42-.33-.68-.33h-3.66c-.8.18-2.38,1.08-2.38,3.17,0,.98.42,1.57.77,1.89.32.3.7.47,1.05.58.59.17,1.17-.28,1.12-.89-.03-.37-.29-.66-.65-.77-.13-.04-.26-.1-.36-.19-.05-.05-.2-.19-.2-.61,0-1.02.68-1.35.94-1.44h2.26l-2.91,11.36c-.74.2-1.28.87-1.28,1.67,0,.96.78,1.74,1.74,1.74s1.74-.78,1.74-1.74c0-.49-.2-.93-.53-1.25l1.57-6.14,8.52,8.02h0c.16.15.37.24.59.24h7.18c.3.52.86.88,1.51.88.96,0,1.74-.78,1.74-1.74s-.78-1.74-1.74-1.74M14.69,18.36h10.05l-1.95,7.62-8.1-7.62M26.18,19.71l4.24,7.04h-6.04l1.8-7.04" style="fill:#28302c;"/><path d="M24.02,14.92h5.06c.64,0,1.12-.57,1.02-1.2l-.21-1.32c-.1-.61-.7-1-1.29-.84l-4.85,1.32c-.45.12-.76.53-.76,1,0,.57.46,1.03,1.03,1.03" style="fill:#fcd385;"/><g style="clip-path:url(#d);"><path d="M30.1,14.01l-6.57.78c.15.08.31.12.49.12h5.06c.53,0,.96-.4,1.03-.9" style="fill:#d2af6f;"/></g><path d="M23.1,9.8c-1.38,1.1-2.95,1.66-4.33,1.67h-.03s-.08,0-.08,0h-.1s-.05,0-.05,0h-.11s-.01,0-.01,0c-.26-.02-.5-.06-.74-.12l-.08-.02-.21-.06c-.18-1.69.82-3.77,2.7-5.26.15-.13.32-.24.47-.35,1.58-1.1,3.34-1.52,4.75-1.24h.06s.09.03.09.03l.08.02.06.02.1.03.1.07.03.11c.11,1.66-.88,3.66-2.71,5.12" style="fill:#00845f;"/><path d="M24.41,4.31c-1.22,0-2.6.44-3.87,1.33h0c-.16.1-.32.22-.47.35-1.74,1.38-2.72,3.25-2.72,4.85,0,.14,0,.27.02.4l.21.06.08.02c.23.06.48.1.74.12h.01s.11,0,.11,0h.05s.1,0,.1,0h.08s.03,0,.03,0c-.16-1.69.84-3.74,2.71-5.23,1.37-1.09,2.92-1.65,4.29-1.66l-.09-.07-.1-.03-.06-.02-.08-.02-.09-.02h-.06s-.04-.02-.05-.02c-.01,0-.02,0-.04,0-.02,0-.04,0-.07-.01-.23-.04-.47-.05-.72-.05" style="fill:#006441;"/><path d="M23.37,6.61c-2.52,1.07-4.38,3.2-4.39,3.2v.16s.17-.01.17-.01c0,0,.11-.13.32-.34.63-.64,2.14-2.02,3.98-2.8l.06-.15-.15-.06" style="fill:#00563e;"/></g></svg>