<?xml version="1.0" encoding="UTF-8"?><svg id="b" xmlns="http://www.w3.org/2000/svg" viewBox="0 0 42.52 42.52"><g id="c"><path d="M10.83,9.58c.24-.03.48-.02.7.03.23.05.44.07.65.06,2.24-.03,3.03-2.75,4.9-2.65.62.03,1.37.39,2.32,1.25.02,0,.04,0,.06-.01.04-.01.08-.03.11-.04.09-.03.18-.07.26-.11.04-.02.09-.05.13-.07.08-.04.15-.08.22-.13.04-.03.09-.05.13-.08.07-.05.14-.1.21-.15.04-.03.08-.06.11-.09.08-.06.15-.12.22-.19.03-.02.05-.05.08-.07.1-.09.2-.18.29-.27.08-.08.16-.16.25-.23.02-.02.04-.03.05-.05.07-.06.13-.12.2-.18.03-.02.06-.05.08-.07.06-.05.11-.1.17-.14.03-.03.06-.05.09-.07.05-.04.11-.08.16-.12.03-.02.07-.05.1-.07.05-.04.11-.07.17-.1.03-.02.07-.04.1-.06.06-.03.12-.06.18-.08.03-.01.07-.03.1-.04.07-.02.14-.04.21-.06.03,0,.06-.02.09-.02.1-.02.2-.03.31-.03,0,0,0,0,0,0h0c.09,0,.19,0,.29.02.03,0,.06.01.09.02.07.01.15.03.22.05.04.01.08.03.12.04.07.02.14.05.22.08.04.02.09.04.13.06.07.04.15.08.23.12.05.03.09.05.14.08.08.05.17.11.25.17.05.03.09.06.14.1.1.07.2.15.3.24.04.03.08.06.12.09.15.12.29.26.45.41.15.14.31.3.47.48l.13.14c.15.16.31.33.48.52,2.67,2.93,7.18,8.63,10.71,12.26.02-.16.06-.33.06-.49,0-.26.21-.47.47-.47h.04c.26,0,.46.21.47.46,0,1.89,1.55,3.51,3.32,3.76.11-.86.18-1.73.18-2.62C42.52,9.52,33,0,21.26,0S.3,9.25.03,20.76c3.48-4.36,7.61-10.81,10.81-11.17Z" style="fill:#fff; opacity:.35;"/><path d="M3.9,20.13c0-.22.15-.42.37-.46.03,0,.07-.01.1-.01.02,0,.04.01.07.01.03,0,.05,0,.08.02.04.01.07.03.1.05.02.01.04.02.06.04.03.03.06.06.08.1.01.02.03.03.04.05.03.06.04.12.04.19,0,.24.03.47.07.69.01.07.03.14.05.2.02.08.05.16.08.24l.05-.06.02-.02.09-.1.03-.03s.07-.08.1-.11c.15-.17.3-.35.45-.53.06-.07.12-.14.18-.21.17-.2.34-.41.51-.62.07-.09.15-.19.22-.28.16-.21.33-.41.49-.63.09-.12.19-.24.28-.37.1-.13.2-.26.3-.39,1.26-1.65,2.57-3.43,3.87-5.01.01-.01.02-.03.03-.04.23-.28.45-.54.68-.81.03-.03.06-.07.09-.1.22-.25.44-.5.66-.74.03-.03.05-.05.08-.08.23-.24.46-.48.68-.7,0,0,0,0,0,0,.22-.22.45-.42.67-.61.02-.02.04-.04.07-.06.21-.18.42-.34.62-.49.03-.03.07-.05.1-.08.2-.14.4-.27.6-.38.03-.02.06-.03.09-.05.2-.11.41-.21.6-.28,0,0,0,0,0,0,.02,0,.03,0,.04-.01.13-.05.26-.08.4-.11.04,0,.09-.02.13-.02.11-.02.22-.03.33-.03.03,0,.05,0,.08,0,.01,0,.02,0,.03,0,.13,0,.27.01.4.04.2.04.39.06.57.06.13,0,.25,0,.37-.02.02,0,.04,0,.06,0,.12-.02.24-.05.35-.08-.95-.86-1.7-1.22-2.32-1.25-1.87-.1-2.67,2.62-4.9,2.65-.2,0-.42-.02-.65-.06-.23-.05-.46-.05-.7-.03C7.64,9.94,3.51,16.4.03,20.76c0,.17-.03.33-.03.5,0,.94.08,1.86.2,2.77.06-.07.15-.12.25-.13,1.93-.18,3.45-1.8,3.45-3.77Z" style="fill:#fff; opacity:.35;"/><path d="M3.9,20.13c0-.22.15-.42.37-.46.03,0,.07-.01.1-.01.02,0,.04.01.07.01.03,0,.05,0,.08.02.04.01.07.03.1.05.02.01.04.02.06.04.03.03.06.06.08.1.01.02.03.03.04.05.03.06.04.12.04.19,0,.24.03.47.07.69.01.07.03.14.05.2.02.08.05.16.08.24l.05-.06.02-.02.09-.1.03-.03s.07-.08.1-.11c.15-.17.3-.35.45-.53.06-.07.12-.14.18-.21.17-.2.34-.41.51-.62.07-.09.15-.19.22-.28.16-.21.33-.41.49-.63.09-.12.19-.24.28-.37.1-.13.2-.26.3-.39,1.26-1.65,2.57-3.43,3.87-5.01.01-.01.02-.03.03-.04.23-.28.45-.54.68-.81.03-.03.06-.07.09-.1.22-.25.44-.5.66-.74.03-.03.05-.05.08-.08.23-.24.46-.48.68-.7,0,0,0,0,0,0,.22-.22.45-.42.67-.61.02-.02.04-.04.07-.06.21-.18.42-.34.62-.49.03-.03.07-.05.1-.08.2-.14.4-.27.6-.38.03-.02.06-.03.09-.05.2-.11.41-.21.6-.28,0,0,0,0,0,0,.02,0,.03,0,.04-.01.13-.05.26-.08.4-.11.04,0,.09-.02.13-.02.11-.02.22-.03.33-.03.03,0,.05,0,.08,0,.01,0,.02,0,.03,0,.13,0,.27.01.4.04.2.04.39.06.57.06.13,0,.25,0,.37-.02.02,0,.04,0,.06,0,.12-.02.24-.05.35-.08-.95-.86-1.7-1.22-2.32-1.25-1.87-.1-2.67,2.62-4.9,2.65-.2,0-.42-.02-.65-.06-.23-.05-.46-.05-.7-.03C7.64,9.94,3.51,16.4.03,20.76c0,.17-.03.33-.03.5,0,.94.08,1.86.2,2.77.06-.07.15-.12.25-.13,1.93-.18,3.45-1.8,3.45-3.77Z" style="opacity:.17;"/><path d="M38,20.64h0c.03-.17.04-.34.04-.51,0,.17-.03.33-.06.49,0,0,0,0,.01.01h0Z" style="fill:#fff;"/><polygon points="5.02 21.28 5.02 21.27 5.02 21.28 5.02 21.28 5.02 21.28" style="fill:#fff;"/><path d="M4.91,20.81c-.04-.22-.07-.45-.07-.69,0,.24.03.47.07.69Z" style="fill:#fff;"/><path d="M4.79,19.93s-.02-.03-.04-.05c.01.02.03.03.04.05Z" style="fill:#fff;"/><path d="M4.62,19.74s.04.02.06.04c-.02-.02-.04-.03-.06-.04Z" style="fill:#fff;"/><path d="M4.96,21.02c.02.09.03.17.06.26h.01c-.03-.1-.05-.17-.08-.26Z" style="fill:#fff;"/><path d="M4.51,19.68s-.05-.01-.08-.02c.03,0,.05,0,.08.02Z" style="fill:#fff;"/><path d="M24.11,5.83s.08.03.12.04c-.04-.01-.08-.03-.12-.04Z" style="fill:#fff;"/><path d="M24.44,5.95s.09.04.13.06c-.04-.02-.09-.04-.13-.06Z" style="fill:#fff;"/><path d="M23.79,5.76s.06.01.09.02c-.03,0-.06-.01-.09-.02Z" style="fill:#fff;"/><path d="M23.19,5.76c.1-.02.2-.03.31-.03-.11,0-.21.01-.31.03Z" style="fill:#fff;"/><path d="M22.9,5.84c.07-.02.14-.04.21-.06-.07.02-.14.03-.21.06Z" style="fill:#fff;"/><path d="M24.53,9.79c-.68.64-1.4,1.27-2.39,1.42,2.14,2.48,4.92,5.87,7.46,8.69,0,0,.01-.01.01-.02.02-.03.04-.07.07-.1.02-.02.04-.03.06-.04.03-.02.06-.04.09-.06.02,0,.05-.01.08-.02.03,0,.06-.02.1-.02,0,0,.02,0,.03,0,.07,0,.13.03.19.06.02.01.03.03.05.04.03.03.06.05.09.09,0,0,0,0,0,0,0,0,.02.01.02.02,0,0,0,.02,0,.03.04.08.08.16.08.25,0,.06.02.12.02.17.01.21.03.41.07.61,0,.01.01.03.01.04.3.32.6.64.89.94.02-.16.06-.33.06-.49,0-.26.21-.47.47-.47h.04c.26,0,.47.21.47.47,0,.91.37,1.74.93,2.4.06.01.11.03.17.04.22.04.45.07.69.07s.46-.03.69-.08c0,0,.02,0,.03,0,.07-.01.13-.04.2-.06.14-.04.28-.08.42-.14.02,0,.03-.01.05-.02.07-.03.14-.07.22-.11.13-.06.25-.13.37-.21.08-.05.16-.12.24-.18.11-.08.22-.17.31-.26.07-.07.14-.14.21-.22.09-.1.18-.2.26-.31.06-.08.12-.17.17-.25.07-.11.14-.23.2-.35.05-.09.09-.18.13-.28.05-.12.09-.25.13-.38.03-.1.06-.2.08-.3,0-.05,0-.09.02-.14-3.53-3.63-8.04-9.33-10.71-12.26-.09-.01-.19-.02-.28-.02-.99,0-1.71.72-2.48,1.45Z" style="fill:#fff;"/><path d="M25.63,6.73s.08.06.12.09c-.04-.03-.08-.06-.12-.09Z" style="fill:#fff;"/><path d="M25.19,6.39s.09.06.14.1c-.05-.04-.09-.07-.14-.1Z" style="fill:#fff;"/><path d="M24.8,6.14s.09.05.14.08c-.05-.03-.09-.06-.14-.08Z" style="fill:#fff;"/><path d="M21.82,6.53c.06-.05.11-.1.17-.14-.06.05-.11.09-.17.14Z" style="fill:#fff;"/><path d="M21.24,7.06c.08-.08.16-.16.25-.23-.08.08-.16.15-.25.23Z" style="fill:#fff;"/><path d="M21.54,6.78c.07-.06.13-.12.2-.18-.07.06-.13.12-.2.18Z" style="fill:#fff;"/><path d="M20.64,7.59c.08-.06.15-.12.22-.19-.07.06-.15.13-.22.19Z" style="fill:#fff;"/><path d="M22.61,5.96c.06-.03.12-.06.18-.08-.06.02-.12.05-.18.08Z" style="fill:#fff;"/><path d="M20.95,7.33c.1-.09.2-.18.29-.27-.1.09-.19.18-.29.27Z" style="fill:#fff;"/><path d="M20.32,7.83c.07-.05.14-.1.21-.15-.07.05-.14.1-.21.15Z" style="fill:#fff;"/><path d="M19.58,8.22c.09-.03.18-.07.26-.11-.08.04-.17.08-.26.11Z" style="fill:#fff;"/><path d="M19.97,8.04c.08-.04.15-.08.22-.13-.07.05-.15.09-.22.13Z" style="fill:#fff;"/><path d="M19.46,8.26s-.04,0-.06.01c0,0,0,0,0,0,.02,0,.03-.01.05-.02Z" style="fill:#fff;"/><path d="M22.08,6.31c.05-.04.11-.08.16-.12-.05.04-.11.08-.16.12Z" style="fill:#fff;"/><path d="M22.34,6.12c.05-.04.11-.07.17-.1-.06.03-.11.06-.17.1Z" style="fill:#fff;"/><path d="M13.87,10.42c.22-.22.45-.42.67-.61-.22.19-.44.39-.67.61Z" style="fill:#fff;"/><path d="M16.68,8.46c.13-.05.26-.08.4-.11-.13.03-.26.06-.4.11Z" style="fill:#fff;"/><path d="M19,8.36c-.12.02-.25.02-.37.02.01,0,.03,0,.04,0,.12,0,.23-.01.34-.02Z" style="fill:#fff;"/><path d="M11.68,12.85c.23-.28.45-.54.68-.81-.23.26-.45.53-.68.81Z" style="fill:#fff;"/><path d="M12.44,11.94c.22-.25.44-.5.66-.74-.22.24-.44.48-.66.74Z" style="fill:#fff;"/><path d="M13.18,11.12c.23-.24.46-.48.68-.7-.23.22-.45.45-.68.7Z" style="fill:#fff;"/><path d="M21.04,11.17c-.15-.03-.31-.05-.47-.05-3.34,0-7.71,6.58-11.49,11.44-.34.44-.69.87-1.02,1.28.18.03.36.06.55.06h0c.17,0,.33-.03.5-.05.09-.01.19-.01.29-.03.17-.04.34-.1.5-.16.07-.02.14-.04.2-.06.19-.08.37-.18.54-.29.03-.02.07-.03.1-.05,1.01-.68,1.67-1.83,1.68-3.13,0-.25.19-.47.44-.49,0,0,.02,0,.03,0,.06,0,.11.01.16.03,0,0,0,0,.01,0,.04.02.09.04.12.07,0,0,0,0,0,.01,0,0,.01,0,.01,0,.03.03.05.06.07.1.01.02.03.03.03.05.03.06.05.13.05.2,0,.02,0,.03,0,.05,0,.26.03.52.09.77.02.09.06.18.08.27.05.17.1.34.18.49.04.09.1.18.15.27.08.14.16.28.26.41.06.09.13.17.2.25.11.12.22.23.34.34.09.08.18.15.27.22.07.05.14.1.22.15.12.08.25.14.38.21.08.04.16.08.24.11.15.06.3.1.45.14.07.02.15.04.22.06.23.04.47.07.72.07,2.1,0,3.82-1.7,3.83-3.79,0-.22.15-.42.37-.46.03,0,.07-.01.1-.01.02,0,.03.01.05.01.05,0,.1.02.15.04.02.01.05.02.07.03.05.03.08.07.12.12,0,.01.02.02.03.03,0,0,0,0,0,0,0,0,0,0,0,.01.03.06.05.13.05.2,0,.03,0,.06,0,.09,0,.24.03.47.08.7.02.09.06.18.09.27.05.16.09.32.16.47.04.1.1.18.15.28.07.13.14.26.23.39.06.09.14.17.21.25.09.11.19.22.3.32.1.09.2.17.3.25.08.06.15.12.24.17.12.08.25.14.38.2.08.04.16.09.25.12.15.06.3.1.46.14.08.02.15.05.23.06.24.05.48.07.74.07,2.1,0,3.81-1.7,3.81-3.8,0-.07.01-.13.04-.18,0-.01.01-.02.02-.03-2.55-2.83-5.32-6.21-7.46-8.69-.14.02-.28.03-.43.03-.21,0-.43-.02-.67-.07Z" style="fill:#fff;"/><path d="M15.33,9.19c.2-.14.4-.27.6-.38-.2.11-.4.24-.6.38Z" style="fill:#fff;"/><path d="M17.66,8.28c.13,0,.27.01.4.04-.13-.03-.26-.04-.4-.04Z" style="fill:#fff;"/><path d="M16.03,8.75c.2-.11.41-.21.6-.28-.2.07-.4.17-.6.28Z" style="fill:#fff;"/><path d="M5.09,21.2l.02-.02.09-.1.03-.03s.07-.08.1-.11c-.03.04-.07.08-.1.11l-.03.03-.09.1-.02.02-.05.06s0,0,0,0l.05-.06Z" style="fill:#fff;"/><path d="M17.21,8.32c.11-.02.22-.03.33-.03-.11,0-.22.01-.33.03Z" style="fill:#fff;"/><path d="M14.6,9.75c.21-.18.42-.34.62-.49-.21.15-.41.31-.62.49Z" style="fill:#fff;"/><path d="M5.78,20.4c.06-.07.12-.14.18-.21-.06.07-.12.14-.18.21Z" style="fill:#fff;"/><path d="M19.41,8.28s0,0,0,0c-.11.03-.23.06-.35.08.12-.02.24-.05.35-.08Z" style="fill:#fff;"/><path d="M30.81,21.66c.09.19.19.38.31.56.03.04.06.07.08.11.1.14.21.28.33.4.04.05.09.09.14.14.13.12.27.24.42.34.03.02.06.05.09.07.18.12.37.22.57.31.05.02.11.04.16.06.16.06.32.11.49.15,0,0,.01,0,.02,0-.56-.66-.92-1.5-.93-2.4,0-.26-.21-.47-.47-.47h-.04c-.26,0-.47.21-.47.47,0,.17-.03.33-.06.49-.29-.3-.59-.61-.89-.94.02.08.05.15.07.22.05.16.09.32.16.47Z" style="fill:#fff;"/><path d="M7.77,17.9c1.26-1.65,2.57-3.43,3.87-5.01-1.3,1.58-2.62,3.37-3.87,5.01Z" style="fill:#fff;"/><path d="M7.19,18.66c.09-.12.19-.24.28-.37-.09.12-.19.25-.28.37Z" style="fill:#fff;"/><path d="M6.47,19.56c.07-.09.15-.19.22-.28-.08.09-.15.19-.22.28Z" style="fill:#fff;"/><path d="M37.22,22.39s.03-.05.05-.07c-.08.11-.17.21-.26.31.05-.05.1-.1.15-.15.02-.03.04-.06.06-.09Z" style="fill:#fff;"/><path d="M36.72,22.93s.05-.06.08-.08c-.1.09-.21.18-.31.26.05-.04.11-.08.16-.12.02-.02.05-.04.07-.06Z" style="fill:#fff;"/><path d="M29.7,19.77s.03-.02.04-.03c-.02.01-.04.02-.06.04,0,0,0,0,0,0,0,0,0,0,.01,0Z" style="fill:#fff;"/><path d="M37.59,21.82s.03-.07.05-.11c-.06.12-.13.24-.2.35.02-.03.05-.06.07-.1.03-.05.06-.1.08-.15Z" style="fill:#fff;"/><path d="M37.85,21.25c.02-.06.03-.13.05-.2-.04.13-.08.26-.13.38,0-.02.02-.04.03-.06.02-.04.04-.09.05-.13Z" style="fill:#fff;"/><path d="M29.89,19.68s.02,0,.02,0c-.03,0-.05,0-.08.02,0,0,0,0,0,0,.02,0,.03,0,.05-.01Z" style="fill:#fff;"/><path d="M30.36,19.84s-.06-.06-.09-.09c0,0,0,0,0,0,.03.02.06.05.09.08Z" style="fill:#fff;"/><path d="M30.22,19.71s0,0,0,0c-.06-.03-.12-.05-.19-.06,0,0,.02,0,.03,0,.06,0,.11.02.16.05Z" style="fill:#fff;"/><path d="M34.97,23.84c-.23.05-.46.08-.69.08.22,0,.44-.02.65-.07.01,0,.02,0,.04-.01Z" style="fill:#fff;"/><path d="M35.62,23.63c-.14.06-.28.1-.42.14.11-.03.23-.06.34-.1.03-.01.06-.03.09-.04Z" style="fill:#fff;"/><path d="M36.23,23.3s.01-.01.02-.01c-.12.08-.24.14-.37.21.07-.04.14-.07.21-.11.05-.03.1-.06.14-.09Z" style="fill:#fff;"/><path d="M34.25,23.91s.02,0,.03,0c-.23,0-.46-.03-.69-.07,0,0,0,0,0,0,.21.04.42.06.64.06Z" style="fill:#fff;"/><path d="M38,20.64h0s0-.01-.01-.02c0,.05,0,.09-.02.14,0-.04.02-.08.03-.12Z" style="fill:#fff;"/><path d="M29.61,19.88s-.01.01-.01.02c0,0,0,0,0,0,0,0,0-.01.01-.02Z" style="fill:#fff;"/><path d="M21.65,19.71s0,0,0,0c-.05-.02-.09-.04-.15-.04,0,0,0,0,0,0,.05,0,.09.02.13.04Z" style="fill:#fff;"/><path d="M15.54,23.54s0,0,0,0c-.13-.06-.26-.13-.38-.21,0,0,0,0,0,0,.12.07.25.14.37.2Z" style="fill:#fff;"/><polygon points="21.87 19.91 21.87 19.91 21.88 19.92 21.87 19.91" style="fill:#fff;"/><path d="M17.11,23.91s.04,0,.06,0c-.25,0-.48-.03-.72-.07,0,0,0,0,0,0,.21.04.43.06.65.07Z" style="fill:#fff;"/><path d="M16.22,23.78s0,0,.01,0c-.15-.04-.31-.08-.45-.14,0,0,0,0,0,0,.14.05.29.1.43.13Z" style="fill:#fff;"/><path d="M25.62,23.9s.08.01.11.01c-.25,0-.5-.03-.74-.07,0,0,0,0,0,0,.2.04.41.06.62.06Z" style="fill:#fff;"/><path d="M23.45,23.14c-.1-.08-.21-.16-.3-.25,0,0,0,0,0,0,.1.09.2.17.3.25,0,0,0,0,0,0Z" style="fill:#fff;"/><path d="M33.4,23.8s0,0,0,0c-.17-.04-.33-.09-.49-.15,0,0,0,0,.01,0,.15.06.31.11.47.14Z" style="fill:#fff;"/><path d="M31.12,22.22c-.12-.18-.22-.36-.31-.56,0,0,0,0,0,0,.09.19.19.38.31.56,0,0,0,0,0,0Z" style="fill:#fff;"/><path d="M32.08,23.21s0,0,0,0c-.15-.1-.29-.22-.42-.34,0,0,0,0,0,0,.13.12.26.23.41.33Z" style="fill:#fff;"/><path d="M24.74,23.77s.02,0,.03,0c-.16-.04-.31-.08-.46-.14,0,0,0,0,0,0,.14.06.28.09.43.13Z" style="fill:#fff;"/><path d="M31.53,22.73s0,0,0,0c-.12-.13-.23-.26-.33-.4,0,0,0,0,0,0,.1.14.21.27.32.39Z" style="fill:#fff;"/><path d="M24.05,23.51s0,0,0,0c-.13-.06-.26-.13-.38-.2,0,0,0,0,0,0,.12.07.24.14.37.2Z" style="fill:#fff;"/><path d="M32.75,23.59s0,0,0,0c-.2-.09-.39-.19-.57-.31,0,0,0,0,0,0,.18.12.37.22.57.31Z" style="fill:#fff;"/><path d="M29.6,19.9s0,0,0,0c0,.01-.02.02-.02.03,0-.01.02-.02.02-.03Z" style="fill:#fff;"/><polygon points="5.02 21.29 5.02 21.29 5.02 21.28 5.02 21.29" style="fill:#fff;"/><polygon points="5.02 21.28 5.02 21.28 5.02 21.28 5.02 21.27 5.03 21.26 5.03 21.26 5.02 21.27 5.02 21.27 5.02 21.28 5.02 21.28" style="fill:#fff;"/><polygon points="13.07 19.69 13.07 19.69 13.06 19.68 13.06 19.68 13.07 19.69" style="fill:#fff;"/><path d="M8.61,23.91c-.19,0-.37-.03-.55-.06,0,0,0,0,0,0,.07.01.13.03.2.03.09.01.19.02.29.02.02,0,.05,0,.07,0Z" style="fill:#fff;"/><path d="M13.2,19.77s0,0,0,0c0,0,.01,0,.01,0,0,0-.01,0-.01,0Z" style="fill:#fff;"/><path d="M21.84,19.86s0,0,0,0c-.03-.05-.07-.09-.12-.12,0,0,0,0,0,0,.04.03.08.07.11.12Z" style="fill:#fff;"/><path d="M24.44,5.95s0,0,0,0c-.07-.03-.15-.06-.22-.08,0,0,0,0,0,0,.07.02.14.05.21.08Z" style="fill:#f5f2f7;"/><path d="M24.79,6.13s0,0,0,0c-.08-.04-.15-.08-.23-.12,0,0,0,0,0,0,.07.04.15.07.22.12Z" style="fill:#f5f2f7;"/><path d="M24.1,5.83s0,0,0,0c-.08-.02-.15-.04-.22-.05,0,0,0,0,0,0,.07.01.14.03.22.05Z" style="fill:#f5f2f7;"/><path d="M23.79,5.76c-.1-.01-.2-.02-.29-.02h0c.09,0,.19,0,.29.02t0,0Z" style="fill:#f5f2f7;"/><path d="M25.18,6.38s0,0,0,0c-.09-.06-.17-.12-.25-.17,0,0,0,0,0,0,.08.05.16.1.24.16Z" style="fill:#f5f2f7;"/><path d="M26.19,7.23c.15.14.31.3.47.48l.13.14c.15.16.31.33.48.52-.17-.18-.33-.36-.48-.52l-.13-.14c-.17-.18-.33-.34-.47-.48-.16-.15-.3-.28-.45-.41,0,0,0,0,0,0,.14.12.29.26.45.41Z" style="fill:#f5f2f7;"/><path d="M25.61,6.71s.01,0,.02.01c-.1-.08-.2-.17-.3-.24,0,0,0,0,0,0,.09.07.19.15.28.22Z" style="fill:#f5f2f7;"/><path d="M23.89,5.78s0,0,0,0c-.03,0-.06-.01-.09-.02t0,0s.06.01.09.02Z" style="fill:#f5f2f7;"/><path d="M24.23,5.87s0,0,0,0c-.04-.01-.08-.03-.12-.04,0,0,0,0,0,0,.04.01.08.03.12.04Z" style="fill:#f5f2f7;"/><path d="M24.94,6.22s0,0,0,0c-.05-.03-.09-.06-.14-.08,0,0,0,0,0,0,.05.03.1.06.15.09Z" style="fill:#f5f2f7;"/><path d="M25.33,6.49s0,0,0,0c-.05-.04-.09-.07-.14-.1,0,0,0,0,0,0,.05.03.1.07.15.11Z" style="fill:#f5f2f7;"/><path d="M25.75,6.82s0,0,0,0c-.04-.03-.08-.06-.12-.09,0,0-.01,0-.02-.01.05.04.09.07.14.11Z" style="fill:#f5f2f7;"/><path d="M24.57,6.02s0,0,0,0c-.04-.02-.09-.04-.13-.06,0,0,0,0,0,0,.05.02.09.04.14.07Z" style="fill:#f5f2f7;"/><path d="M24.1,5.83c-.07-.02-.15-.04-.22-.05.07.01.14.03.22.05Z" style="fill:#f5f2f7;"/><path d="M21.99,6.38s.06-.05.09-.07c-.03.02-.06.05-.09.07Z" style="fill:#f5f2f7;"/><path d="M22.24,6.19s.07-.05.1-.07c-.03.02-.07.04-.1.07Z" style="fill:#f5f2f7;"/><path d="M21.49,6.83s.04-.03.05-.05c-.02.02-.04.03-.05.05Z" style="fill:#f5f2f7;"/><path d="M23.51,5.73s0,0,0,0c.09,0,.19,0,.29.02-.1-.01-.19-.02-.29-.02Z" style="fill:#f5f2f7;"/><path d="M20.53,7.67s.08-.06.11-.09c-.04.03-.08.06-.11.09Z" style="fill:#f5f2f7;"/><path d="M21.74,6.6s.06-.05.08-.07c-.03.02-.06.05-.08.07Z" style="fill:#f5f2f7;"/><path d="M20.87,7.4s.05-.05.08-.07c-.03.02-.05.05-.08.07Z" style="fill:#f5f2f7;"/><path d="M25.18,6.38c-.08-.06-.16-.11-.24-.16.08.05.16.1.24.16Z" style="fill:#f5f2f7;"/><path d="M25.61,6.71c-.1-.08-.19-.16-.28-.22.09.07.19.15.28.22Z" style="fill:#f5f2f7;"/><path d="M24.79,6.13c-.07-.04-.15-.08-.22-.12.07.04.15.07.22.12Z" style="fill:#f5f2f7;"/><path d="M22.51,6.02s.07-.04.1-.06c-.04.02-.07.04-.1.06Z" style="fill:#f5f2f7;"/><path d="M23.1,5.78s.06-.02.09-.02c-.03,0-.06.01-.09.02Z" style="fill:#f5f2f7;"/><path d="M24.44,5.95c-.07-.03-.14-.06-.21-.08.07.02.14.05.21.08Z" style="fill:#f5f2f7;"/><path d="M22.79,5.88s.07-.03.1-.04c-.03.01-.07.03-.1.04Z" style="fill:#f5f2f7;"/><path d="M26.19,7.23c-.15-.15-.3-.28-.45-.41.14.12.29.26.45.41Z" style="fill:#f5f2f7;"/><path d="M20.19,7.91s.09-.06.13-.08c-.04.03-.08.06-.13.08Z" style="fill:#f5f2f7;"/><path d="M19.84,8.11s.09-.05.13-.07c-.04.02-.09.05-.13.07Z" style="fill:#f5f2f7;"/><path d="M19.46,8.26s.08-.03.11-.04c-.04.01-.07.03-.11.04Z" style="fill:#f5f2f7;"/><path d="M12.36,12.04s.06-.07.09-.1c-.03.03-.06.07-.09.1Z" style="fill:#f5f2f7;"/><path d="M11.64,12.89s.02-.03.03-.04c-.01.01-.02.03-.03.04Z" style="fill:#f5f2f7;"/><path d="M7.47,18.29c.1-.13.2-.26.3-.39-.1.13-.2.26-.3.39Z" style="fill:#f5f2f7;"/><path d="M13.11,11.2s.05-.05.08-.08c-.03.03-.05.05-.08.08Z" style="fill:#f5f2f7;"/><path d="M13.87,10.43s0,0,0,0c0,0,0,0,0,0Z" style="fill:#f5f2f7;"/><path d="M14.54,9.81s.04-.04.07-.06c-.02.02-.04.04-.07.06Z" style="fill:#f5f2f7;"/><path d="M15.23,9.26s.07-.05.1-.08c-.03.02-.07.05-.1.08Z" style="fill:#f5f2f7;"/><path d="M6.7,19.28c.16-.21.33-.41.49-.63-.17.21-.33.42-.49.63Z" style="fill:#f5f2f7;"/><path d="M19,8.36s.04,0,.06,0c-.02,0-.04,0-.06,0Z" style="fill:#f5f2f7;"/><path d="M17.08,8.35s.09-.02.13-.02c-.04,0-.09.01-.13.02Z" style="fill:#f5f2f7;"/><path d="M17.63,8.28s-.05,0-.08,0c.04,0,.08,0,.11,0-.01,0-.02,0-.03,0Z" style="fill:#f5f2f7;"/><path d="M5.96,20.19c.17-.2.34-.41.51-.62-.17.21-.34.42-.51.62Z" style="fill:#f5f2f7;"/><path d="M5.33,20.93c.15-.17.3-.35.45-.53-.15.18-.3.36-.45.53Z" style="fill:#f5f2f7;"/><path d="M16.64,8.47s0,0,0,0c.02,0,.04-.01.05-.02-.02,0-.03,0-.04.01Z" style="fill:#f5f2f7;"/><path d="M18.63,8.38c-.18,0-.37-.02-.57-.06.2.04.39.06.57.06Z" style="fill:#f5f2f7;"/><path d="M15.93,8.8s.06-.03.09-.05c-.03.02-.06.03-.09.05Z" style="fill:#f5f2f7;"/><path d="M19.67,8.52c.15.14.31.3.47.48.04.04.09.09.13.14.15.16.31.33.48.52h0c.42.46.88.99,1.38,1.56.99-.15,1.71-.78,2.39-1.42.77-.72,1.49-1.45,2.48-1.45.09,0,.18,0,.28.02-.17-.18-.33-.36-.48-.52l-.13-.14c-.17-.18-.33-.34-.47-.48-.15-.15-.3-.28-.45-.41-.05-.04-.09-.07-.14-.11-.1-.08-.19-.16-.28-.22-.05-.04-.1-.07-.15-.11-.08-.06-.16-.11-.24-.16-.05-.03-.1-.06-.15-.09-.07-.04-.15-.08-.22-.12-.05-.02-.09-.05-.14-.07-.07-.03-.14-.06-.21-.08-.04-.01-.08-.03-.12-.04-.07-.02-.15-.04-.22-.05-.03,0-.06-.02-.09-.02-.1-.01-.2-.02-.29-.02-.11,0-.21.01-.31.03-.03,0-.06.01-.09.02-.07.02-.14.03-.21.06-.03.01-.07.03-.1.04-.06.02-.12.05-.18.08-.04.02-.07.04-.1.06-.06.03-.11.06-.17.1-.03.02-.07.04-.1.07-.05.04-.11.08-.16.12-.03.02-.06.05-.09.07-.06.05-.11.09-.17.14-.03.02-.06.05-.08.07-.07.06-.13.12-.2.18-.02.02-.04.03-.05.05-.08.08-.16.15-.25.23-.1.09-.19.18-.29.27-.03.02-.05.05-.08.07-.07.06-.15.13-.22.19-.04.03-.08.06-.11.09-.07.05-.14.1-.21.15-.04.03-.08.06-.13.08-.07.05-.15.09-.22.13-.04.02-.09.05-.13.07-.08.04-.17.08-.26.11-.04.01-.07.03-.11.04-.02,0-.03.01-.05.02.09.08.17.15.26.24Z" style="fill:#f5f2f7;"/><path d="M5.2,21.08l-.09.1-.02.02-.05.06c.02.07.04.14.06.2.02.06.04.11.07.17,0,.01.01.03.02.04.08.17.17.33.27.49.01.02.02.04.03.05.03.04.06.07.08.11.1.14.2.26.32.39.03.04.07.07.1.11.02.02.04.04.06.06.12.11.24.22.38.31.05.04.11.08.17.12.15.1.31.18.47.26.06.03.11.05.17.08.18.07.38.14.57.18.06.01.12.02.18.03.03,0,.05,0,.08,0,.33-.41.68-.84,1.02-1.28,3.79-4.86,8.15-11.44,11.49-11.44.16,0,.32.01.47.05.23.05.46.07.67.07.15,0,.29-.01.43-.03-.5-.57-.96-1.11-1.38-1.56h0c-.17-.18-.33-.36-.48-.52-.04-.05-.09-.09-.13-.14-.17-.18-.33-.34-.47-.48-.09-.09-.17-.16-.26-.24-.11.03-.23.06-.35.08-.02,0-.04,0-.06,0-.11.01-.22.02-.34.02-.01,0-.03,0-.04,0-.18,0-.37-.02-.57-.06-.13-.03-.26-.04-.4-.04-.04,0-.08,0-.11,0-.11,0-.22.01-.33.03-.04,0-.09.01-.13.02-.13.03-.26.06-.4.11-.02,0-.04.01-.05.02-.2.07-.4.17-.6.28-.03.02-.06.03-.09.05-.2.11-.4.24-.6.38-.03.02-.07.05-.1.08-.21.15-.41.31-.62.49-.02.02-.04.04-.07.06-.22.19-.44.39-.67.61,0,0,0,0,0,0-.23.22-.45.45-.68.7-.03.03-.05.05-.08.08-.22.24-.44.48-.66.74-.03.03-.06.07-.09.1-.23.26-.45.53-.68.81-.01.01-.02.03-.03.04-1.3,1.58-2.62,3.37-3.87,5.01-.1.13-.2.26-.3.39-.09.12-.19.25-.28.37-.17.21-.33.42-.49.63-.08.09-.15.19-.22.28-.17.21-.34.42-.51.62-.06.07-.12.14-.18.21-.15.18-.3.36-.45.53-.03.04-.07.08-.1.11l-.03.03Z" style="fill:#f5f2f7;"/><path d="M5.09,21.46c-.02-.07-.04-.13-.06-.2h-.01s0,.02,0,.02c0,0,0,0,0,0,0,0,0,0,0,0,0,0,0,0,0,0,.02.06.05.12.07.18Z" style="fill:#f5f2f7;"/><path d="M5.18,21.67s.02.06.03.09c.04.09.1.17.14.26.03.05.06.1.09.15-.1-.16-.19-.32-.27-.49Z" style="fill:#f5f2f7;"/><path d="M6.04,22.87s.08.08.13.12c.07.06.13.11.2.16.02.01.03.02.05.03-.13-.1-.26-.2-.38-.31Z" style="fill:#f5f2f7;"/><path d="M6.58,23.3s0,0,0,0c.07.05.14.09.22.13.08.04.16.08.24.12,0,0,0,0,0,0-.16-.08-.32-.16-.47-.26Z" style="fill:#f5f2f7;"/><path d="M7.23,23.64s.03.02.05.02c.09.04.19.06.28.09.07.02.15.05.22.06,0,0,.01,0,.02,0-.2-.04-.39-.11-.57-.18Z" style="fill:#f5f2f7;"/><path d="M8.06,23.86s-.05,0-.08,0c.03,0,.05,0,.08.01,0,0,0,0,0,0Z" style="fill:#f5f2f7;"/><path d="M5.55,22.32s.05.07.08.11c.05.07.1.13.16.19.03.03.05.05.08.08-.11-.12-.22-.25-.32-.39Z" style="fill:#f5f2f7;"/><polygon points="30.37 19.84 30.36 19.84 30.37 19.84 30.37 19.84" style="fill:#00adc6;"/><path d="M30.47,20.14c0,.06.02.12.02.18,0-.06-.02-.11-.02-.17,0-.09-.03-.18-.08-.25h0c.04.08.08.16.08.25Z" style="fill:#00adc6;"/><path d="M30.58,20.97s0,0,0,0c0-.01-.01-.03-.01-.04,0,0,0,0,0,0,0,.01,0,.03.01.04Z" style="fill:#00adc6;"/><path d="M7.05,23.56s0,0,0,0c.03.02.07.04.1.05.02,0,.04.01.06.02-.06-.02-.12-.05-.17-.08Z" style="fill:#00adc6;"/><path d="M14.13,22.38s0,0,0,0c.06.08.13.16.2.24,0,0,0,0,0,0-.07-.08-.14-.16-.2-.25Z" style="fill:#00adc6;"/><path d="M13.72,21.7s0,0,0,0c.04.09.1.18.15.27,0,0,0,0,0,0-.05-.09-.11-.18-.15-.27Z" style="fill:#00adc6;"/><path d="M5.87,22.71s.02.03.04.04c.02.02.05.04.07.06-.04-.03-.07-.07-.1-.11Z" style="fill:#00adc6;"/><path d="M14.94,23.18c-.1-.07-.18-.15-.27-.22h0c.09.08.18.15.27.22,0,0,0,0,0,0Z" style="fill:#00adc6;"/><path d="M22.64,22.32s0,0,0,0c.06.09.14.17.21.25,0,0,0,0,0,0-.07-.08-.14-.16-.21-.25Z" style="fill:#00adc6;"/><path d="M5.47,22.21s.01.02.02.04c.02.03.04.05.06.07-.03-.04-.06-.07-.08-.11Z" style="fill:#00adc6;"/><path d="M22.02,20.91s0,0,0,0c.02.09.05.16.08.25,0,0,0,.01,0,.02-.03-.09-.06-.18-.09-.27Z" style="fill:#00adc6;"/><path d="M21.93,20.12c0-.07-.02-.14-.05-.2.03.06.05.13.05.2,0,.03,0,.06.01.09,0-.03,0-.06,0-.09Z" style="fill:#00adc6;"/><path d="M5.09,21.46s0,.01,0,.02c.02.05.04.1.06.15-.02-.05-.04-.11-.07-.17Z" style="fill:#00adc6;"/><path d="M30.64,21.17s0,.01,0,.02c-.02-.07-.05-.15-.07-.22,0,0,0,0,0,0,.02.07.04.13.06.2Z" style="fill:#00adc6;"/><path d="M13.36,20.12c0-.07-.02-.14-.05-.2,0,0,0,0,0,0,.03.06.04.12.04.19,0,.02,0,.04,0,.05,0-.02,0-.03,0-.05Z" style="fill:#00adc6;"/><path d="M13.46,20.94s0,0,0,0c.02.09.05.17.08.25,0,0,0,0,0,.01-.03-.09-.06-.18-.08-.27Z" style="fill:#00adc6;"/><path d="M13.22,19.78s.04.06.06.09c0,0,0,0,0,0-.02-.03-.04-.07-.07-.1Z" style="fill:#00adc6;"/><path d="M22.26,21.65s0,0,0,0c.04.09.1.18.15.27,0,0,0,0,0,0-.05-.09-.11-.18-.15-.28Z" style="fill:#00adc6;"/><path d="M33.6,23.85c.21.04.42.06.64.06-.22,0-.43-.03-.64-.06Z" style="fill:#00adc6;"/><path d="M30.4,19.89c.04.07.08.16.08.25,0-.09-.03-.17-.08-.25Z" style="fill:#00adc6;"/><path d="M30.56,20.93s0,.02,0,.03c0,0,0,0,0,0,0-.01,0-.03-.01-.04Z" style="fill:#00adc6;"/><path d="M29.69,19.78s0,0,.01,0c0,0-.01,0-.01,0Z" style="fill:#00adc6;"/><path d="M30.28,19.76s.06.05.09.09c0,0,0,0,0,0-.02-.03-.05-.06-.09-.08Z" style="fill:#00adc6;"/><path d="M30.06,19.66c.06,0,.11.02.16.05-.05-.03-.1-.04-.16-.05Z" style="fill:#00adc6;"/><path d="M29.84,19.69s.03,0,.05-.01c-.02,0-.03,0-.05.01Z" style="fill:#00adc6;"/><path d="M13.07,19.69s0,0,0,0c0,0,0,0,0,0Z" style="fill:#00adc6;"/><path d="M7.05,23.56s0,0,.01,0c0,0,0,0,0,0,0,0,0,0,0,0Z" style="fill:#00adc6;"/><path d="M17.11,23.91c-.22,0-.44-.03-.65-.07.21.04.43.06.65.07Z" style="fill:#00adc6;"/><path d="M13.2,19.77s.06.06.08.1c-.02-.03-.04-.07-.06-.09,0,0-.01,0-.01,0Z" style="fill:#00adc6;"/><path d="M7.16,23.62s.07.03.11.04c-.02,0-.03-.01-.05-.02-.02,0-.04-.01-.06-.02Z" style="fill:#00adc6;"/><path d="M8.25,23.89s.02,0,.03,0c.08,0,.17.01.26.01-.1,0-.19,0-.29-.02Z" style="fill:#00adc6;"/><path d="M21.65,19.71s-.08-.03-.13-.04c.05,0,.09.02.13.04Z" style="fill:#00adc6;"/><path d="M21.87,19.91c.03.06.05.13.05.21,0-.07-.02-.14-.05-.2,0,0,0,0,0,0Z" style="fill:#00adc6;"/><path d="M5.79,22.62s.08.09.12.13c-.01-.01-.02-.03-.04-.04-.03-.03-.05-.05-.08-.08Z" style="fill:#00adc6;"/><path d="M5.49,22.25c.04.06.09.12.14.18-.03-.04-.05-.07-.08-.11-.02-.03-.04-.05-.06-.07Z" style="fill:#00adc6;"/><path d="M16.22,23.78c-.15-.04-.29-.08-.43-.13.14.06.29.1.43.13Z" style="fill:#00adc6;"/><path d="M30.81,21.66s0,.03.02.05c.08.18.18.34.29.51-.12-.18-.22-.36-.31-.56Z" style="fill:#00adc6;"/><path d="M14.67,22.96s.08.09.13.13c.04.03.09.06.14.09-.09-.07-.18-.15-.27-.22Z" style="fill:#00adc6;"/><path d="M15.54,23.54c-.13-.06-.25-.13-.37-.2.12.08.25.14.37.2Z" style="fill:#00adc6;"/><path d="M21.73,19.75s.08.07.11.12c-.03-.04-.07-.08-.11-.12Z" style="fill:#00adc6;"/><path d="M25.62,23.9c-.21,0-.42-.02-.62-.06.2.04.41.06.62.06Z" style="fill:#00adc6;"/><path d="M23.15,22.89s.05.06.08.09c.07.06.15.11.22.16-.1-.08-.21-.16-.3-.25Z" style="fill:#00adc6;"/><path d="M7.78,23.81c-.08-.02-.15-.04-.22-.06.07.02.15.05.22.06Z" style="fill:#00adc6;"/><path d="M13.36,20.12c0-.07-.02-.13-.04-.19.03.06.04.12.04.19Z" style="fill:#00adc6;"/><path d="M6.8,23.43c-.08-.04-.15-.09-.22-.13.07.05.14.09.22.13Z" style="fill:#00adc6;"/><path d="M5.36,22.01c-.05-.09-.1-.17-.14-.26.04.09.09.17.14.26Z" style="fill:#00adc6;"/><path d="M13.54,21.2c-.03-.09-.06-.17-.08-.25.02.09.05.17.08.25Z" style="fill:#00adc6;"/><path d="M6.37,23.15c-.07-.05-.14-.11-.2-.16.07.06.13.11.2.16Z" style="fill:#00adc6;"/><path d="M31.53,22.73c-.12-.12-.23-.25-.32-.39.1.14.21.27.32.39Z" style="fill:#00adc6;"/><path d="M32.08,23.21c-.14-.1-.28-.21-.41-.33.13.12.26.23.41.33Z" style="fill:#00adc6;"/><path d="M32.75,23.59c-.2-.09-.39-.19-.57-.31.18.12.37.22.57.31Z" style="fill:#00adc6;"/><path d="M5.02,21.28s0,0,0,0c.02.07.05.13.08.19,0,0,0-.01,0-.02-.02-.06-.05-.12-.07-.18Z" style="fill:#00adc6;"/><path d="M22.85,22.57c-.07-.08-.14-.16-.21-.25.06.09.14.17.21.25Z" style="fill:#00adc6;"/><path d="M33.4,23.8c-.16-.04-.32-.09-.47-.14.15.06.31.11.47.14Z" style="fill:#00adc6;"/><path d="M14.33,22.62c-.07-.08-.14-.16-.2-.24.06.08.13.16.2.24Z" style="fill:#00adc6;"/><path d="M13.87,21.97c-.05-.09-.1-.17-.15-.27.04.09.1.18.15.27Z" style="fill:#00adc6;"/><path d="M22.41,21.92c-.05-.09-.1-.17-.15-.27.04.09.1.18.15.27Z" style="fill:#00adc6;"/><path d="M22.09,21.16c-.02-.08-.06-.16-.08-.25.02.09.05.16.08.25Z" style="fill:#00adc6;"/><path d="M30.57,20.96c.02.07.05.14.07.21-.02-.07-.05-.13-.06-.2,0,0,0,0,0,0Z" style="fill:#00adc6;"/><path d="M24.74,23.77c-.15-.04-.29-.08-.43-.13.14.06.28.09.43.13Z" style="fill:#00adc6;"/><path d="M24.05,23.51c-.12-.06-.25-.12-.37-.2.12.07.24.14.37.2Z" style="fill:#00adc6;"/><path d="M16.45,23.84s0,0,0,0c-.08-.01-.15-.04-.22-.06,0,0,0,0,.01,0,.07.02.13.04.2.05Z" style="fill:#00adc6;"/><path d="M15.16,23.33s0,0,0,0c-.07-.05-.15-.1-.22-.15,0,0,0,0,0,0,.07.05.14.1.22.15Z" style="fill:#00adc6;"/><path d="M15.78,23.64s0,0,0,0c-.08-.03-.16-.07-.24-.11,0,0,0,0,0,0,.08.04.15.07.23.1Z" style="fill:#00adc6;"/><path d="M21.46,19.66s.03,0,.04.01c0,0,0,0,0,0-.02,0-.03-.01-.05-.01-.03,0-.07,0-.1.01,0,0,0,0,.01,0,.03,0,.06,0,.09,0Z" style="fill:#00adc6;"/><path d="M21.72,19.74s0,0,0,0c-.02-.02-.04-.02-.07-.03,0,0,0,0,0,0,.02,0,.04.02.06.03Z" style="fill:#00adc6;"/><path d="M21.87,19.9s-.02-.02-.03-.03c0,0,0,0,0,0,0,.01.02.02.03.03Z" style="fill:#00adc6;"/><polygon points="21.51 19.67 21.5 19.67 21.51 19.67 21.52 19.67 21.51 19.67" style="fill:#00adc6;"/><polygon points="21.72 19.74 21.72 19.74 21.72 19.74 21.73 19.75 21.72 19.74" style="fill:#00adc6;"/><path d="M16.23,23.78s0,0-.01,0c0,0,0,0,.01,0,0,0,0,0,.01,0,0,0,0,0-.01,0Z" style="fill:#00adc6;"/><polygon points="15.54 23.54 15.54 23.54 15.54 23.54 15.55 23.54 15.54 23.54" style="fill:#00adc6;"/><polygon points="21.84 19.87 21.84 19.86 21.84 19.86 21.84 19.87 21.84 19.87" style="fill:#00adc6;"/><polygon points="15.78 23.64 15.78 23.64 15.78 23.65 15.78 23.65 15.78 23.64" style="fill:#00adc6;"/><polygon points="15.16 23.33 15.16 23.33 15.16 23.33 15.17 23.33 15.16 23.33" style="fill:#00adc6;"/><polygon points="21.65 19.71 21.65 19.71 21.65 19.71 21.66 19.71 21.65 19.71" style="fill:#00adc6;"/><path d="M21.36,19.66c-.21.05-.37.24-.37.46,0,2.09-1.73,3.79-3.83,3.79-.02,0-.04,0-.06,0,.02,0,.04,0,.06,0,2.1,0,3.82-1.7,3.83-3.79,0-.22.15-.42.36-.46,0,0,0,0,.01,0,0,0,0,0-.01,0Z" style="fill:#00adc6;"/><polygon points="16.45 23.84 16.45 23.84 16.45 23.84 16.46 23.84 16.45 23.84" style="fill:#00adc6;"/><polygon points="14.94 23.18 14.94 23.18 14.94 23.18 14.94 23.19 14.94 23.18" style="fill:#00adc6;"/><path d="M14.8,23.09s.09.06.14.09c0,0,0,0,0,0-.05-.03-.1-.06-.14-.09Z" style="fill:#00adc6;"/><path d="M21.73,19.75s0,0,0,0c.05.03.08.07.12.12,0,0,0,0,0,0-.03-.04-.07-.08-.11-.12Z" style="fill:#00adc6;"/><path d="M16.46,23.84s0,0,0,0c.23.04.47.07.72.07-.02,0-.04,0-.06,0-.22,0-.44-.03-.65-.07Z" style="fill:#00adc6;"/><path d="M21.52,19.67s0,0,0,0c.05,0,.1.02.15.04,0,0,0,0,0,0-.04-.02-.08-.03-.13-.04Z" style="fill:#00adc6;"/><path d="M15.78,23.65s0,0,0,0c.15.06.3.1.45.14,0,0,0,0-.01,0-.15-.04-.29-.08-.43-.13Z" style="fill:#00adc6;"/><path d="M15.17,23.33s0,0,0,0c.12.08.25.14.38.21,0,0,0,0,0,0-.13-.06-.25-.13-.37-.2Z" style="fill:#00adc6;"/><path d="M4.27,19.67c.06-.01.11,0,.17,0-.02,0-.04-.01-.07-.01-.03,0-.07,0-.1.01Z" style="fill:#00adc6;"/><path d="M4.84,20.12c0-.07-.02-.13-.04-.19.03.06.04.12.04.19Z" style="fill:#00adc6;"/><path d="M4.62,19.74s-.07-.04-.1-.05c.04.01.07.03.1.05Z" style="fill:#00adc6;"/><path d="M4.68,19.78s.06.06.08.1c-.02-.04-.05-.07-.08-.1Z" style="fill:#00adc6;"/><path d="M4.96,21.02c-.02-.07-.04-.14-.05-.2.01.07.03.14.05.2Z" style="fill:#00adc6;"/><path d="M39.02,20.12c0-.26-.21-.46-.47-.46h-.04c-.26,0-.47.21-.47.47,0,.17-.01.34-.04.51h0s0,0,0,0h0s.13.13.13.13c.15.15.29.29.43.43v.02c.28.36.45.8.46,1.28v.06h0s0,.02,0,.03c0,.1-.02.19-.03.29,0,.05,0,.1-.02.15-.03.15-.08.29-.13.42l-.03.05c-.08.12-.15.25-.23.37l-.08.13-.02.03c-.08.13-.15.25-.23.38-.22.37-.43.74-.65,1.11-.08.15-.16.29-.25.44h0c-.37.65-.72,1.31-1.08,1.96v8.39c3.28-3.27,5.48-7.6,6.07-12.44-1.77-.24-3.32-1.86-3.32-3.76Z" style="fill:#00adc6;"/><path d="M28.43,37.03h-.13c-.57.03-1.05.26-1.48.63-.21.18-.41.4-.6.65-.14.19-.28.4-.41.62h0c-.56.95-1.01,2.14-1.47,3.35,4.63-.67,8.78-2.81,11.94-5.96v-8.39c-2.53,4.67-4.86,9.1-7.84,9.1Z" style="fill:#00adc6;"/><path d="M15.45,41.41c-.22-.31-.47-.63-.74-.95-.03-.03-.05-.06-.08-.09-.27-.3-.57-.6-.9-.9-.05-.05-.1-.09-.15-.14-.19-.17-.4-.34-.62-.51-3.92-3.06-5.65-8.65-7.14-12.74l-.04-.12h0c-.04-.1-.07-.19-.11-.29l-.06-.15c-.07-.18-.14-.36-.21-.54l-.06-.14c-.07-.17-.13-.33-.2-.49-.05-.13-.1-.25-.16-.37h0s-.01-.03-.01-.03l-.02-.04-.03-.06-.11-.23c-.06-.13-.12-.25-.18-.37l-.02-.03h0c-.05-.18-.07-.37-.07-.57,0-.13.01-.25.03-.37,0,0,0,0,0,0,.02-.12.05-.23.09-.35.01-.04.04-.08.05-.12.03-.07.05-.14.09-.21.03-.05.06-.09.09-.14.03-.05.06-.11.1-.16,0,0,0,0,0,0h0c-.03-.08-.04-.17-.06-.26-.02-.07-.04-.13-.05-.2-.04-.22-.07-.45-.07-.69,0-.07-.02-.13-.04-.19,0-.02-.02-.03-.04-.05-.02-.04-.05-.07-.08-.1-.02-.02-.04-.03-.06-.04-.03-.02-.07-.04-.1-.05-.02,0-.05-.01-.08-.02-.05,0-.11-.02-.17,0-.22.05-.37.24-.37.46,0,1.97-1.52,3.59-3.45,3.77-.1,0-.19.06-.25.13,1.12,8.56,7.32,15.51,15.48,17.72-.06-.1-.13-.2-.2-.3-.01-.02-.02-.03-.03-.05Z" style="fill:#00adc6;"/><path d="M4.83,21.58s.06-.09.09-.14c-.03.05-.06.09-.09.14Z" style="fill:#00adc6;"/><polygon points="5.02 21.27 5.02 21.27 5.02 21.27 5.02 21.27" style="fill:#00adc6;"/><path d="M4.69,21.91s.04-.08.05-.12c-.02.04-.04.08-.05.12Z" style="fill:#00adc6;"/><path d="M4.6,22.26s0,0,0,0c0,0,0,0,0,0Z" style="fill:#00adc6;"/><polygon points="38 20.63 38 20.64 38 20.64 38 20.63" style="fill:#00adc6;"/><path d="M38.97,23.03h0s.01-.1.02-.15c0,0,0,0,0,.01,0,.05,0,.09-.02.14Z" style="fill:#00adc6;"/><path d="M14.63,40.37c-.27-.3-.57-.6-.9-.9.33.3.63.6.9.9Z" style="fill:#00adc6;"/><path d="M15.68,41.75h0c-.06-.1-.13-.2-.2-.3.07.1.13.2.2.3Z" style="fill:#00adc6;"/><path d="M12.97,38.82c.22.17.42.34.62.51-.19-.17-.4-.34-.62-.51Z" style="fill:#00adc6;"/><path d="M14.71,40.46c.28.32.52.63.74.95-.22-.31-.47-.63-.74-.95Z" style="fill:#00adc6;"/><path d="M38.97,23.03s0-.09.02-.14c0,.05,0,.09-.02.14Z" style="fill:#00adc6;"/><rect x="38" y="20.64" width="0" height="0" transform="translate(-5.22 19.17) rotate(-26.57)" style="fill:#00adc6;"/><path d="M4.6,22.26c.02-.12.05-.23.09-.35-.04.11-.07.23-.09.35Z" style="fill:#00adc6;"/><path d="M4.57,22.64c0-.13.01-.25.03-.37-.02.12-.03.25-.03.37Z" style="fill:#00adc6;"/><path d="M5.02,21.28c-.04.05-.07.11-.1.16.03-.05.06-.11.1-.16h0Z" style="fill:#00adc6;"/><path d="M4.74,21.79c.03-.07.05-.14.09-.21-.03.07-.06.14-.09.21Z" style="fill:#00adc6;"/><path d="M33.59,23.85s0,0,0,0c-.06-.01-.11-.02-.17-.04,0,0,0,0,0,0,.05.01.11.03.16.04Z" style="fill:#00adc6;"/><path d="M35.19,23.77c-.07.02-.13.05-.2.06.03,0,.07-.02.1-.03.03,0,.06-.02.09-.03Z" style="fill:#00adc6;"/><path d="M36.33,23.24c.06-.04.1-.09.15-.13-.08.06-.15.12-.24.18.02-.01.04-.02.05-.03,0,0,.02-.01.03-.02Z" style="fill:#00adc6;"/><path d="M37.75,21.5s.01-.04.02-.06c-.04.1-.08.19-.13.28.02-.04.05-.08.07-.12.01-.03.03-.07.04-.1Z" style="fill:#00adc6;"/><path d="M36.95,22.71s.04-.05.06-.08c-.07.07-.14.15-.21.22.01-.01.03-.02.05-.04.03-.03.07-.07.1-.1Z" style="fill:#00adc6;"/><path d="M35.88,23.5c-.07.04-.14.08-.22.11.03-.01.06-.03.09-.04.04-.02.08-.05.12-.07Z" style="fill:#00adc6;"/><path d="M37.97,20.8s0-.03,0-.04c-.02.1-.05.2-.08.3,0-.03.02-.07.03-.1.01-.05.03-.1.04-.16Z" style="fill:#00adc6;"/><path d="M37.38,22.18s.04-.07.06-.11c-.05.09-.11.17-.17.25.01-.02.03-.03.04-.05.02-.03.05-.06.07-.09Z" style="fill:#00adc6;"/><path d="M32.9,23.65s0,0,.01,0c-.05-.02-.11-.04-.16-.06,0,0,0,0,0,0,.05.02.1.04.15.06Z" style="fill:#00adc6;"/><path d="M31.19,22.32s0,0,0,0c-.03-.04-.06-.07-.08-.11,0,0,0,0,0,0,.02.04.05.07.08.1Z" style="fill:#00adc6;"/><path d="M31.67,22.86s0,0,0,0c-.05-.04-.09-.09-.14-.14,0,0,0,0,0,0,.04.04.08.09.13.13Z" style="fill:#00adc6;"/><path d="M33.41,23.81s0,0,.01,0c0,0,0,0,0,0,0,0-.01,0-.02,0,0,0,0,0,0,0Z" style="fill:#00adc6;"/><path d="M32.18,23.28s0,0,0,0c-.03-.02-.06-.05-.09-.07,0,0,0,0,.01,0,.03.02.05.04.07.06Z" style="fill:#00adc6;"/><path d="M36.65,22.99c-.05.04-.11.08-.16.12-.05.04-.1.09-.15.13.11-.08.21-.16.32-.25Z" style="fill:#00adc6;"/><path d="M36.3,23.26s-.04.02-.05.03c0,0-.01.01-.02.01.02-.02.05-.03.07-.05Z" style="fill:#00adc6;"/><path d="M37.93,20.96s-.02.07-.03.1c-.02.06-.03.13-.05.2.03-.1.06-.2.08-.29Z" style="fill:#00adc6;"/><path d="M37.71,21.59s-.05.08-.07.12c-.02.03-.03.07-.05.11.04-.08.08-.15.12-.23Z" style="fill:#00adc6;"/><path d="M37.31,22.27s-.03.03-.04.05c-.02.02-.03.05-.05.07.03-.04.06-.08.09-.12Z" style="fill:#00adc6;"/><path d="M37.51,21.97s-.05.06-.07.1c-.02.04-.04.07-.06.11.05-.07.09-.14.13-.21Z" style="fill:#00adc6;"/><path d="M36.09,23.39c-.07.04-.14.07-.21.11-.04.02-.08.05-.12.07.11-.05.22-.11.33-.18Z" style="fill:#00adc6;"/><path d="M37.16,22.48c-.04.05-.1.1-.15.15-.02.02-.04.05-.06.08.07-.07.14-.15.21-.23Z" style="fill:#00adc6;"/><path d="M35.45,23.71s.06-.03.08-.04c-.11.04-.22.07-.34.1-.03,0-.06.02-.09.03.12-.03.23-.06.35-.1Z" style="fill:#00adc6;"/><path d="M37.79,21.38s-.02.04-.03.06c0,.02-.01.04-.02.06.02-.04.03-.08.04-.11Z" style="fill:#00adc6;"/><path d="M36.85,22.81s-.03.02-.05.04c-.03.03-.05.06-.08.08.04-.04.08-.08.12-.12Z" style="fill:#00adc6;"/><polygon points="33.6 23.85 33.6 23.85 33.59 23.85 33.59 23.85 33.6 23.85" style="fill:#00adc6;"/><path d="M38,20.67v-.03s0,0,0,0c0,.04-.02.08-.03.12,0,.01,0,.03,0,.04,0-.05.02-.09.03-.13Z" style="fill:#00adc6;"/><path d="M37.35,25.96c.08-.15.16-.29.25-.44-.08.15-.17.29-.25.44h0Z" style="fill:#00adc6;"/><path d="M34.28,23.92c.22,0,.43-.02.64-.06,0,0,0,0,.01,0-.21.04-.43.07-.65.07-.01,0-.02,0-.03,0,.01,0,.02,0,.04,0Z" style="fill:#00adc6;"/><path d="M5.62,25.52c-.07-.18-.14-.36-.21-.54l-.06-.14c-.07-.17-.13-.33-.2-.49-.05-.13-.1-.25-.16-.37h0s-.01-.03-.01-.03l-.02-.04-.03-.06-.11-.23c-.06-.13-.12-.25-.18-.37l-.02-.03h0c-.05-.18-.07-.37-.07-.57,0-.51.17-.98.45-1.35,0,0,0,0,0,0-.04.05-.07.11-.1.16-.03.05-.06.09-.09.14-.03.07-.06.14-.09.21-.02.04-.04.08-.05.12-.04.11-.07.23-.09.35,0,0,0,0,0,0-.02.12-.03.25-.03.37,0,.19.02.38.07.56h0s.02.04.02.04c.06.12.12.25.18.37l.11.23.03.06.02.04v.03s.01,0,.01,0c.05.12.1.24.16.37.07.16.13.33.2.49l.06.14c.07.18.14.36.21.54l.06.15c.03.09.07.19.11.29h0c-.04-.1-.07-.19-.11-.29l-.06-.15Z" style="fill:#00adc6;"/><polygon points="32.18 23.28 32.18 23.28 32.18 23.28 32.18 23.28 32.18 23.28" style="fill:#00adc6;"/><polygon points="31.2 22.33 31.19 22.32 31.2 22.33 31.2 22.34 31.2 22.33" style="fill:#00adc6;"/><polygon points="31.12 22.22 31.11 22.22 31.12 22.22 31.12 22.22 31.12 22.22" style="fill:#00adc6;"/><polygon points="32.75 23.59 32.75 23.59 32.76 23.59 32.76 23.59 32.75 23.59" style="fill:#00adc6;"/><polygon points="31.67 22.87 31.67 22.86 31.67 22.87 31.67 22.87 31.67 22.87" style="fill:#00adc6;"/><path d="M32.09,23.21s0,0,0,0c0,0,0,0,.01.01,0,0,0,0,0,0,0,0,0,0-.01,0Z" style="fill:#00adc6;"/><polygon points="31.53 22.73 31.53 22.73 31.53 22.73 31.54 22.74 31.53 22.73" style="fill:#00adc6;"/><polygon points="32.92 23.65 32.9 23.65 32.92 23.65 32.93 23.66 32.92 23.65" style="fill:#00adc6;"/><polygon points="33.4 23.8 33.4 23.8 33.41 23.8 33.41 23.81 33.4 23.8" style="fill:#00adc6;"/><rect x="38" y="20.64" width="0" height="0" style="fill:#00adc6;"/><polygon points="38 20.64 38 20.64 38 20.67 38 20.64" style="fill:#00adc6;"/><path d="M33.6,23.85s0,0,0,0c.22.04.45.07.69.07-.01,0-.02,0-.04,0-.22,0-.43-.03-.64-.06Z" style="fill:#00adc6;"/><path d="M31.67,22.87s0,0,0,0c.13.13.27.24.42.35,0,0,0,0-.01-.01-.14-.1-.28-.21-.41-.33Z" style="fill:#00adc6;"/><path d="M32.93,23.66s0,0-.01,0c.16.06.32.11.49.15,0,0,0,0-.01,0-.16-.04-.32-.09-.47-.14Z" style="fill:#00adc6;"/><path d="M31.2,22.34s0,0,0,0c.1.14.21.28.33.4,0,0,0,0,0,0-.12-.12-.23-.25-.32-.39Z" style="fill:#00adc6;"/><path d="M30.83,21.71c.08.18.18.35.29.51,0,0,0,0,0,0-.11-.16-.21-.33-.29-.51Z" style="fill:#00adc6;"/><path d="M32.18,23.28s0,0,0,0c.18.12.37.22.57.31,0,0,0,0,0,0-.2-.09-.39-.19-.57-.31Z" style="fill:#00adc6;"/><path d="M5.62,25.52c-.07-.18-.14-.36-.21-.54l-.06-.14c-.07-.17-.13-.33-.2-.49-.05-.13-.1-.25-.16-.37h0s-.01-.03-.01-.03l-.02-.04-.03-.06-.06-.13-.05-.1-.06-.12-.12-.25-.02-.03h0c-.05-.18-.07-.37-.07-.57,0-.13.01-.25.03-.37,0-.06.03-.11.04-.17.02-.06.03-.12.05-.18.02-.05.04-.1.07-.15.02-.06.05-.12.08-.17.03-.05.06-.1.09-.15.03-.05.06-.1.1-.15,0,0,0,0,0,0-.28.38-.45.85-.45,1.35,0,.19.02.38.07.56h0s.02.04.02.04c.06.12.12.25.18.37l.11.23.03.06.02.04v.03s.01,0,.01,0c.05.12.1.24.16.37.07.16.13.33.2.49l.06.14c.07.18.14.36.21.54l.06.15c.03.09.07.19.11.29h0c-.03-.1-.07-.19-.11-.29l-.06-.15Z" style="fill:#00a4c0;"/><path d="M4.76,21.76c-.02.05-.05.1-.07.15.02-.05.04-.1.07-.15Z" style="fill:#00a4c0;"/><path d="M4.64,22.1c-.01.06-.03.11-.04.17,0-.06.03-.11.04-.17Z" style="fill:#00a4c0;"/><path d="M4.92,21.44s-.06.09-.09.15c.03-.05.06-.1.09-.15Z" style="fill:#00a4c0;"/><path d="M30.01,19.66s.01,0,.02,0c0,0,0,0,0,0,0,0-.02,0-.03,0-.03,0-.06.01-.1.02,0,0,.01,0,.02,0,.02,0,.05-.01.07-.01Z" style="fill:#00adc6;"/><path d="M30.39,19.86s-.02-.01-.02-.02h0s.02.01.02.02Z" style="fill:#00adc6;"/><path d="M30.27,19.75s0,0,0,0c-.02-.01-.03-.03-.05-.04,0,0,0,0,0,0,.02,0,.03.02.04.03Z" style="fill:#00adc6;"/><path d="M29.68,19.79s0,0,0,0c-.03.03-.05.06-.07.1.02-.03.03-.05.05-.07,0,0,0-.01.01-.02Z" style="fill:#00adc6;"/><path d="M29.83,19.69s0,0,0,0c-.03.01-.06.04-.09.06.01,0,.02-.02.04-.02.02-.01.03-.02.05-.03Z" style="fill:#00adc6;"/><path d="M23.68,23.31s0,0,0,0c-.08-.05-.16-.11-.24-.17,0,0,0,0,0,0,.08.06.15.12.23.17Z" style="fill:#00adc6;"/><path d="M29.54,20.12c0-.07.01-.13.04-.18-.02.06-.04.12-.04.18Z" style="fill:#00adc6;"/><path d="M24.31,23.63s0,0,0,0c-.09-.04-.17-.08-.25-.12,0,0,0,0,0,0,.08.04.16.08.24.12Z" style="fill:#00adc6;"/><path d="M24.99,23.84s0,0,0,0c-.08-.02-.15-.04-.23-.06,0,0,.02,0,.02,0,.07.02.13.04.2.06Z" style="fill:#00adc6;"/><path d="M12.9,19.66c.06,0,.11.01.16.03,0,0,0,0,0,0-.05-.02-.1-.03-.16-.03,0,0-.02,0-.03,0,0,0,0,0,0,0,0,0,.02,0,.02,0Z" style="fill:#00adc6;"/><path d="M13.19,19.76s-.08-.05-.12-.07c0,0,0,0,0,0,.04.02.08.04.12.07Z" style="fill:#00adc6;"/><path d="M30.04,19.66s.02,0,.03,0c0,0-.02,0-.03,0,0,0,0,0,0,0,0,0,0,0,0,0Z" style="fill:#00adc6;"/><polygon points="30.22 19.71 30.23 19.72 30.22 19.71 30.22 19.71 30.22 19.71" style="fill:#00adc6;"/><path d="M29.74,19.75s.02-.02.04-.03c-.01,0-.02.01-.04.02-.01,0-.03.02-.04.03.01-.01.03-.02.04-.03Z" style="fill:#00adc6;"/><polygon points="29.68 19.79 29.69 19.78 29.68 19.79 29.68 19.79 29.68 19.79" style="fill:#00adc6;"/><polygon points="30.27 19.75 30.28 19.76 30.27 19.75 30.27 19.75 30.27 19.75" style="fill:#00adc6;"/><path d="M29.91,19.67s.01,0,.02,0c0,0-.01,0-.02,0,0,0-.02,0-.02,0,0,0,.02,0,.02,0Z" style="fill:#00adc6;"/><polygon points="29.84 19.69 29.84 19.69 29.83 19.69 29.83 19.69 29.84 19.69" style="fill:#00adc6;"/><path d="M29.6,19.91s0-.01.01-.02c.02-.03.03-.05.05-.07-.02.02-.04.05-.05.07,0,0,0,.01-.01.02,0,0,0,0,0,0Z" style="fill:#00adc6;"/><polygon points="24.06 23.51 24.05 23.51 24.06 23.51 24.07 23.52 24.06 23.51" style="fill:#00adc6;"/><polygon points="24.31 23.63 24.31 23.63 24.31 23.64 24.32 23.64 24.31 23.63" style="fill:#00adc6;"/><path d="M9.91,23.68c-.16.06-.33.12-.5.16.17-.04.34-.1.5-.16Z" style="fill:#00adc6;"/><polygon points="23.69 23.31 23.68 23.31 23.69 23.31 23.69 23.31 23.69 23.31" style="fill:#00adc6;"/><path d="M29.6,19.9s-.02.02-.02.03c-.02.06-.04.12-.04.18,0,2.09-1.71,3.8-3.81,3.8-.04,0-.08,0-.11-.01.04,0,.08.01.11.01,2.1,0,3.81-1.7,3.81-3.8,0-.07.01-.13.04-.18,0-.01.01-.02.02-.03,0,0,0,0,0,0Z" style="fill:#00adc6;"/><path d="M24.77,23.78s-.02,0-.03,0c0,0,.02,0,.02,0,0,0,.02,0,.03,0,0,0-.02,0-.02,0Z" style="fill:#00adc6;"/><polygon points="25 23.84 24.99 23.84 25 23.84 25 23.84 25 23.84" style="fill:#00adc6;"/><path d="M12.87,19.66c-.25.01-.44.24-.44.49,0,1.3-.67,2.45-1.68,3.13,1.01-.68,1.68-1.82,1.68-3.12,0-.25.19-.47.44-.49,0,0,0,0,0,0,0,0,0,0,0,0Z" style="fill:#00adc6;"/><polygon points="13.07 19.69 13.07 19.69 13.07 19.69 13.07 19.69 13.07 19.69" style="fill:#00adc6;"/><polygon points="23.45 23.14 23.45 23.14 23.45 23.14 23.45 23.14 23.45 23.14" style="fill:#00adc6;"/><polygon points="13.06 19.68 13.05 19.68 13.06 19.68 13.06 19.68 13.06 19.68" style="fill:#00adc6;"/><path d="M10.65,23.32c-.17.11-.35.21-.54.29.19-.08.37-.18.54-.29Z" style="fill:#00adc6;"/><path d="M8.61,23.91s-.05,0-.07,0c.03,0,.05,0,.08,0h.07c.15,0,.29-.03.43-.05-.17.02-.33.05-.5.05h0Z" style="fill:#00adc6;"/><path d="M29.89,19.68s-.03,0-.05.01c0,0,0,0,0,0,.02,0,.05,0,.08-.02,0,0-.02,0-.02,0Z" style="fill:#00adc6;"/><path d="M30.37,19.84s-.06-.06-.09-.09h0s.07.05.09.09h0Z" style="fill:#00adc6;"/><path d="M29.6,19.91s0,0,0,0c0,0,0-.01.01-.02,0,0,0,.01-.01.02Z" style="fill:#00adc6;"/><path d="M30.22,19.71s-.1-.04-.16-.05c0,0-.02,0-.03,0,.07,0,.13.03.19.06,0,0,0,0,0,0Z" style="fill:#00adc6;"/><path d="M29.7,19.77s-.01,0-.01,0c0,0,0,0,0,0,.02-.02.04-.03.06-.04-.01,0-.03.01-.04.03Z" style="fill:#00adc6;"/><path d="M29.58,19.94s.02-.02.02-.03c0,0,0,0,0,0,0,.01-.02.02-.02.03Z" style="fill:#00adc6;"/><path d="M24.32,23.64s0,0,0,0c.15.06.3.1.46.14,0,0-.02,0-.02,0-.15-.04-.29-.08-.43-.13Z" style="fill:#00adc6;"/><path d="M25,23.84s0,0,0,0c.24.05.48.07.74.07-.04,0-.08-.01-.11-.01-.21,0-.42-.02-.62-.06Z" style="fill:#00adc6;"/><path d="M13.06,19.68s0,0,0,0c0,0,0,0,.01,0,0,0,0,0,0,0,0,0,0,0,0,0Z" style="fill:#00adc6;"/><path d="M23.23,22.97c.07.06.15.11.22.16h0c-.07-.06-.15-.1-.22-.16Z" style="fill:#00adc6;"/><path d="M23.69,23.31s0,0,0,0c.12.08.25.14.37.2,0,0,0,0,0,0-.12-.06-.25-.12-.37-.2Z" style="fill:#00adc6;"/><path d="M8.28,23.9c.11.01.22.02.33.02-.03,0-.05,0-.08,0-.09,0-.17,0-.26-.01Z" style="fill:#00adc6;"/><path d="M38.97,23.03c-.03.15-.08.29-.13.42.06-.13.1-.28.13-.42Z" style="fill:#00759a;"/><path d="M39.02,22.59s0-.02,0-.03c0,.11-.02.21-.03.32.01-.09.03-.19.03-.29Z" style="fill:#00759a;"/><path d="M13.58,39.33c.05.05.1.09.15.14-.05-.05-.1-.09-.15-.14Z" style="fill:#00759a;"/><path d="M14.63,40.37s.05.06.08.09c-.03-.03-.05-.06-.08-.09Z" style="fill:#00759a;"/><path d="M15.45,41.41s.02.03.03.05c-.01-.02-.02-.03-.03-.05Z" style="fill:#00759a;"/><path d="M30.4,19.89s0-.02,0-.03c0,0-.01-.01-.02-.02.01.02.02.03.03.05Z" style="fill:#00759a;"/><path d="M29.67,19.81s0-.01.01-.02c0,0,0,.01-.01.02Z" style="fill:#00759a;"/><path d="M33.59,23.85c-.05-.01-.11-.02-.16-.04,0,0,0,0,0,0,.05.01.11.02.16.03Z" style="fill:#00759a;"/><path d="M29.78,19.72s.03-.02.05-.03c-.02,0-.03.02-.05.03Z" style="fill:#00759a;"/><path d="M30.49,20.32c.01.21.03.41.07.61-.04-.2-.06-.4-.07-.61Z" style="fill:#00759a;"/><path d="M30.23,19.72s.03.02.04.03c-.01-.01-.03-.02-.04-.03Z" style="fill:#00759a;"/><path d="M30.01,19.66s-.05.01-.07.01c.03,0,.06-.02.1-.01,0,0-.01,0-.02,0Z" style="fill:#00759a;"/><path d="M21.37,19.66s.09,0,.13,0c-.01,0-.03-.01-.04-.01-.03,0-.06,0-.09,0Z" style="fill:#00759a;"/><path d="M13.87,21.97c.08.14.16.28.26.41-.1-.13-.18-.27-.26-.41Z" style="fill:#00759a;"/><path d="M13.54,21.21c.05.17.1.33.18.49-.07-.16-.13-.32-.18-.49Z" style="fill:#00759a;"/><path d="M23.68,23.31c-.08-.05-.16-.11-.23-.17.08.06.15.12.23.17Z" style="fill:#00759a;"/><path d="M21.66,19.71s.04.02.06.03c-.02-.01-.04-.02-.06-.03Z" style="fill:#00759a;"/><path d="M14.33,22.63c.05.06.09.12.15.18.06.06.13.1.19.16h0c-.12-.1-.23-.21-.34-.33Z" style="fill:#00759a;"/><path d="M33.43,23.81s0,0-.01,0c0,0,0,0,.01,0,0,0,0,0,0,0Z" style="fill:#00759a;"/><rect x="7.85" y="23.83" width="0" height=".01" style="fill:#00759a;"/><path d="M13.37,20.17c0,.26.03.52.09.77-.05-.25-.09-.5-.09-.77Z" style="fill:#00759a;"/><path d="M12.87,19.66c.06,0,.12,0,.18.03-.05-.02-.1-.03-.16-.03,0,0-.02,0-.02,0Z" style="fill:#00759a;"/><path d="M13.28,19.88s.03.03.03.05c0-.02-.02-.03-.03-.05Z" style="fill:#00759a;"/><path d="M21.87,19.91s0,0,0,0c0-.01-.02-.02-.03-.03,0,.01.02.02.03.04Z" style="fill:#00759a;"/><path d="M22.85,22.57c.07.08.12.16.19.23.03.03.07.05.1.08-.11-.1-.2-.21-.3-.32Z" style="fill:#00759a;"/><path d="M30.65,21.19c.04.14.08.28.13.42,0,.02.02.03.03.05-.07-.15-.11-.31-.16-.47Z" style="fill:#00759a;"/><path d="M22.41,21.93c.07.13.14.26.23.39-.09-.12-.16-.25-.23-.39Z" style="fill:#00759a;"/><path d="M16.45,23.84c-.07-.01-.13-.04-.2-.05.07.02.13.04.2.05Z" style="fill:#00759a;"/><path d="M24.31,23.63c-.08-.03-.16-.08-.24-.12.08.04.16.08.24.12Z" style="fill:#00759a;"/><path d="M24.99,23.84c-.07-.01-.13-.04-.2-.06.07.02.13.04.2.06Z" style="fill:#00759a;"/><path d="M13.2,19.77s0,0,0-.01c-.03-.03-.08-.05-.12-.07.05.02.09.05.13.08Z" style="fill:#00759a;"/><path d="M32.9,23.65s-.1-.03-.15-.06c.05.02.1.04.15.06Z" style="fill:#00759a;"/><path d="M14.94,23.19s.06.06.1.08c.04.03.08.04.12.06-.07-.05-.15-.09-.22-.15Z" style="fill:#00759a;"/><path d="M31.19,22.32s-.05-.07-.08-.1c.02.04.05.07.08.1Z" style="fill:#00759a;"/><path d="M15.78,23.64c-.08-.03-.15-.07-.23-.1.08.04.15.07.23.1Z" style="fill:#00759a;"/><path d="M32.18,23.28s-.05-.04-.07-.06c.03.02.05.04.07.06Z" style="fill:#00759a;"/><path d="M22.1,21.19c.05.16.09.32.16.47-.07-.15-.11-.31-.16-.47Z" style="fill:#00759a;"/><path d="M21.94,20.21c0,.24.03.47.08.7-.05-.23-.07-.46-.08-.7Z" style="fill:#00759a;"/><path d="M31.67,22.86s-.09-.08-.13-.13c.04.04.08.09.13.13Z" style="fill:#00759a;"/><path d="M29.83,19.69s-.03.02-.05.03c-.01,0-.03.02-.04.03.03-.02.06-.04.09-.06,0,0,0,0,0,0Z" style="fill:#00759a;"/><path d="M33.43,23.81s0,0,0,0c.06.01.11.02.17.04,0,0,0,0,0,0-.05,0-.11-.02-.16-.03Z" style="fill:#00759a;"/><path d="M30.27,19.75s-.03-.02-.04-.03c0,0,0,0,0,0,.02.01.03.03.05.04,0,0,0,0,0,0Z" style="fill:#00759a;"/><path d="M29.68,19.79s0,.01-.01.02c-.02.02-.03.05-.05.07.02-.03.04-.07.07-.1,0,0,0,0,0,0Z" style="fill:#00759a;"/><path d="M30.03,19.66s-.06,0-.1.01c0,0-.01,0-.02,0,.04,0,.08-.02.12-.02,0,0,0,0,0,0Z" style="fill:#00759a;"/><path d="M24.79,23.78s-.02,0-.03,0c.08.02.15.05.23.07,0,0,0,0,0,0-.07-.01-.13-.04-.2-.06Z" style="fill:#00759a;"/><path d="M12.87,19.66s0,0,0,0c.07,0,.13,0,.19.03,0,0,0,0,0,0-.06-.02-.12-.03-.18-.03Z" style="fill:#00759a;"/><path d="M15.04,23.27s.08.04.12.07c0,0,0,0,0,0-.04-.02-.08-.04-.12-.06Z" style="fill:#00759a;"/><path d="M15.55,23.54h0c.08.04.16.07.24.11,0,0,0,0,0,0-.08-.03-.15-.07-.23-.1Z" style="fill:#00759a;"/><path d="M16.25,23.79s0,0-.01,0c.07.02.14.04.22.06,0,0,0,0,0,0-.07-.01-.13-.04-.2-.05Z" style="fill:#00759a;"/><path d="M21.37,19.66s0,0-.01,0c.05-.01.1,0,.15,0,0,0,0,0,0,0-.04,0-.08-.01-.13,0Z" style="fill:#00759a;"/><path d="M21.66,19.71s0,0,0,0c.02.01.05.02.07.03,0,0,0,0,0,0-.02-.01-.04-.02-.06-.03Z" style="fill:#00759a;"/><path d="M4.6,22.26c-.02.12-.03.25-.03.37,0-.13.01-.25.03-.37Z" style="fill:#00759a;"/><path d="M4.69,21.91c-.02.06-.03.12-.05.18.02-.06.03-.12.05-.18Z" style="fill:#00759a;"/><polygon points="7.84 23.83 7.85 23.83 7.85 23.83 7.84 23.83" style="fill:#00759a;"/><path d="M8.05,23.87l-.19-.04h0l.19.04.16.02s.03,0,.04,0c-.07,0-.13-.02-.2-.03,0,0,0,0,0,0Z" style="fill:#00759a;"/><path d="M4.92,21.44c.03-.05.06-.1.1-.15h0s-.06.1-.1.15Z" style="fill:#00759a;"/><path d="M23.45,23.14s0,0,0,0c.08.06.15.12.24.17,0,0,0,0,0,0-.08-.05-.16-.11-.23-.17Z" style="fill:#00759a;"/><path d="M31.54,22.74s0,0,0,0c.04.05.09.09.14.14,0,0,0,0,0,0-.04-.04-.09-.08-.13-.13Z" style="fill:#00759a;"/><path d="M32.1,23.22s0,0,0,0c.03.02.06.05.09.07,0,0,0,0,0,0-.03-.02-.05-.04-.07-.06Z" style="fill:#00759a;"/><path d="M32.76,23.59s0,0,0,0c.05.02.11.04.16.06,0,0,0,0-.01,0-.05-.02-.1-.03-.15-.06Z" style="fill:#00759a;"/><path d="M33.41,23.81s0,0,0,0c0,0,.02,0,.02,0,0,0,0,0,0,0,0,0,0,0-.01,0Z" style="fill:#00759a;"/><path d="M31.12,22.22s0,0,0,0c.03.04.06.07.08.11,0,0,0,0,0,0-.02-.03-.05-.07-.08-.1Z" style="fill:#00759a;"/><path d="M21.84,19.87s0,0,0,0c.01.02.03.03.04.04,0,0,0,0,0,0,0-.02-.02-.03-.03-.04Z" style="fill:#00759a;"/><path d="M4.83,21.58c-.03.06-.05.12-.08.17.02-.06.05-.12.08-.17Z" style="fill:#00759a;"/><path d="M23.05,22.8s.07.05.1.08c0,0,0,0,0,0-.03-.03-.07-.05-.1-.08Z" style="fill:#00759a;"/><path d="M30.78,21.61s.02.03.03.05c0,0,0,0,0,0,0-.02-.02-.03-.03-.05Z" style="fill:#00759a;"/><path d="M24.07,23.52s0,0,0,0c.08.04.16.09.25.12,0,0,0,0,0,0-.08-.03-.16-.08-.24-.12Z" style="fill:#00759a;"/><path d="M13.07,19.69s0,0,0,0c.05.02.09.05.13.08,0,0,0,0,0,0-.04-.03-.08-.06-.13-.08Z" style="fill:#00759a;"/><path d="M14.67,22.96c-.06-.05-.13-.1-.19-.16.06.06.13.1.19.16Z" style="fill:#00759a;"/><path d="M29.58,19.94c-.02.06-.04.12-.04.18,0-.07.01-.13.04-.18Z" style="fill:#00759a;"/><path d="M5.98,22.81s.02.02.03.03c0,0,.02.02.03.02-.02-.02-.04-.04-.06-.06Z" style="fill:#00759a;"/><path d="M5.44,22.16s.01.03.02.04c0,0,0,0,0,.01-.01-.02-.02-.04-.03-.05Z" style="fill:#00759a;"/><path d="M7.86,23.83s.08,0,.12.01c-.06-.01-.12-.02-.18-.03.02,0,.03.01.05.02h.01Z" style="fill:#00759a;"/><path d="M5.16,21.63s0,.03.01.04c0,0,0,0,0,0,0-.01-.01-.03-.02-.04Z" style="fill:#00759a;"/><path d="M6.41,23.18s.04.04.07.06c.03.02.06.04.09.06,0,0,0,0,0,0-.06-.04-.11-.08-.17-.12Z" style="fill:#00759a;"/><path d="M6.37,23.15s.08.06.12.09c-.03-.02-.05-.04-.07-.06-.02-.01-.03-.02-.05-.03Z" style="fill:#00759a;"/><path d="M6.01,22.85c.05.05.1.1.16.14-.04-.04-.08-.08-.13-.12,0,0-.02-.02-.03-.02Z" style="fill:#00759a;"/><path d="M5.36,22.01c.04.06.07.13.11.19,0-.01-.01-.03-.02-.04-.03-.05-.06-.1-.09-.15Z" style="fill:#00759a;"/><path d="M5.17,21.67s.02.06.04.09c-.01-.03-.02-.06-.03-.09,0,0,0,0,0,0Z" style="fill:#00759a;"/><path d="M7.8,23.82s-.01,0-.02,0c.02,0,.04.01.06.02h0s-.03-.01-.05-.01Z" style="fill:#00759a;"/><path d="M7.05,23.56c-.08-.04-.17-.08-.24-.12.08.04.16.08.24.12Z" style="fill:#00759a;"/><path d="M7.56,23.75c-.1-.03-.19-.06-.28-.09.09.04.19.06.28.09Z" style="fill:#00759a;"/><path d="M8.05,23.87s0,0,0,0c-.03,0-.05,0-.08-.01-.04,0-.08,0-.12-.01l.19.04Z" style="fill:#00759a;"/><polygon points="6.58 23.3 6.58 23.3 6.58 23.3 6.58 23.3" style="fill:#00759a;"/><path d="M5.79,22.62c-.05-.06-.1-.13-.16-.19.05.07.1.13.16.19Z" style="fill:#00759a;"/><path d="M36.27,27.93c.35-.65.71-1.31,1.08-1.96h-1.08v1.96Z" style="fill:#00759a;"/><path d="M38.84,23.45c.06-.13.1-.28.13-.42h0c-.03.15-.08.29-.13.42Z" style="fill:#00759a;"/><path d="M37.6,25.53c.21-.37.43-.74.65-1.11.08-.13.15-.25.23-.38-.08.13-.15.25-.23.38-.22.37-.43.74-.65,1.11Z" style="fill:#00759a;"/><path d="M38,20.64l.12.12c.15.16.3.31.45.46.27.36.43.8.44,1.28v.06h0v-.06c-.01-.48-.18-.92-.44-1.28v-.02c-.16-.14-.3-.28-.44-.43l-.13-.13h0s0,0,0,0h0Z" style="fill:#00759a;"/><path d="M38.57,23.87l-.08.13-.02.03.02-.03.08-.13c.08-.12.15-.25.23-.37l.03-.05-.03.05c-.08.12-.15.25-.23.37Z" style="fill:#00759a;"/><path d="M38.99,22.87c.01-.1.03-.21.03-.32,0,.11-.02.22-.03.33,0,0,0,0,0-.01Z" style="fill:#00759a;"/><path d="M25.81,38.92c.13-.22.27-.43.41-.62.19-.25.39-.46.6-.65,1.01-1.59,2.83-4.71,3.15-6.97.03-.23.23-.4.46-.4.02,0,.04,0,.07,0,.25.04.43.27.4.53-.28,1.98-1.56,4.47-2.6,6.22h.13c2.98,0,5.31-4.44,7.84-9.11v-1.96s-30.49,0-30.49,0l.04.12c1.49,4.09,3.22,9.68,7.14,12.74.22.17.42.34.62.51.05.05.1.09.15.14.33.3.63.6.9.9.03.03.05.06.08.09.28.32.52.63.74.95.01.02.02.03.03.05.07.1.13.2.2.3.26.07.52.14.78.2.25-2.85-.52-4.66-1.33-6.54-.84-1.94-1.7-3.94-1.37-7.09.02-.24.23-.42.46-.42.02,0,.03,0,.05,0,.26.03.44.26.41.51-.3,2.91.48,4.71,1.3,6.62.84,1.94,1.68,3.95,1.38,7.1,1.26.23,2.56.37,3.89.37,1.05,0,2.07-.1,3.07-.25.45-1.21.91-2.4,1.47-3.33h0Z" style="fill:#00759a;"/><path d="M37.75,21.5s-.02.07-.04.1c.01-.03.03-.07.04-.1Z" style="fill:#00759a;"/><path d="M30.56,20.93s0,0,0,0c-.04-.2-.06-.4-.07-.61,0-.06-.02-.12-.02-.18,0,.27.03.54.09.79Z" style="fill:#00759a;"/><path d="M35.1,23.8s-.07.02-.1.03c0,0-.02,0-.02,0,.04,0,.08-.02.13-.04Z" style="fill:#00759a;"/><path d="M37.97,20.8c-.01.05-.02.1-.04.16.01-.05.03-.1.04-.16Z" style="fill:#00759a;"/><path d="M30.37,19.84s.02.03.03.05h0s-.02-.03-.03-.05c0,0,0,0,0,0Z" style="fill:#00759a;"/><path d="M35.76,23.57s-.06.03-.09.04c-.01,0-.02.01-.03.02.04-.02.08-.04.12-.06Z" style="fill:#00759a;"/><path d="M37.38,22.18s-.05.06-.07.09c.02-.03.05-.06.07-.09Z" style="fill:#00759a;"/><path d="M36.33,23.24s-.02.01-.03.02c0,0,.02-.01.03-.02Z" style="fill:#00759a;"/><path d="M36.95,22.71s-.07.07-.1.1c.03-.03.07-.07.1-.1Z" style="fill:#00759a;"/><path d="M14.94,23.18s.06.06.1.08c-.04-.02-.06-.06-.1-.08h0Z" style="fill:#00759a;"/><path d="M22.41,21.93s0,0,0,0c.07.14.15.27.24.4,0,0,0,0,0,0-.09-.12-.16-.25-.23-.39Z" style="fill:#00759a;"/><path d="M22.85,22.57c.07.08.12.16.2.24-.07-.07-.13-.16-.19-.23,0,0,0,0,0,0Z" style="fill:#00759a;"/><path d="M21.94,20.21s-.01-.06-.01-.09c0,.27.03.54.09.8,0,0,0,0,0,0-.05-.23-.07-.46-.08-.7Z" style="fill:#00759a;"/><path d="M22.1,21.19s0-.01,0-.02c.05.17.1.33.17.49,0,0,0,0,0,0-.07-.15-.11-.31-.16-.47Z" style="fill:#00759a;"/><polygon points="14.67 22.96 14.67 22.96 14.67 22.96 14.67 22.96" style="fill:#00759a;"/><path d="M30.64,21.17c.04.15.08.3.14.44-.06-.13-.09-.28-.13-.42,0,0,0-.01,0-.02Z" style="fill:#00759a;"/><path d="M5.1,21.48c.02.06.05.13.08.19,0-.01,0-.03-.01-.04-.02-.05-.04-.1-.06-.15Z" style="fill:#00759a;"/><path d="M7.86,23.83h-.01s0,0,.01,0Z" style="fill:#00759a;"/><path d="M5.91,22.75s.07.06.1.1c-.01-.01-.02-.02-.03-.03-.02-.02-.05-.04-.07-.06Z" style="fill:#00759a;"/><path d="M13.37,20.17s0-.04,0-.05c0,.28.04.56.1.82,0,0,0,0,0,0-.05-.25-.09-.5-.09-.77Z" style="fill:#00759a;"/><path d="M14.33,22.62c.05.06.09.12.15.18-.05-.05-.1-.12-.15-.18,0,0,0,0,0,0Z" style="fill:#00759a;"/><path d="M13.28,19.88s0,0,0,0c.01.02.03.03.04.05,0,0,0,0,0,0,0-.02-.02-.03-.03-.05Z" style="fill:#00759a;"/><path d="M6.58,23.3s-.06-.04-.09-.06c.03.02.06.04.09.06Z" style="fill:#00759a;"/><path d="M7.16,23.62s-.07-.04-.1-.05c.03.02.07.04.1.05Z" style="fill:#00759a;"/><path d="M13.54,21.21s0,0,0-.01c.05.17.11.34.18.51,0,0,0,0,0,0-.07-.16-.13-.32-.18-.49Z" style="fill:#00759a;"/><path d="M13.87,21.97s0,0,0,0c.08.14.17.28.26.41,0,0,0,0,0,0-.1-.13-.18-.26-.26-.41Z" style="fill:#00759a;"/><path d="M5.46,22.2s.02.03.03.05c0-.01-.01-.02-.02-.04,0,0,0,0,0-.01Z" style="fill:#00759a;"/><path d="M30.47,20.14c0-.09-.03-.17-.08-.25,0-.02-.02-.03-.03-.05-.03-.03-.06-.06-.09-.09-.02-.01-.03-.03-.05-.04-.06-.03-.12-.05-.19-.06-.04,0-.08,0-.12.02-.03,0-.05,0-.08.02-.03.01-.06.04-.09.06-.02.01-.04.02-.06.04-.03.03-.05.06-.07.1,0,0,0,.01-.01.02.33.36.65.71.97,1.05,0,0,0-.02,0-.03-.06-.26-.09-.52-.09-.79Z" style="fill:#00759a;"/><path d="M39.02,22.49c-.01-.48-.18-.92-.44-1.28-.15-.15-.3-.3-.45-.46l-.12-.12v.03s-.03.09-.04.13c-.01.05-.02.1-.04.16-.02.1-.05.2-.08.29-.02.04-.04.09-.05.13-.01.04-.03.08-.04.11-.01.03-.02.07-.04.1-.04.08-.08.15-.12.23-.03.05-.05.1-.08.15-.04.07-.08.14-.13.21-.02.03-.05.06-.07.09-.03.04-.06.08-.09.12-.02.03-.04.06-.06.09-.07.08-.14.15-.21.23-.03.03-.07.07-.1.1-.04.04-.08.08-.12.12-.02.02-.05.04-.07.06-.1.09-.21.17-.32.25,0,0-.02.01-.03.02-.02.02-.05.03-.07.05-.05.03-.09.06-.14.09-.11.06-.22.12-.33.18-.04.02-.08.04-.12.06-.03.01-.07.03-.1.04-.03.01-.06.03-.08.04-.11.04-.23.07-.35.1-.04.01-.08.03-.13.04-.01,0-.03,0-.04.01,0,0,0,0-.01,0-.21.04-.42.06-.64.06-.24,0-.46-.03-.69-.07-.06-.01-.11-.02-.17-.04.64.75,1.53,1.27,2.49,1.37.2.02.35.19.35.4v.38h1.08c.08-.15.17-.29.25-.44.21-.37.43-.74.65-1.11.08-.13.15-.25.23-.38l.02-.03.08-.13c.08-.12.15-.25.23-.37l.03-.05c.06-.13.1-.28.13-.42,0-.05,0-.09.02-.14.02-.11.03-.22.03-.33h0v-.06Z" style="fill:#00759a;"/><path d="M35.92,25.18c-.96-.1-1.86-.62-2.49-1.37,0,0-.02,0-.02,0-.17-.04-.33-.09-.49-.15-.05-.02-.11-.04-.16-.06-.2-.09-.39-.19-.57-.31-.03-.02-.06-.04-.09-.07-.15-.11-.29-.22-.42-.35-.05-.04-.09-.09-.14-.14-.12-.13-.23-.26-.33-.4-.03-.04-.06-.07-.08-.11-.11-.16-.21-.33-.29-.51,0-.02-.01-.03-.02-.05,0-.02-.02-.03-.03-.05-.06-.14-.1-.29-.14-.44-.02-.07-.06-.14-.07-.21-.32-.34-.64-.69-.97-1.05,0,.01-.02.02-.02.03-.02.06-.04.12-.04.18,0,2.09-1.71,3.8-3.81,3.8-.25,0-.5-.03-.74-.07-.08-.02-.15-.04-.23-.07-.15-.04-.31-.08-.46-.14-.09-.04-.17-.08-.25-.12-.13-.06-.25-.13-.37-.2-.08-.05-.16-.11-.24-.17-.07-.06-.15-.1-.22-.16-.03-.03-.05-.06-.08-.09-.03-.03-.07-.05-.1-.08-.07-.07-.13-.16-.2-.24-.07-.08-.14-.16-.21-.25-.09-.12-.16-.26-.24-.4-.05-.09-.1-.17-.15-.27-.07-.16-.12-.32-.17-.49-.02-.08-.06-.16-.08-.25-.06-.26-.09-.52-.09-.8,0-.08-.02-.15-.05-.21,0-.02-.02-.03-.04-.04-.03-.05-.07-.09-.12-.12-.02-.01-.05-.02-.07-.03-.05-.02-.09-.03-.15-.04-.05,0-.1-.01-.15,0-.21.05-.36.24-.36.46,0,2.09-1.73,3.79-3.83,3.79-.25,0-.48-.03-.72-.07-.08-.01-.15-.04-.22-.06-.15-.04-.31-.08-.45-.14-.08-.03-.16-.07-.24-.11-.13-.06-.26-.13-.38-.21-.04-.02-.08-.04-.12-.07-.04-.02-.06-.06-.1-.08-.05-.03-.1-.06-.14-.09-.05-.04-.08-.09-.13-.13,0,0,0,0,0,0-.06-.05-.13-.1-.19-.16-.05-.05-.1-.12-.15-.18-.07-.08-.14-.16-.2-.24-.1-.13-.18-.27-.26-.41-.05-.09-.1-.17-.15-.27-.08-.16-.13-.33-.18-.51-.03-.09-.06-.17-.08-.25-.06-.27-.1-.54-.1-.82,0-.07-.02-.13-.04-.19,0-.02-.03-.03-.04-.05-.02-.04-.05-.07-.08-.1-.04-.03-.08-.06-.13-.08,0,0,0,0-.01,0-.06-.02-.12-.03-.19-.03-.25.01-.44.24-.44.49,0,1.3-.68,2.45-1.68,3.12-.03.02-.07.03-.1.05-.17.11-.35.21-.54.29-.06.03-.13.04-.2.06-.16.06-.33.12-.5.16-.09.02-.19.02-.29.03-.14.02-.29.05-.43.05h-.06s0,0,0,0c-.11,0-.22,0-.33-.02-.01,0-.02,0-.03,0-.01,0-.03,0-.04,0l-.16-.02-.19-.04s0,0-.01,0h0s-.04-.01-.06-.02c-.08-.02-.15-.04-.22-.06-.1-.03-.19-.06-.28-.09-.04-.01-.07-.03-.11-.04-.04-.01-.07-.04-.1-.05,0,0,0,0-.01,0-.08-.04-.17-.08-.24-.12-.08-.04-.15-.09-.22-.13,0,0,0,0,0,0-.03-.02-.06-.04-.09-.06-.04-.03-.08-.06-.12-.09-.07-.05-.14-.11-.2-.16-.05-.05-.11-.09-.16-.14-.03-.03-.07-.06-.1-.1-.04-.04-.08-.08-.12-.13-.05-.06-.1-.13-.16-.19-.05-.06-.1-.12-.14-.18-.01-.02-.02-.03-.03-.05-.04-.06-.07-.12-.11-.19-.05-.09-.1-.17-.14-.26-.01-.03-.02-.06-.04-.09-.03-.06-.05-.12-.08-.19-.03-.07-.06-.13-.08-.19-.04.05-.06.1-.1.15-.03.05-.06.09-.09.15-.03.06-.05.12-.08.17-.02.05-.05.1-.07.15-.02.06-.03.12-.05.18-.01.06-.03.11-.04.17-.02.12-.03.25-.03.37,0,.19.02.38.07.56h0s.02.04.02.04l.12.25.06.12.05.1.06.13.03.06.02.04v.03s.01,0,.01,0c.05.12.1.24.16.37.07.16.13.33.2.49l.06.14c.07.18.14.36.21.54l.06.15c.04.09.07.19.11.29h30.49v-.38c0-.2-.15-.37-.35-.4Z" style="fill:#00759a;"/><path d="M35,23.83s-.02,0-.03,0c0,0,0,0,0,0,0,0,.02,0,.02,0Z" style="fill:#00759a;"/><path d="M35.67,23.61s-.03.01-.05.02c0,0,.01,0,.02,0,.01,0,.02-.01.03-.02Z" style="fill:#00759a;"/><path d="M37.85,21.25s-.04.09-.05.13c.02-.04.04-.09.05-.13Z" style="fill:#00759a;"/><path d="M37.22,22.39s-.04.06-.06.09c.02-.03.04-.06.06-.09Z" style="fill:#00759a;"/><path d="M37.59,21.82s-.05.1-.08.15c.03-.05.06-.1.08-.15Z" style="fill:#00759a;"/><path d="M35.64,23.62s-.01,0-.02,0c-.03.01-.06.03-.09.04.04-.01.07-.03.1-.04Z" style="fill:#00759a;"/><path d="M36.72,22.93s-.05.04-.07.06c.02-.02.05-.04.07-.06Z" style="fill:#00759a;"/><path d="M36.23,23.3s-.09.06-.14.09c.05-.03.1-.06.14-.09Z" style="fill:#00759a;"/><path d="M34.97,23.84s0,0,0,0c-.01,0-.02,0-.04.01.01,0,.03,0,.04-.01Z" style="fill:#00759a;"/><path d="M10.75,23.27s-.07.03-.1.05c.03-.02.07-.03.1-.05Z" style="fill:#00759a;"/><path d="M10.11,23.61c-.06.03-.13.04-.2.06.07-.02.14-.04.2-.06Z" style="fill:#00759a;"/><path d="M9.41,23.83c-.09.02-.19.02-.29.03.09-.01.19-.01.29-.03Z" style="fill:#00759a;"/><path d="M30.51,30.29s-.05,0-.07,0c-.23,0-.43.17-.46.4-.32,2.26-2.14,5.39-3.15,6.97.43-.37.91-.59,1.48-.62,1.03-1.75,2.32-4.24,2.6-6.22.04-.26-.14-.49-.4-.53Z" style="fill:#006289;"/><path d="M15.99,35.05c-.82-1.91-1.61-3.71-1.3-6.62.03-.26-.16-.49-.41-.51-.02,0-.03,0-.05,0-.24,0-.44.18-.46.42-.33,3.15.54,5.15,1.37,7.09.81,1.88,1.58,3.69,1.33,6.54.3.07.6.14.91.19.3-3.15-.54-5.16-1.38-7.1Z" style="fill:#006289;"/></g></svg>