<?xml version="1.0" encoding="UTF-8"?><svg id="b" xmlns="http://www.w3.org/2000/svg" viewBox="0 0 42.52 42.52"><g id="c"><circle cx="21.26" cy="21.26" r="21.26" style="fill:#fff; opacity:.35;"/><path d="M30.51,34.12c-2.25,2.25-5.12,3.79-8.25,4.41-3.12.62-6.36.3-9.31-.92-2.94-1.22-5.46-3.28-7.23-5.93-1.77-2.65-2.71-5.76-2.71-8.95s.94-6.3,2.71-8.95c1.77-2.65,4.29-4.71,7.23-5.93,2.94-1.22,6.18-1.54,9.31-.92,3.12.62,6,2.16,8.25,4.41,1.5,1.5,2.68,3.27,3.49,5.23.81,1.95,1.23,4.05,1.23,6.16s-.42,4.21-1.23,6.16c-.81,1.95-2,3.73-3.49,5.23Z" style="opacity:.17;"/><path d="M37.62,20.93c0,3.19-.94,6.3-2.71,8.95-1.77,2.65-4.29,4.72-7.23,5.94-2.94,1.22-6.18,1.54-9.31.92-3.13-.62-6-2.16-8.25-4.41-2.25-2.25-3.79-5.12-4.41-8.25-.62-3.13-.3-6.37.92-9.31,1.22-2.94,3.29-5.46,5.94-7.23,2.65-1.77,5.77-2.71,8.95-2.71,2.12-.01,4.22.4,6.17,1.2,1.96.81,3.74,1.99,5.23,3.49,1.5,1.5,2.68,3.28,3.49,5.23.8,1.96,1.21,4.06,1.2,6.17" style="fill:#fcd385;"/><path d="M14.9,6.24s0,0,0,0c0,0,0,0,0,0M21.59,4.83s-.05,0-.08,0h0c-2.18,0-4.33.44-6.32,1.29l2.86,3.24,14.53,16.42,2.86,3.24c-1.74,2.99-4.41,5.35-7.59,6.72l-2.86-3.24-14.52-16.42-2.86-3.24c1.69-2.9,4.24-5.2,7.29-6.58-.8.36-1.58.79-2.32,1.29-2.65,1.77-4.72,4.28-5.94,7.23-.81,1.95-1.22,4.04-1.23,6.14,0,1.06.1,2.12.31,3.17.62,3.13,2.16,6,4.41,8.25,2.25,2.25,5.12,3.79,8.25,4.41,1.04.21,2.09.31,3.14.31,2.11,0,4.2-.41,6.17-1.23,2.94-1.22,5.46-3.29,7.23-5.94,1.77-2.65,2.71-5.77,2.71-8.95v-.1c0-2.08-.41-4.15-1.2-6.07-.81-1.96-1.99-3.74-3.49-5.23-1.5-1.5-3.28-2.68-5.23-3.49-1.93-.8-4.01-1.2-6.1-1.2" style="fill:#fbc66f;"/><path d="M14.9,6.25s0,0-.01,0c0,0,0,0,.01,0M15.19,6.12c-.1.04-.19.08-.28.13.09-.04.19-.08.28-.12h0" style="fill:#fff;"/><path d="M15.19,6.12c-.1.04-.19.08-.28.12,0,0,0,0,0,0,0,0,0,0-.01,0-3.05,1.38-5.6,3.68-7.29,6.58l2.86,3.24,14.52,16.42,2.86,3.24c3.19-1.37,5.85-3.72,7.59-6.72l-2.86-3.24-14.53-16.42-2.86-3.24" style="fill:#fcd18c;"/><path d="M21.52,33.35c-3.32,0-6.44-1.29-8.79-3.64-4.84-4.84-4.84-12.73,0-17.57,2.35-2.35,5.47-3.64,8.79-3.64s6.44,1.29,8.79,3.64c4.84,4.84,4.84,12.73,0,17.57-2.35,2.35-5.47,3.64-8.79,3.64ZM21.52,9.2c-3.13,0-6.08,1.22-8.29,3.43-4.57,4.57-4.57,12.01,0,16.58,2.21,2.21,5.16,3.43,8.29,3.43s6.07-1.22,8.29-3.43c4.57-4.57,4.57-12.01,0-16.58-2.21-2.21-5.16-3.43-8.29-3.43Z" style="fill:#fff;"/></g></svg>