<?xml version="1.0" encoding="UTF-8"?><svg id="b" xmlns="http://www.w3.org/2000/svg" viewBox="0 0 42.52 42.52"><g id="c"><circle cx="21.26" cy="21.26" r="21.26" style="fill:#fff; opacity:.35;"/><polygon points="34.31 12.13 22.67 12.13 11.01 12.13 8.86 12.13 8.86 14.29 8.86 16.23 6.92 16.23 4.76 16.23 4.76 18.39 4.76 29.82 4.76 31.97 6.92 31.97 18.55 31.97 30.21 31.97 32.37 31.97 32.37 29.82 32.37 27.87 34.31 27.87 36.47 27.87 36.47 25.72 36.47 14.29 36.47 12.13 34.31 12.13" style="opacity:.17;"/><polygon points="35.6 10.55 12.31 10.55 10.15 10.55 10.15 12.71 10.15 24.14 10.15 26.29 12.31 26.29 35.6 26.29 37.76 26.29 37.76 24.14 37.76 12.71 37.76 10.55 35.6 10.55" style="fill:#e0f5f8;"/><path d="M11.45,14.16v8.52c1.29,0,2.3,1.02,2.3,2.32h20.41c0-1.29,1.01-2.32,2.3-2.32v-8.52c-1.29,0-2.3-1.03-2.3-2.32H13.75c0,1.29-1.01,2.32-2.3,2.32Z" style="fill:#99dee8;"/><path d="M27.59,18.42c0-2.01-1.63-3.63-3.63-3.63s-3.63,1.63-3.63,3.63,1.63,3.63,3.63,3.63,3.63-1.63,3.63-3.63Z" style="fill:#cceff4;"/><rect x="10.15" y="10.55" width="13.81" height="15.75" style="fill:#ade5ed;"/><path d="M23.97,11.84h-10.22c0,1.29-1.01,2.32-2.3,2.32v8.52c1.29,0,2.3,1.02,2.3,2.32h10.22v-13.16Z" style="fill:#33bdd1;"/><path d="M23.97,14.79h0c-2.01,0-3.63,1.62-3.63,3.63s1.63,3.63,3.63,3.63h0v-7.26Z" style="fill:#7fdf56;"/><polygon points="31.5 14.65 8.21 14.65 6.05 14.65 6.05 16.8 6.05 28.23 6.05 30.39 8.21 30.39 31.5 30.39 33.66 30.39 33.66 28.23 33.66 16.8 33.66 14.65 31.5 14.65" style="fill:#e0f5f8;"/><path d="M7.35,18.26v8.52c1.29,0,2.3,1.03,2.3,2.32h20.42c0-1.29,1.01-2.32,2.3-2.32v-8.52c-1.29,0-2.3-1.03-2.3-2.32H9.65c0,1.29-1.01,2.32-2.3,2.32Z" style="fill:#99dee8;"/><path d="M23.49,22.52c0-2.01-1.62-3.63-3.63-3.63s-3.63,1.62-3.63,3.63,1.63,3.63,3.63,3.63,3.63-1.62,3.63-3.63Z" style="fill:#eba06a;"/><rect x="6.05" y="14.65" width="13.79" height="15.74" style="fill:#ade5ed;"/><path d="M19.85,15.94h-10.2c0,1.29-1.01,2.32-2.3,2.32v8.52c1.29,0,2.3,1.03,2.3,2.32h10.2v-13.16Z" style="fill:#33bdd1;"/><path d="M19.85,18.89c-2,0-3.62,1.63-3.62,3.63s1.62,3.62,3.62,3.63v-7.26Z" style="fill:#de6106;"/></g></svg>