<?xml version="1.0" encoding="UTF-8"?><svg id="b" xmlns="http://www.w3.org/2000/svg" xmlns:xlink="http://www.w3.org/1999/xlink" viewBox="0 0 42.52 42.52"><defs><clipPath id="d"><path d="M33.25,20.89c0,6.76-5.48,12.24-12.24,12.24s-12.24-5.48-12.24-12.24,5.48-12.24,12.24-12.24,12.24,5.48,12.24,12.24" style="fill:none;"/></clipPath></defs><g id="c"><circle cx="21.26" cy="21.26" r="21.26" style="fill:#fff; opacity:.35;"/><g style="opacity:.3;"><path d="M32.2,22.87c0-6.76-5.48-12.24-12.24-12.24-.59,0-1.16.06-1.72.13-.28-.45-.61-.87-.98-1.24-.66-.66-1.45-1.18-2.31-1.54s-1.79-.54-2.72-.53c-.96,0-1.91.21-2.78.58h-.01s-.07.03-.11.05c-.22.1-.42.21-.63.33-.11.06-.22.12-.32.18-.03.02-.06.03-.09.05-.22.15-.43.32-.63.49-.05.04-.1.07-.14.11-.56.5-1.04,1.08-1.41,1.72,0,0,0,0,0,.01h0c-.16.28-.31.56-.43.85-.54,1.3-.68,2.73-.41,4.11.27,1.38.95,2.65,1.95,3.64.25.25.52.48.81.69-.18.83-.28,1.7-.28,2.58,0,6.76,5.48,12.24,12.24,12.24s12.24-5.48,12.24-12.24Z"/><path d="M37.83,25.2l-2.02-1.9c-.21-.2-.54-.19-.74.02l-1.93,2.05c-.2.21-.19.54.02.74.11.1.24.15.37.14.13,0,.27-.06.36-.16l1.08-1.15c-.21,6.84-5.7,12.45-12.63,12.67-.29,0-.52.25-.51.54,0,.29.25.52.54.51,7.49-.24,13.44-6.31,13.64-13.71l1.09,1.02c.21.2.54.19.74-.02.2-.21.19-.54-.02-.74Z"/></g><path d="M33.25,20.89c0,6.76-5.48,12.24-12.24,12.24s-12.24-5.48-12.24-12.24,5.48-12.24,12.24-12.24,12.24,5.48,12.24,12.24" style="fill:#00adc6;"/><g style="clip-path:url(#d);"><path d="M33.19,16.65l-3.9-5.31s-1.33.11-2.27.52c-.94.4-2.03,1.76-2.84,1.76s-2.5-.03-3.04.22c-.53.25-.65,1.03-.85,1.22s-.5.16-.8.05c-.3-.11-.91-.05-1.16.16-.24.22-.24.79-.22.87l.4.46-.53.65c-.05.08-.48.84.3.95.78.11,1.48-.52,1.8-.68.32-.16,1.61.84,1.94.87.12.01.34-.06.59-.12.39-.11.83-.21,1.08-.01.4.33.22,1.06-.32,1.57s-2.1.22-2.45.05c-.35-.16-.97-.72-2.05-.49-1.08.23-1.97,1.52-2.31,2.36-.35.84.13,1.57.74,1.95.36.23.79.22,1.22.21.29,0,.57-.01.84.05.67.16,1.29.92,1.37,1.41.08.49.05,2.9.13,3.84.08.93.96,1.38,1.59,1.18.63-.2,1.35-1.74,1.8-2.74.46-1,1.45-3.06,1.75-3.96.3-.89-.54-1.79-.54-1.79,0,0,1.24,0,1.53-.3.3-.3.13-1.41.13-1.41.47.06,1.94,2.09,2.34,2.3.4.22,1.56.19,2.5-1.55.94-1.74,1.52-1.75,1.52-1.75l-.31-2.56" style="fill:#027180;"/><path d="M17.29,13.58s.71-.14,1.39-.68c.67-.54,1.08-.53,1.32-1.09.24-.57-.02-1.05-.83-1.08-.81-.03-1.27.16-1.59.6-.32.43-.89,1.75-.76,2.06.12.31.48.19.48.19" style="fill:#027180;"/><path d="M15.88,11.68c-.03-.59-.24-.4-.46-.2-.12.11-.25.22-.35.2-.3-.06-1.13-1.49-1.13-1.49l-4.47,4.75s.24,2.43.7,4.01c.46,1.58.96,2.22.54,2.82-.37.53-1.01.28-1.53,1.79-.51,1.51.29,3.36.34,3.78.05.42,4.49,3.92,4.49,3.92,0,0-.27-1.84-.24-2.25s1.15-2.3,1.49-3.14c.34-.84.3-2.15-.17-2.58-.47-.43-2.16-.65-2.87-1.36-.71-.7-1.44-2.14-.98-3.39.46-1.25,1.06-1.44,1.32-1,.26.44,1.24.87,1.72.33.48-.54,1.24-1.52,1.2-1.9-.04-.38-.82-1.88-.69-2.36.14-.48,1.13-1,1.08-1.92" style="fill:#027180;"/><path d="M26.82,27.08c-.33.14-.76,1.31-.9,1.74-.14.42.11,1.44,1.17.79,0,0,.82-1.49.63-2.03-.19-.54-.57-.62-.9-.49Z" style="fill:#027180;"/><path d="M14.36,27.69c-.31.59-.56,1.12-.58,1.31-.02.29.11,1.33.19,1.89,1.99,1.41,4.42,2.23,7.05,2.23,1.39,0,2.72-.23,3.96-.66-1.11-.04-2.31-.21-3.61-.56-3.23-.86-5.49-2.39-7.02-4.22M11.11,19.36c0,.64.22,1.28.53,1.8-.07-.57-.1-1.13-.11-1.68-.14-.04-.28-.08-.42-.12M9.06,18.31c-.18.83-.27,1.7-.27,2.59,0,.99.12,1.95.34,2.88.02-.07.04-.14.06-.21.51-1.51,1.15-1.26,1.53-1.79.42-.59-.07-1.23-.53-2.78-.4-.19-.77-.42-1.13-.68" style="fill:#009db4;"/><path d="M10.18,18.99c.45,1.55.94,2.19.53,2.78-.37.53-1.01.28-1.53,1.79-.02.07-.04.14-.06.21.71,2.93,2.46,5.44,4.85,7.13-.08-.56-.21-1.6-.19-1.89.01-.19.27-.72.58-1.31-1.65-1.98-2.45-4.31-2.72-6.54-.31-.52-.53-1.16-.53-1.8-.32-.1-.62-.22-.92-.37" style="fill:#026774;"/><path d="M24.18,10.06c-.26,0-.53.04-.65.18-.26.32.95,1.08,1.76,1.37.33.12.69.35,1.05.63.23-.17.45-.31.67-.4.19-.08.39-.15.59-.21-.76-.66-1.83-1.31-2.84-1.53,0,0-.28-.05-.58-.05" style="fill:#5ecbdb;"/><path d="M27.6,11.64c-.2.06-.41.13-.59.21-.22.09-.44.24-.67.4.54.42,1.05.94,1.38,1.29.19.2.37.29.53.29.28,0,.47-.31.44-.77-.02-.32-.45-.87-1.08-1.42" style="fill:#5fa5af;"/></g><path d="M20.39,12.58c0,1.41-.42,2.78-1.2,3.95-.78,1.17-1.89,2.08-3.19,2.62-1.3.54-2.73.68-4.11.41-1.38-.27-2.65-.95-3.64-1.95-.99-.99-1.67-2.26-1.95-3.64-.27-1.38-.13-2.81.41-4.11.54-1.3,1.45-2.41,2.62-3.19,1.17-.78,2.54-1.2,3.95-1.2.93,0,1.86.18,2.72.53.86.36,1.65.88,2.31,1.54.66.66,1.18,1.45,1.54,2.31.36.86.54,1.79.53,2.72" style="fill:#fcd385;"/><path d="M13.32,5.48s-.02,0-.04,0c-.96,0-1.91.19-2.79.57l1.26,1.43,6.41,7.25,1.26,1.43c-.77,1.32-1.94,2.36-3.35,2.96l-1.26-1.43-6.41-7.25-1.26-1.43c.76-1.3,1.91-2.33,3.29-2.94-.38.17-.75.37-1.09.6-1.17.78-2.08,1.89-2.62,3.19-.36.86-.54,1.78-.54,2.71,0,.47.04.94.14,1.4.27,1.38.95,2.65,1.95,3.64.99.99,2.26,1.67,3.64,1.95.46.09.92.14,1.39.14.93,0,1.85-.18,2.72-.54,1.3-.54,2.41-1.45,3.19-2.62.78-1.17,1.2-2.54,1.2-3.95,0-.01,0-.03,0-.04,0-.92-.18-1.83-.53-2.68-.16-.38-.34-.74-.56-1.08-.28-.44-.61-.85-.98-1.23-.66-.66-1.45-1.18-2.31-1.54-.85-.35-1.77-.53-2.69-.53" style="fill:#fbc66f;"/><path d="M10.49,6.05s-.04.02-.07.03c.02,0,.04-.02.07-.03h0" style="fill:#fff;"/><path d="M10.49,6.05s-.04.02-.07.03c-1.38.61-2.53,1.63-3.29,2.94l1.26,1.43,6.41,7.25,1.26,1.43c1.41-.6,2.58-1.64,3.35-2.96l-1.26-1.43-6.41-7.25-1.26-1.43" style="fill:#fcd18c;"/><path d="M13.28,18.07c-1.46,0-2.84-.57-3.88-1.61-2.14-2.14-2.14-5.62,0-7.75,1.04-1.04,2.41-1.61,3.88-1.61s2.84.57,3.88,1.61c2.14,2.14,2.14,5.62,0,7.75-1.04,1.04-2.41,1.61-3.88,1.61ZM13.28,7.41c-1.38,0-2.68.54-3.66,1.52-2.02,2.02-2.02,5.3,0,7.32.98.98,2.28,1.52,3.66,1.52s2.68-.54,3.66-1.52c2.02-2.02,2.02-5.3,0-7.32-.98-.98-2.28-1.52-3.66-1.52Z" style="fill:#fff;"/><path d="M38.88,23.21l-2.02-1.9c-.21-.2-.54-.19-.74.02l-1.93,2.05c-.2.21-.19.54.02.74.11.1.24.15.38.14s.27-.06.36-.16l1.08-1.15c-.21,6.84-5.7,12.45-12.63,12.67-.29,0-.52.25-.51.54s.25.52.54.51c7.49-.24,13.44-6.31,13.64-13.71l1.09,1.02c.21.2.54.19.74-.02.2-.21.19-.54-.02-.74Z" style="fill:#fcd385;"/></g></svg>