<?xml version="1.0" encoding="UTF-8"?><svg id="b" xmlns="http://www.w3.org/2000/svg" viewBox="0 0 42.52 42.52"><g id="c"><circle cx="21.26" cy="21.26" r="21.26" style="fill:#fff; opacity:.35;"/><path d="M34.48,16.86h0s-.02,0-.02,0c-.81-1.92-1.98-3.69-3.49-5.19-1.55-1.55-3.38-2.75-5.37-3.56v-.02s.01-.01.01-.01h-.01c-1.96-.8-4.02-1.2-6.14-1.2-.04,0-.07,0-.11,0-.77,0-1.53.08-2.28.19-.02,0-.03,0-.05,0-.63.1-1.26.23-1.87.4-.03,0-.05.01-.08.02-.4.11-.79.24-1.18.38-.06.02-.12.04-.18.06-.04.01-.08.03-.12.05,0,0,0,0,0,0-.03.01-.06.03-.1.04-.12.05-.25.08-.37.13h-.01s0,.02,0,.02c-.07.03-.14.07-.21.1-.28.12-.56.25-.83.39-.16.08-.33.16-.48.25-.32.18-.64.37-.95.57-.15.1-.3.19-.44.29-.31.22-.62.44-.91.68-.15.12-.3.25-.44.37-.22.19-.44.38-.65.59-.09.09-.19.16-.27.25-.05.05-.1.11-.15.17-.25.25-.48.52-.71.79-.15.18-.3.36-.45.55-.2.25-.39.51-.58.78-.12.18-.23.36-.35.54-.14.22-.28.45-.4.68-.11.19-.21.38-.31.57-.14.27-.26.54-.39.82-.07.16-.15.32-.22.48h-.01s-.01,0-.01,0h0c-.81,2-1.21,4.11-1.2,6.26,0,.22.03.43.04.65,0,.14.01.28.02.42.07.95.22,1.88.45,2.8.03.12.06.23.09.35,0,.01,0,.03.01.04,0,0,0,0,0,0,.08.28.16.56.26.84.03.08.05.15.08.23.03.07.06.15.08.22.08.23.16.46.25.68h0s.01,0,.01,0c.02.04.04.09.06.13.12.28.25.55.39.82.12.25.26.5.39.74.16.28.32.55.49.82.11.18.24.35.36.52.16.22.32.44.48.65.13.16.25.33.39.49.22.26.46.52.7.77.08.08.15.17.23.25.07.07.16.14.23.21.26.25.53.49.8.72.15.13.3.24.46.36.23.18.47.36.71.52.16.11.31.22.47.32.32.21.66.41.99.59.13.07.27.14.4.21.34.18.69.34,1.05.5.09.04.17.08.26.11h0s0,.02,0,.02h.01c1.72.7,3.51,1.08,5.35,1.17,0,0,.01,0,.02,0,.26.01.51.04.77.04h.11c1.29,0,2.55-.18,3.79-.49.06-.02.12-.03.18-.05.77-.2,1.53-.43,2.26-.75h.01s0-.02,0-.02c2.94-1.24,5.45-3.31,7.22-5.96.61-.92,1.12-1.89,1.53-2.9h.02s.01.01.01.01h0c.81-2,1.21-4.11,1.2-6.26-.01-2.15-.45-4.25-1.28-6.23ZM27.05,30.78c-.99.99-2.16,1.77-3.42,2.3h0s-.01,0-.01,0c-1.26.53-2.58.81-3.91.84-.07,0-.13,0-.2,0-.32,0-.65-.01-.97-.04-.07,0-.13-.01-.19-.02-.26-.03-.52-.06-.78-.11-.07-.01-.14-.03-.21-.04-.64-.13-1.27-.32-1.89-.56-.68-.28-1.34-.62-1.96-1.03-1.75-1.17-3.11-2.83-3.93-4.76h0s0-.01,0-.01c-.27-.65-.48-1.32-.62-1.99,0-.02,0-.04-.01-.05-.13-.65-.2-1.32-.21-1.98,0-.08,0-.15,0-.23,0-.24.01-.49.03-.73,0-.09.01-.18.02-.27.03-.29.07-.57.12-.85,0-.03,0-.05.01-.08.06-.33.14-.65.24-.97.01-.04.02-.07.04-.11.09-.28.19-.57.3-.85.54-1.35,1.34-2.59,2.38-3.63s2.15-1.76,3.43-2.3h0s.01,0,.01,0c.98-.41,1.99-.67,3.01-.78.05,0,.1,0,.14-.01.27-.03.54-.04.8-.04.08,0,.17,0,.25,0,.28,0,.56.01.84.04.04,0,.07,0,.11,0,.32.03.64.08.96.14.06.01.12.03.18.04.26.05.53.12.79.19.06.02.13.04.19.06.31.09.62.2.92.32h.01s0,0,0,0c.02,0,.03.01.05.02,1.96.81,3.64,2.19,4.82,3.96.38.57.7,1.17.96,1.8h0s0,.01,0,.01c.28.66.49,1.33.63,2.02,0,0,0,.01,0,.02.06.31.11.61.14.92,0,.06.01.12.02.18.03.3.05.59.05.89,0,.03,0,.06,0,.09,0,.18-.01.36-.02.54,0,.17,0,.35-.03.52-.02.21-.06.41-.09.62-.02.14-.03.27-.06.41-.06.28-.13.56-.21.84-.02.05-.03.11-.04.16-.1.34-.22.67-.35,1h0s0,.01,0,.01c-.54,1.31-1.33,2.51-2.35,3.53Z" style="opacity:.17;"/><path d="M31.84,20.97c0,1.32-.26,2.58-.73,3.73l5.91,2.4c.77-1.89,1.2-3.96,1.2-6.14s-.45-4.37-1.27-6.31l-5.88,2.48c.49,1.18.77,2.47.77,3.83Z" style="fill:#fff;"/><path d="M18.09,11.81l-2.49-5.88c-3.98,1.68-7.14,4.88-8.77,8.88l5.9,2.42c.99-2.44,2.93-4.4,5.36-5.42" style="fill:#de6106;"/><path d="M31.07,17.14l5.88-2.48c-1.68-3.98-4.89-7.15-8.9-8.78l-2.4,5.91c2.44.99,4.4,2.93,5.42,5.36Z" style="fill:#de6106;"/><path d="M21.92,11.05c1.32,0,2.58.26,3.73.73l2.4-5.91c-1.9-.77-3.96-1.2-6.14-1.2s-4.38.45-6.32,1.27l2.49,5.88c1.18-.49,2.47-.77,3.83-.77" style="fill:#fff;"/><path d="M21.92,30.89c-1.32,0-2.58-.26-3.73-.73l-2.42,5.9c1.9.77,3.97,1.21,6.15,1.21s4.37-.45,6.31-1.27l-2.48-5.88c-1.18.49-2.47.77-3.83.77" style="fill:#fff;"/><path d="M37.02,27.1l-5.91-2.4c-.99,2.44-2.93,4.4-5.36,5.42l2.48,5.88c3.98-1.68,7.15-4.89,8.78-8.9Z" style="fill:#de6106;"/><path d="M12,20.97c0-1.32.26-2.58.73-3.73l-5.9-2.42c-.77,1.9-1.21,3.97-1.21,6.15s.45,4.38,1.27,6.32l5.88-2.49c-.49-1.18-.77-2.47-.77-3.83" style="fill:#fff;"/><path d="M12.77,24.8l-5.88,2.49c1.67,3.97,4.88,7.14,8.88,8.77l2.42-5.9c-2.44-.99-4.41-2.93-5.42-5.36" style="fill:#de6106;"/><path d="M21.17,4.69s-.06,0-.09,0c.03,0,.06,0,.09,0M21.26,4.69s-.06,0-.09,0c.03,0,.06,0,.09,0M21.44,4.68c-.06,0-.12,0-.18,0,.06,0,.12,0,.18,0M21.53,4.68s-.06,0-.08,0c.03,0,.06,0,.08,0M21.63,4.68s-.05,0-.08,0c.03,0,.05,0,.08,0M21.72,4.68s-.05,0-.08,0c.03,0,.05,0,.08,0M21.82,4.68s-.05,0-.08,0c.03,0,.05,0,.08,0M21.91,4.68s-.06,0-.09,0c.03,0,.06,0,.09,0" style="fill:#e5e5e5;"/><path d="M5.65,19.95s0,0,0,0c0,0,0,0,0,0M5.65,19.9s0,0,0,0c0,0,0,0,0,0M5.66,19.86s0,0,0,0c0,0,0,0,0,0M5.66,19.81h0s0,0,0,0M11.34,8.57c-.33.28-.64.57-.95.87-1.55,1.55-2.76,3.38-3.57,5.37h0s0,0,0,0h0c.99-2.43,2.55-4.57,4.51-6.25" style="fill:#e5e5e5;"/><path d="M15.6,5.95c-1.54.65-2.98,1.53-4.26,2.63-1.96,1.68-3.52,3.82-4.51,6.25l.52.21,1.9.77c.72-2.15,1.89-4.15,3.45-5.86,1.01-1.1,2.15-2.04,3.4-2.82l-.5-1.18s0,0,0,0h0" style="fill:#c85705;"/><path d="M21.08,4.7c-1.9.1-3.75.52-5.48,1.25h0c.19-.08.38-.16.57-.23,1.56-.59,3.21-.94,4.9-1.02" style="fill:#e5e5e5;"/><path d="M8.83,30.68c.47.64.99,1.24,1.56,1.81,1.22,1.22,2.61,2.23,4.12,3-2.25-1.15-4.19-2.8-5.68-4.8M8.81,30.66s0,0,0,.01c0,0,0,0,0-.01M5.62,21.06s0,0,0,0c0,0,0,0,0,0M5.62,20.87h0s0,0,0,0h0M5.62,20.82h0s0,0,0,0h0M5.62,20.76h0s0,0,0,0h0M5.64,20.11s0,0,0,0h0M5.64,20.06h0s0,0,0,0h0M5.65,20.01s0,0,0,0c0,0,0,0,0,0h0" style="fill:#e5e5e5;"/><path d="M21.79,37.26s.01,0,.02,0c0,0-.01,0-.02,0M21.74,37.26h.02s-.01,0-.02,0M21.69,37.26s.01,0,.02,0c0,0-.01,0-.02,0M21.64,37.26s.01,0,.02,0c0,0-.01,0-.02,0M21.59,37.26s.01,0,.02,0c0,0-.01,0-.02,0M21.54,37.26s.01,0,.02,0c0,0-.01,0-.02,0M21.49,37.25s.01,0,.02,0c0,0-.01,0-.02,0M21.44,37.25s.01,0,.02,0c0,0-.01,0-.02,0M21.39,37.25s0,0,.01,0c0,0,0,0-.01,0M21.34,37.25s.01,0,.02,0c0,0-.01,0-.02,0M21.29,37.25s.01,0,.02,0c0,0-.01,0-.02,0M21.24,37.25s0,0,.01,0c0,0,0,0-.01,0M21.19,37.24s0,0,.01,0c0,0,0,0-.01,0M21.14,37.24s0,0,.01,0c0,0,0,0-.01,0M21.09,37.24s0,0,.01,0c0,0,0,0-.01,0M21.04,37.24s0,0,.01,0c0,0,0,0-.01,0M20.99,37.23s0,0,.01,0c0,0,0,0-.01,0M20.94,37.23s0,0,.01,0c0,0,0,0-.01,0M20.89,37.23s0,0,.01,0c0,0,0,0-.01,0M20.84,37.22s0,0,.01,0c0,0,0,0-.01,0M20.79,37.22s0,0,.01,0c0,0,0,0-.01,0M20.75,37.22s0,0,0,0c0,0,0,0,0,0M20.7,37.21s0,0,0,0c0,0,0,0,0,0M20.65,37.21s0,0,0,0c0,0,0,0,0,0M20.6,37.21s0,0,0,0c0,0,0,0,0,0M20.55,37.2h0s0,0,0,0M20.5,37.2s0,0,0,0c0,0,0,0,0,0M20.45,37.19h0s0,0,0,0M23.24,37.19s0,0,.01,0c0,0,0,0-.01,0M20.4,37.19s0,0,0,0c0,0,0,0,0,0M23.18,37.19s0,0,.01,0c0,0,0,0-.01,0M20.35,37.18s0,0,0,0c0,0,0,0,0,0M23.13,37.18s0,0,.01,0c0,0,0,0-.01,0M23,37.17s0,0,0,0c0,0,0,0,0,0M22.95,37.16s0,0,.01,0c0,0,0,0-.01,0M20.15,37.16h0,0M22.89,37.16s0,0,0,0c0,0,0,0,0,0M22.72,37.14h0s0,0,0,0M22.66,37.13s0,0,0,0c0,0,0,0,0,0M17.13,36.54h0s0,0,0,0M17.08,36.53s0,0,0,0c0,0,0,0,0,0M17.03,36.51s0,0,0,0c0,0,0,0,0,0M16.98,36.5s0,0,0,0c0,0,0,0,0,0M16.93,36.48s0,0,.01,0h-.01M16.88,36.46s0,0,.01,0c0,0,0,0-.01,0M16.84,36.45s.01,0,.02,0c0,0-.01,0-.02,0M16.79,36.43s0,0,.01,0c0,0,0,0-.01,0M16.74,36.42s.01,0,.02,0c0,0-.01,0-.02,0M16.69,36.4s.02,0,.02,0c0,0-.02,0-.02,0M16.64,36.38s.02,0,.03.01c-.01,0-.02,0-.03-.01M16.6,36.37s.02,0,.03.01h-.03M16.55,36.35s.02,0,.04.01c-.01,0-.02,0-.04-.01M16.45,36.32s.06.02.09.03c-.03-.01-.06-.02-.09-.03M15.77,36.06h0c.23.09.45.18.68.26-.23-.08-.46-.17-.68-.26" style="fill:#e5e5e5;"/><path d="M5.75,23.02c.19,1.48.57,2.91,1.15,4.27l.61-.26-.6.26c-.58-1.38-.96-2.81-1.15-4.27M5.72,22.82s0,0,0,.01c0,0,0,0,0-.01M8.42,21.56h0s0,0,0,0M8.42,21.48h0s0,0,0,0M8.41,21.31h0s0,0,0,0M8.41,21.22s0,0,0,0c0,0,0,0,0,0M5.62,21.16c0,.55.04,1.1.1,1.65-.06-.55-.1-1.1-.1-1.65M8.41,21.13h0s0,0,0,0M5.62,21.1s0,.03,0,.05c0-.02,0-.03,0-.05M8.41,21.05h0s0,0,0,0M5.62,21.04v.02s0,0,0,0v.02s0-.03,0-.04M5.62,20.97h0s0,.04,0,.06c0-.02,0-.04,0-.06M8.41,20.88h0s0,0,0,0M5.62,20.85v.02h0v-.02M5.62,20.8s0,.01,0,.02h0s0-.01,0-.02M8.41,20.8s0,0,0,.01c0,0,0,0,0-.01M5.62,20.74s0,.01,0,.02h0s0-.01,0-.02M8.41,20.71h0s0,0,0,0M5.62,20.69s0,.01,0,.02c0,0,0-.01,0-.02M5.62,20.65s0,.01,0,.02c0,0,0-.01,0-.02M5.62,20.6s0,.01,0,.02c0,0,0-.01,0-.02M5.62,20.55s0,0,0,.01c0,0,0,0,0-.01M8.42,20.55s0,0,0,.01c0,0,0,0,0-.01M5.63,20.51s0,0,0,0c0,0,0,0,0,0M8.42,20.47s0,0,0,0c0,0,0,0,0,0M5.63,20.46s0,0,0,0c0,0,0,0,0,0M5.63,20.4s0,0,0,.01c0,0,0,0,0-.01M8.42,20.39s0,0,0,0c0,0,0,0,0,0M5.63,20.35s0,0,0,0c0,0,0,0,0,0M5.63,20.31s0,0,0,0c0,0,0,0,0,0M5.63,20.25s0,0,0,0c0,0,0,0,0,0M8.43,20.22s0,0,0,0c0,0,0,0,0,0M5.64,20.21s0,0,0,0c0,0,0,0,0,0M5.64,20.16s0,0,0,0c0,0,0,0,0,0M8.43,20.14h0s0,0,0,0M5.64,20.1s0,0,0,0h0s0,0,0,0M5.64,20.05s0,0,0,0h0s0,0,0,0M5.65,20.01s0,0,0,0h0s0,0,0,0M6.83,14.82s0,0,0,0l.52.21-.52-.21" style="fill:#e5e5e5;"/><path d="M9.3,26.27l-1.8.76-.61.26c.5,1.19,1.14,2.32,1.92,3.37,0,0,0,0,0,.01,0,0,0,0,0,0,1.49,2.01,3.44,3.66,5.68,4.8.41.21.83.4,1.26.58h0s0,0,0,0l.47-1.17c-1.3-.79-2.5-1.77-3.55-2.91-1.53-1.66-2.68-3.61-3.4-5.71" style="fill:#c85705;"/><path d="M22.29,4.86s0,0,0,0c0,0,0,0,0,0M22.35,4.85s0,0,0,0c0,0,0,0,0,0M22.47,4.83s0,0,0,0c0,0,0,0,0,0M22.53,4.82s0,0,0,0c0,0,0,0,0,0M22.59,4.81s0,0,0,0c0,0,0,0,0,0M22.71,4.8s0,0,0,0c0,0,0,0,0,0M22.77,4.79s0,0,0,0c0,0,0,0,0,0M22.83,4.78s0,0,0,0c0,0,0,0,0,0M22.89,4.78s0,0,0,0c0,0,0,0,0,0M22.95,4.77s0,0-.01,0c0,0,0,0,.01,0M23.01,4.76s0,0-.01,0c0,0,0,0,.01,0M23.07,4.76s0,0,0,0c0,0,0,0,0,0M23.13,4.75s0,0-.01,0c0,0,0,0,.01,0M23.19,4.75s-.01,0-.02,0c0,0,.01,0,.02,0M23.25,4.74s-.01,0-.01,0c0,0,.01,0,.01,0" style="fill:#e5e5e5;"/><path d="M22.34,4.85s-.04,0-.06,0c.02,0,.04,0,.06,0M22.46,4.83s-.08.01-.12.02c.04,0,.08-.01.12-.02M22.52,4.82s-.04,0-.06,0c.02,0,.04,0,.06,0M22.58,4.81s-.04,0-.05,0c.02,0,.04,0,.05,0M22.7,4.8s-.08,0-.12.01c.04,0,.08-.01.12-.01M22.76,4.79s-.03,0-.05,0h.05M22.82,4.78s-.03,0-.05,0c.02,0,.03,0,.05,0M22.88,4.78s-.04,0-.06,0c.02,0,.04,0,.06,0M22.94,4.77s-.04,0-.05,0c.02,0,.04,0,.05,0M23,4.76s-.03,0-.04,0c.01,0,.03,0,.04,0M23.06,4.76s-.03,0-.05,0c.02,0,.03,0,.05,0M23.12,4.75s-.04,0-.06,0c.02,0,.04,0,.06,0M23.18,4.75s-.03,0-.04,0c.01,0,.03,0,.04,0M23.24,4.74s-.03,0-.04,0c.01,0,.03,0,.04,0M23.31,4.74s-.04,0-.06,0c.02,0,.04,0,.06,0M21.08,4.7h0,0M21.17,4.69s0,0,0,0h0M21.26,4.69h0s0,0,0,0M21.45,4.68s0,0,0,0c0,0,0,0,0,0M21.55,4.68s0,0-.01,0c0,0,0,0,.01,0M21.64,4.68s0,0-.01,0c0,0,0,0,.01,0M21.73,4.68s0,0-.01,0c0,0,0,0,.01,0M21.83,4.68h-.01.01" style="fill:#f5f2f7;"/><polyline points="16.1 7.13 16.1 7.13 16.1 7.13 16.1 7.13 16.1 7.13" style="fill:#d55c06;"/><path d="M22.28,4.86c-2.21.33-4.31,1.11-6.18,2.27h0c1.87-1.16,3.98-1.94,6.18-2.27" style="fill:#f5f2f7;"/><polyline points="15.6 5.95 15.6 5.95 16.1 7.13 16.1 7.13 15.6 5.95" style="fill:#c05205;"/><path d="M21.91,4.68h0s-.06,0-.09,0h-.01s-.05,0-.08,0c0,0,0,0-.01,0-.03,0-.05,0-.08,0,0,0,0,0-.01,0-.03,0-.05,0-.08,0,0,0,0,0-.01,0-.03,0-.06,0-.08,0,0,0,0,0,0,0-.06,0-.12,0-.18,0h0s-.06,0-.09,0h0s-.06,0-.09,0h0c-1.69.09-3.34.43-4.9,1.02-.19.07-.38.15-.57.23l.5,1.18c1.87-1.16,3.98-1.94,6.18-2.27,0,0,0,0,0,0,.02,0,.04,0,.06,0,0,0,0,0,0,0,.04,0,.08-.01.12-.02,0,0,0,0,0,0,.02,0,.04,0,.06,0,0,0,0,0,0,0,.02,0,.04,0,.05,0,0,0,0,0,0,0,.04,0,.08-.01.12-.01,0,0,0,0,0,0,.02,0,.03,0,.05,0,0,0,0,0,0,0,.02,0,.03,0,.05,0,0,0,0,0,0,0,.02,0,.04,0,.06,0,0,0,0,0,0,0,.02,0,.04,0,.05,0,0,0,0,0,.01,0,.01,0,.03,0,.04,0,0,0,0,0,.01,0,.02,0,.03,0,.05,0,0,0,0,0,0,0,.02,0,.04,0,.06,0,0,0,0,0,.01,0,.01,0,.03,0,.04,0,0,0,.01,0,.02,0,.01,0,.03,0,.04,0,0,0,.01,0,.01,0,.02,0,.04,0,.06,0h0c-.46-.04-.93-.06-1.4-.06" style="fill:#dcdade;"/><path d="M21.81,37.26s.07,0,.1,0c-.03,0-.07,0-.1,0M21.76,37.26s.02,0,.03,0c-.01,0-.02,0-.03,0M21.71,37.26s.02,0,.03,0c-.01,0-.02,0-.03,0M21.66,37.26s.02,0,.03,0c-.01,0-.02,0-.03,0M21.61,37.26s.02,0,.03,0c-.01,0-.02,0-.03,0M21.56,37.26s.02,0,.03,0c0,0-.02,0-.03,0M21.51,37.25s.02,0,.03,0c-.01,0-.02,0-.03,0M21.46,37.25s.02,0,.03,0c-.01,0-.02,0-.03,0M21.41,37.25s.02,0,.03,0c-.01,0-.02,0-.03,0M21.36,37.25s.02,0,.04,0c-.01,0-.02,0-.04,0M21.31,37.25s.02,0,.03,0c-.01,0-.02,0-.03,0M21.26,37.25s.02,0,.04,0c-.01,0-.02,0-.04,0M21.21,37.24s.02,0,.04,0c-.01,0-.02,0-.04,0M21.16,37.24s.02,0,.04,0c-.01,0-.02,0-.04,0M21.11,37.24s.02,0,.04,0c-.01,0-.02,0-.04,0M21.06,37.24s.02,0,.04,0c-.01,0-.02,0-.04,0M21.01,37.23s.02,0,.04,0c-.01,0-.02,0-.04,0M20.96,37.23s.02,0,.04,0c-.01,0-.02,0-.04,0M20.91,37.23s.02,0,.04,0c-.01,0-.02,0-.04,0M20.86,37.23s.02,0,.04,0c-.01,0-.02,0-.04,0M20.81,37.22s.02,0,.04,0c-.01,0-.02,0-.04,0M20.75,37.22s.03,0,.04,0c-.01,0-.03,0-.04,0M20.7,37.22s.03,0,.04,0c-.01,0-.03,0-.04,0M20.65,37.21s.03,0,.04,0c-.01,0-.03,0-.04,0M20.6,37.21s.03,0,.04,0c-.01,0-.03,0-.04,0M20.55,37.2s.03,0,.04,0c-.01,0-.03,0-.04,0M20.5,37.2s.03,0,.04,0c-.01,0-.03,0-.04,0M23.25,37.2s.04,0,.06,0h0s-.04,0-.06,0M20.45,37.19s.03,0,.04,0c-.01,0-.03,0-.04,0M20.4,37.19s.03,0,.04,0c-.01,0-.03,0-.04,0M23.2,37.19s.03,0,.04,0c-.01,0-.03,0-.04,0M20.35,37.19s.03,0,.04,0c-.01,0-.03,0-.04,0M23.14,37.18s.03,0,.04,0c-.01,0-.03,0-.04,0M23.01,37.17s.07,0,.11.01c-.04,0-.07,0-.11-.01M22.96,37.17h.05s-.03,0-.05,0M20.15,37.16c.07,0,.13.01.2.02-.07,0-.13-.01-.2-.02M22.9,37.16s.03,0,.05,0c-.02,0-.03,0-.05,0M22.72,37.14c.06,0,.11.01.17.02-.06,0-.11-.01-.17-.02M22.66,37.13s.04,0,.06,0c-.02,0-.04,0-.06,0M17.13,36.54c.98.3,2,.51,3.03.62-1.03-.11-2.04-.32-3.03-.62M17.08,36.53s.03,0,.04.01c-.01,0-.03,0-.04-.01M17.03,36.51s.03,0,.04.01c-.01,0-.03,0-.04-.01M16.99,36.5s.03,0,.04.01c-.01,0-.03,0-.04-.01M16.94,36.48s.03,0,.04.01c-.01,0-.03,0-.04-.01M16.9,36.47s.02,0,.03.01c-.01,0-.02,0-.03-.01M16.85,36.45s.02,0,.03,0c-.01,0-.02,0-.03,0M16.8,36.44s.02,0,.03.01c-.01,0-.02,0-.03-.01M16.76,36.42s.02,0,.03.01c-.01,0-.02,0-.03-.01M16.71,36.41s.02,0,.03,0c0,0-.02,0-.03,0M16.67,36.4s.01,0,.02,0c0,0-.01,0-.02,0M16.63,36.38s.01,0,.02,0c0,0-.01,0-.02,0M16.58,36.36s0,0,.01,0c0,0,0,0-.01,0M16.54,36.35s0,0,0,0c0,0,0,0,0,0M16.45,36.32s0,0,0,0c0,0,0,0,0,0M16.25,34.89h0c1.94,1.18,4.13,1.95,6.41,2.24-2.28-.29-4.47-1.06-6.41-2.24" style="fill:#e5e5e5;"/><polyline points="16.24 34.89 16.24 34.89 16.25 34.9 16.25 34.89 16.24 34.89" style="fill:#c85705;"/><path d="M16.25,34.9l-.48,1.16c.23.09.45.18.68.26,0,0,0,0,0,0,.03.01.06.02.09.03,0,0,0,0,0,0,.01,0,.02,0,.04.01,0,0,0,0,.01,0h.03s.01.01.02.02c.01,0,.02,0,.03.01,0,0,.01,0,.02,0,0,0,.02,0,.02,0,0,0,.02,0,.03,0,0,0,.01,0,.02,0,.01,0,.02,0,.03.01,0,0,0,0,.01,0,.01,0,.02,0,.03.01,0,0,.01,0,.02,0,.01,0,.02,0,.03,0,0,0,0,0,.01,0,.01,0,.02,0,.03.01h.01s.03.01.04.02c0,0,0,0,0,0,.01,0,.03,0,.04.01,0,0,0,0,0,0,.01,0,.03,0,.04.01,0,0,0,0,0,0,.02,0,.03,0,.04.01h0c.98.3,2,.51,3.03.62h0c.07,0,.13.01.2.02,0,0,0,0,0,0,.01,0,.03,0,.04,0,0,0,0,0,0,0,.01,0,.03,0,.04,0h0s.03,0,.04,0c0,0,0,0,0,0,.01,0,.03,0,.04,0h0s.03,0,.04,0c0,0,0,0,0,0,.01,0,.03,0,.04,0,0,0,0,0,0,0,.01,0,.03,0,.04,0,0,0,0,0,0,0,.01,0,.03,0,.04,0,0,0,0,0,0,0,.01,0,.03,0,.04,0,0,0,0,0,.01,0,.01,0,.02,0,.04,0,0,0,0,0,.01,0,.01,0,.02,0,.04,0,0,0,0,0,.01,0,.01,0,.02,0,.04,0,0,0,0,0,.01,0,.01,0,.03,0,.04,0,0,0,0,0,.01,0,.01,0,.02,0,.04,0,0,0,0,0,.01,0,.01,0,.03,0,.04,0,0,0,0,0,.01,0,.01,0,.02,0,.04,0,0,0,0,0,.01,0,.01,0,.02,0,.04,0,0,0,0,0,.01,0,.01,0,.03,0,.04,0,0,0,0,0,.01,0,.01,0,.02,0,.04,0,0,0,.01,0,.02,0,.01,0,.02,0,.03,0,0,0,.01,0,.02,0,.01,0,.02,0,.04,0,0,0,0,0,.01,0,.01,0,.02,0,.03,0,0,0,.01,0,.02,0,.01,0,.02,0,.03,0,0,0,.01,0,.02,0,.01,0,.02,0,.03,0,0,0,.01,0,.02,0,0,0,.02,0,.03,0,0,0,.01,0,.02,0,.01,0,.02,0,.03,0,0,0,.01,0,.02,0,.01,0,.02,0,.03,0,0,0,.01,0,.02,0,.01,0,.02,0,.03,0h.02s.02,0,.03,0c0,0,.01,0,.02,0,.03,0,.07,0,.1,0h0c.47,0,.94-.02,1.4-.06-.02,0-.04,0-.06,0,0,0,0,0-.01,0-.01,0-.03,0-.04,0,0,0,0,0-.01,0-.01,0-.03,0-.04,0,0,0,0,0-.01,0-.04,0-.07,0-.11-.01,0,0,0,0,0,0h-.05s0,0-.01,0c-.02,0-.03,0-.05,0,0,0,0,0,0,0-.06,0-.11-.01-.17-.02h0s-.04,0-.06,0c0,0,0,0,0,0-2.28-.29-4.47-1.06-6.41-2.24" style="fill:#cecece;"/><polyline points="16.24 34.89 15.77 36.06 15.77 36.06 16.25 34.9 16.24 34.89" style="fill:#b44e04;"/><path d="M5.62,21.09h0s0,0,0,0M5.62,21.03h0s0,0,0,0M5.62,20.92s0,.03,0,.05h0s0-.03,0-.05M5.62,20.87s0,.03,0,.04v-.02s0-.01,0-.02M5.62,20.82s0,.02,0,.03h0s0-.02,0-.03M5.62,20.77s0,.02,0,.02c0,0,0,0,0-.01h0M5.62,20.72s0,.01,0,.02c0,0,0-.01,0-.02M5.62,20.67s0,.01,0,.02c0,0,0-.01,0-.02M5.62,20.62s0,.01,0,.02c0,0,0-.01,0-.02M5.62,20.57v.02s0-.01,0-.02M5.63,20.51s0,.02,0,.03c0,0,0-.02,0-.03M5.63,20.46s0,.02,0,.02c0,0,0-.02,0-.02M5.63,20.42s0,.01,0,.02c0,0,0-.01,0-.02M5.63,20.37s0,.01,0,.02c0,0,0-.01,0-.02M5.63,20.31s0,.02,0,.03c0,0,0-.02,0-.03M5.63,20.26s0,.02,0,.03c0,0,0-.02,0-.03M5.64,20.21s0,.02,0,.03c0,0,0-.02,0-.03M5.64,20.16s0,.02,0,.03c0,0,0-.02,0-.03M5.64,20.11s0,.02,0,.03c0-.01,0-.02,0-.03h0M5.64,20.06s0,.02,0,.04c0,0,0-.02,0-.03,0,0,0,0,0-.01M5.65,20.01s0,.03,0,.04c0,0,0-.01,0-.02,0,0,0-.02,0-.02M5.65,19.96s0,.03,0,.04c0,0,0,0,0,0,0-.01,0-.02,0-.04M5.65,19.91s0,.03,0,.04c0-.01,0-.03,0-.04M5.66,19.86s0,.03,0,.05c0-.02,0-.03,0-.05M5.66,19.81s0,.03,0,.05c0-.02,0-.03,0-.05M6.82,14.82c-.64,1.58-1.04,3.26-1.16,4.99.12-1.72.52-3.41,1.16-4.99h0" style="fill:#ebebeb;"/><polyline points="9.25 15.81 9.25 15.81 9.25 15.81 9.25 15.81 9.25 15.81" style="fill:#cd5a06;"/><path d="M5.73,22.83s0,.07.01.1c0,.03,0,.05.01.08,0-.06-.02-.12-.02-.19M5.72,22.81s0,.01,0,.02c0,0,0-.01,0-.02M8.42,21.56c.06,1.61.36,3.2.88,4.71h0c-.52-1.51-.82-3.09-.88-4.71M8.42,21.48s0,.06,0,.08c0-.03,0-.06,0-.08M8.41,21.31c0,.06,0,.11,0,.17,0-.06,0-.11,0-.17M8.41,21.23s0,.05,0,.08c0-.03,0-.05,0-.08M5.62,21.15s0,0,0,0c0,0,0,0,0,0M8.41,21.14s0,.05,0,.08c0-.03,0-.05,0-.08M5.62,21.08h0s0,0,0,0M8.41,21.06s0,.05,0,.08c0-.03,0-.05,0-.08M5.62,21.03h0v.02-.02M8.41,20.97h0s0,.05,0,.08c0-.03,0-.05,0-.08M8.41,20.89s0,.05,0,.08c0-.03,0-.05,0-.08M5.62,20.89v.02h0s0,.05,0,.06h0s0-.05,0-.08M5.62,20.84h0s0,0,0,0M8.41,20.81s0,.05,0,.07c0-.02,0-.05,0-.07M5.62,20.78s0,0,0,.01h0s0,0,0-.01M8.41,20.72s0,.05,0,.07c0-.02,0-.05,0-.07M5.62,20.72h0s0,.01,0,.02h0s0-.01,0-.02M5.62,20.67h0s0,.01,0,.02h0s0,0,0-.02M5.62,20.62h0s0,.01,0,.02c0,0,0,0,0,.01,0-.01,0-.02,0-.03M5.62,20.57h0s0,.01,0,.02c0,0,0,0,0,.01,0-.01,0-.02,0-.03M8.41,20.56c0,.05,0,.1,0,.15,0-.05,0-.1,0-.15M5.63,20.51h0s0,.02,0,.03c0,0,0,0,0,.01,0-.01,0-.03,0-.04M8.42,20.47s0,.05,0,.07v-.07M5.63,20.46h0s0,.02,0,.03c0,0,0,.01,0,.02,0-.01,0-.03,0-.04M5.63,20.41h0s0,.02,0,.02c0,0,0,.01,0,.02v-.04M8.42,20.39s0,.05,0,.08c0-.03,0-.05,0-.08M5.63,20.36h0s0,.02,0,.02c0,0,0,.01,0,.02,0-.01,0-.03,0-.04M5.63,20.31h0s0,.02,0,.03c0,0,0,0,0,.01,0-.01,0-.03,0-.04M5.63,20.26s0,0,0,0c0,0,0,.02,0,.03,0,0,0,.01,0,.02,0-.02,0-.03,0-.05M8.43,20.23c0,.05,0,.11,0,.16,0-.05,0-.11,0-.16M5.64,20.21h0s0,.02,0,.03c0,0,0,0,0,.01,0-.01,0-.03,0-.04M5.64,20.16h0s0,.02,0,.03c0,0,0,0,0,.01,0-.01,0-.03,0-.04M8.43,20.14s0,.05,0,.08c0-.03,0-.05,0-.08M5.64,20.11s0,.02,0,.03c0,0,0,0,0,0,0-.01,0-.03,0-.04M5.64,20.07s0,.02,0,.03c0,0,0,0,0,0,0-.01,0-.02,0-.03M5.65,20.03s0,.01,0,.02c0,0,0,0,0,0,0,0,0-.01,0-.02M5.65,20s0,0,0,0h0s0,0,0,0M9.25,15.81c-.46,1.39-.74,2.85-.82,4.33.08-1.48.35-2.94.82-4.33h0" style="fill:#ebebeb;"/><polyline points="9.3 26.27 9.3 26.27 9.3 26.27 9.3 26.27 9.3 26.27" style="fill:#cd5a06;"/><path d="M6.82,14.82c-.64,1.58-1.04,3.26-1.16,4.99h0s0,.03,0,.05c0,0,0,0,0,0,0,.02,0,.03,0,.05,0,0,0,0,0,0,0,.01,0,.03,0,.04,0,0,0,0,0,0,0,.01,0,.02,0,.04.11-1.82.52-3.56,1.18-5.18h0" style="fill:#d3d3d3;"/><polyline points="7.35 15.03 9.25 15.81 9.25 15.81 7.35 15.03" style="fill:#b85005;"/><path d="M5.62,20.87h0s0,.01,0,.02c0,0,0-.01,0-.02M5.62,20.82h0s0,.01,0,.02c0,0,0-.01,0-.02M5.62,20.77h0s0,0,0,0M5.64,20.11h0s0,0,0,0M5.64,20.06h0s0,0,0,.01c0,0,0,0,0-.01M5.65,20.01s0,0,0,0c0,0,0,.02,0,.02,0,0,0-.02,0-.03" style="fill:#d3d3d3;"/><path d="M6.83,14.82c-.66,1.61-1.07,3.35-1.18,5.18,0,0,0,0,0,0,0,0,0,0,0,0,0,0,0,.02,0,.03,0,0,0,.01,0,.02,0,0,0,0,0,0,0,0,0,0,0,.01,0,.01,0,.02,0,.03,0,0,0,0,0,0,0,0,0,0,0,0,0,.01,0,.03,0,.04,0,0,0,0,0,0,0,.01,0,.03,0,.04,0,0,0,0,0,0,0,.01,0,.03,0,.04,0,0,0,0,0,0,0,.02,0,.03,0,.05,0,0,0,0,0,0,0,.01,0,.03,0,.04,0,0,0,0,0,0,0,.01,0,.03,0,.04,0,0,0,0,0,.01v.04s0,0,0,0c0,.01,0,.03,0,.04,0,0,0,0,0,0,0,.01,0,.03,0,.04,0,0,0,0,0,.01,0,.01,0,.02,0,.03,0,0,0,.01,0,.02,0,.01,0,.02,0,.03,0,0,0,.01,0,.02,0,0,0,.02,0,.03,0,0,0,.01,0,.02,0,0,0,.02,0,.03,0,0,0,.02,0,.02h0s0,.02,0,.03c0,0,0,.01,0,.02s0,.01,0,.02h0v.03s0,.01,0,.02c0,.03,0,.05,0,.08,0,.02,0,.04,0,.06v.02s0,.03,0,.04h0s0,.05,0,.06c0,0,0,0,0,0,0,.55.04,1.1.1,1.65,0,0,0,.01,0,.02,0,0,0,0,0,.01,0,.06.01.12.02.19.19,1.46.57,2.89,1.15,4.27l.6-.26,1.79-.76c-.52-1.51-.82-3.09-.88-4.71h0s0-.06,0-.09h0c0-.06,0-.11,0-.17h0s0-.05,0-.08c0,0,0,0,0,0,0-.03,0-.05,0-.08h0s0-.06,0-.09h0s0-.06,0-.09h0s0-.05,0-.08h0s0-.06,0-.08c0,0,0,0,0-.01,0-.02,0-.05,0-.07h0c0-.06,0-.11,0-.16,0,0,0,0,0-.01,0-.03,0-.05,0-.07,0,0,0,0,0,0,0-.03,0-.05,0-.08,0,0,0,0,0,0,0-.05,0-.11,0-.16,0,0,0,0,0,0,0-.03,0-.05,0-.08h0c.08-1.48.35-2.94.82-4.33l-1.9-.78-.52-.21" style="fill:#d3d3d3;"/><polyline points="9.3 26.27 7.5 27.03 9.3 26.27 9.3 26.27" style="fill:#b85005;"/></g></svg>