<?xml version="1.0" encoding="UTF-8"?><svg id="b" xmlns="http://www.w3.org/2000/svg" viewBox="0 0 42.52 42.52"><g id="c"><circle cx="21.26" cy="21.26" r="21.26" style="fill:#fff; opacity:.35;"/><path d="M33.42,31.17l-13.08-13.08c.77-2.51.17-5.35-1.82-7.33-1.86-1.86-4.49-2.51-6.88-1.94-.21.05-.27.31-.12.46l3.48,3.48c.57.57.57,1.5,0,2.07l-1.38,1.38-1.38,1.38c-.26.26-.59.38-.93.41-.04,0-.07.02-.11.02-.26,0-.51-.1-.74-.24-.1-.06-.21-.11-.29-.19l-1.16-1.16-2.32-2.32c-.15-.15-.41-.09-.46.12-.08.33-.13.66-.16.99-.2,2.1.49,4.28,2.1,5.89,1.98,1.98,4.82,2.59,7.33,1.82l13.08,13.08c1.13,1.13,2.88,1.27,4.17.43.18-.12.36-.26.52-.42l.07-.07.07-.07c1.29-1.29,1.29-3.39,0-4.69ZM31.81,32.36c.56.56.56,1.46,0,2.01h0c-.56.56-1.46.56-2.01,0s-.56-1.46,0-2.01h0c.56-.56,1.46-.56,2.01,0Z" style="opacity:.17;"/><path d="M9.23,19.57c1.98,1.98,4.83,2.59,7.33,1.82l13.08,13.08c1.29,1.29,3.39,1.3,4.69,0l.14-.14c1.29-1.29,1.29-3.39,0-4.69l-13.08-13.08c.77-2.51.17-5.35-1.82-7.33-1.86-1.87-4.49-2.51-6.88-1.94-.21.05-.27.31-.12.46l3.48,3.48c.57.57.57,1.5,0,2.07l-2.76,2.76c-.57.57-1.5.57-2.07,0l-3.48-3.48c-.15-.15-.41-.09-.46.12-.57,2.39.08,5.01,1.94,6.88M32.85,32.85c.56-.56.56-1.46,0-2.01-.56-.56-1.46-.56-2.01,0-.56.56-.56,1.46,0,2.01.56.56,1.46.56,2.01,0" style="fill:#5d6364; fill-rule:evenodd;"/><path d="M30.83,30.83s0,0,0,0c-.56.56-.56,1.46,0,2.01.28.28.64.42,1.01.42h0c-.36,0-.73-.14-1.01-.42-.56-.56-.56-1.46,0-2.01h0M7.55,12.49c-.12,0-.23.07-.26.21h0c.03-.13.14-.2.26-.2.07,0,.14.03.2.08l3.48,3.48c.29.29.66.43,1.03.43h0c-.37,0-.75-.14-1.03-.43l-3.48-3.48c-.06-.06-.13-.08-.2-.08" style="fill:#999d9e;"/><path d="M7.55,12.49c-.12,0-.23.07-.26.2h0c-.57,2.39.08,5.01,1.94,6.88,1.43,1.43,3.3,2.14,5.17,2.14.73,0,1.46-.11,2.16-.32l13.08,13.08c.65.65,1.5.97,2.34.97s1.7-.32,2.34-.97l.07-.07-1.55-1.55c-.28.28-.64.42-1.01.42h0c-.36,0-.73-.14-1.01-.42-.56-.56-.56-1.46,0-2.01t0,0L14.67,14.67l-1.38,1.38h0c-.29.29-.66.43-1.03.43h0c-.37,0-.75-.14-1.03-.43l-3.48-3.48c-.06-.06-.13-.08-.2-.08" style="fill:#383d3e;"/><path d="M29.07,29.55c-.12,0-.24-.05-.34-.14l-6.98-6.98c-.19-.19-.19-.49,0-.67.19-.19.49-.19.67,0l6.98,6.98c.19.19.19.49,0,.67-.09.09-.21.14-.34.14Z" style="fill:#fcd385;"/></g></svg>