<?xml version="1.0" encoding="UTF-8"?><svg id="b" xmlns="http://www.w3.org/2000/svg" xmlns:xlink="http://www.w3.org/1999/xlink" viewBox="0 0 42.52 42.52"><defs><clipPath id="d"><path d="M22.44,5c-.42-.38-1.06-.39-1.49,0-.77.7-1.98,1.74-2.76,2.13-3.86,1.96-8.82,2.08-11.02,2.03-.62-.02-1.14.48-1.14,1.11v10.71c0,13.48,13.55,16.8,15.44,17.2.15.03.29.03.43,0,1.88-.4,15.44-3.72,15.44-17.2v-10.71c0-.62-.51-1.12-1.14-1.11-2.2.05-7.16-.07-11.02-2.03-.79-.4-1.99-1.43-2.76-2.13" style="fill:none;"/></clipPath><clipPath id="e"><path d="M21.7,34.61c-2.93-.72-12.12-3.77-12.12-13.63v-8.31c3.06-.14,6.9-.7,10.22-2.39.23-.12.81-.41,1.9-1.27,1.09.86,1.67,1.15,1.9,1.27,3.32,1.68,7.16,2.25,10.22,2.39v8.31c0,9.87-9.2,12.91-12.12,13.63" style="fill:none;"/></clipPath></defs><g id="c"><circle cx="21.26" cy="21.26" r="21.26" style="fill:#fff; opacity:.35;"/><path d="M20.49,8.76c-.4-.36-.99-.36-1.39,0-.72.66-1.85,1.63-2.58,1.99-3.6,1.83-8.24,1.95-10.3,1.9-.58-.01-1.06.45-1.06,1.03v10.01c0,12.6,12.67,15.71,14.43,16.08.14.03.27.03.4,0,1.76-.37,14.43-3.48,14.43-16.08v-10.01c0-.58-.48-1.05-1.06-1.03-2.06.05-6.69-.07-10.3-1.9-.74-.38-1.86-1.34-2.58-1.99Z" style="opacity:.17;"/><path d="M22.44,5c-.42-.38-1.06-.39-1.49,0-.77.7-1.98,1.74-2.76,2.13-3.86,1.96-8.82,2.08-11.02,2.03-.62-.02-1.14.48-1.14,1.11v10.71c0,13.48,13.55,16.8,15.44,17.2.15.03.29.03.43,0,1.88-.4,15.44-3.72,15.44-17.2v-10.71c0-.62-.51-1.12-1.14-1.11-2.2.05-7.16-.07-11.02-2.03-.79-.4-1.99-1.43-2.76-2.13" style="fill:#668980;"/><g style="clip-path:url(#d);"><polyline points="38.2 40.16 21.7 40.16 21.7 3.46 38.2 3.46 38.2 40.16" style="fill:#9fbeaf;"/></g><path d="M21.7,34.61c-2.93-.72-12.12-3.77-12.12-13.63v-8.31c3.06-.14,6.9-.7,10.22-2.39.23-.12.81-.41,1.9-1.27,1.09.86,1.67,1.15,1.9,1.27,3.32,1.68,7.16,2.25,10.22,2.39v8.31c0,9.87-9.2,12.91-12.12,13.63" style="fill:#9db4ad;"/><g style="clip-path:url(#e);"><polyline points="35.29 35.28 21.7 35.28 21.7 8.34 35.29 8.34 35.29 35.28" style="fill:#c5d8cf;"/></g><path d="M20.68,21.64l-.02.11-.09.03h-.05s-.13.04-.13.04h-.02l-.1.02h-.06s-.1.03-.1.03h0c-.28.04-.56.04-.84.03h-.02c-.48-.03-.99-.12-1.49-.29l-.08-.03-.21-.08-.08-.03c-.12-.04-.23-.1-.35-.15-.12-.05-.22-.11-.33-.16-.19-.1-.38-.2-.57-.32-.37-.23-.74-.51-1.08-.82-.25-.22-.48-.44-.68-.68-.09-.1-.17-.19-.25-.28-.08-.1-.15-.2-.23-.29l-.11-.15c-.07-.1-.13-.19-.2-.3-.06-.1-.12-.2-.19-.3-.56-.98-.83-2-.79-2.92v-.12s0-.03,0-.03v-.1s.02-.05.02-.05v-.02h0s.12-.14.12-.14l.12-.03h0l.1-.02.11-.02h.08s.07-.02.07-.02h.14s.18-.02.18-.02h.53s0,0,0,0h.15s.16.03.16.03c1.27.16,2.64.78,3.84,1.84,1.76,1.55,2.64,3.59,2.43,5.25" style="fill:#00845f;"/><path d="M20.11,21.86h0c-.18.02-.37.04-.55.04,0,0,0,0,0,0,.19,0,.37-.01.56-.04M20.38,21.81h0l-.1.02h-.06s-.1.03-.1.03h0l.1-.02h.06s.1-.03.1-.03M20.54,21.78h-.02s-.13.03-.13.03h0l.13-.03h.01M13.78,14.52s-.08,0-.13,0h-.09.52s0,0,0,0h.15s.16.03.16.03c0,0,0,0,0,0h0s-.16-.02-.16-.02h-.15s0,0,0,0c-.11,0-.21-.01-.32-.01" style="fill:#4e8876;"/><path d="M13.87,14.53h-.48s-.11.02-.11.02h-.11s-.08.02-.08.02l-.11.02-.1.02h0l-.12.03-.12.13h0v.08s-.02.1-.02.1v.14c-.05.92.22,1.94.78,2.92.06.1.12.2.19.3.07.11.13.2.2.3l.11.15c.08.1.15.2.23.29.08.1.16.19.25.28.2.24.43.46.68.68.35.31.71.59,1.08.82.19.12.38.22.57.32.11.05.21.11.33.16.12.05.23.11.35.15l.08.03.21.08.08.03c.51.17,1.01.27,1.49.29h.02c.09,0,.19,0,.28,0,.19,0,.37-.01.55-.04h0l.1-.02h.06s.1-.03.1-.03h.02l.13-.03h.02s.01,0,.01,0h.02s0,0,0,0l.1-.13c0-.09-.05-.17-.15-.19-1.18-.21-2.42-.82-3.52-1.79-1.63-1.45-2.51-3.33-2.44-4.92l-.15-.18s0,0,0,0l-.16-.02h-.15s0,0,0,0h-.22" style="fill:#006441;"/><path d="M17.01,17.73l-.22.03.04.22h0s.1.07.28.22c.55.44,1.84,1.52,3.3,3.18h.22s.01-.2.01-.2c-1.97-2.24-3.63-3.44-3.64-3.45" style="fill:#00563e;"/><path d="M27.11,26.83c-1.87,1.49-4,2.25-5.87,2.26h-.04s-.11,0-.11,0h-.14s-.07-.01-.07-.01h-.15s-.02-.01-.02-.01c-.35-.03-.68-.08-1-.16l-.1-.03c-.1-.03-.2-.06-.29-.09-.24-2.3,1.11-5.11,3.67-7.14.21-.17.43-.33.64-.47,2.14-1.5,4.54-2.06,6.45-1.69l.09.02.12.03.1.03.09.02.14.04.14.1.05.14c.15,2.25-1.2,4.97-3.68,6.96" style="fill:#00845f;"/><path d="M28.88,19.39c-1.66,0-3.54.6-5.26,1.8h0c-.21.14-.43.3-.64.47-2.36,1.87-3.69,4.41-3.7,6.59,0,.19,0,.37.03.55.09.03.2.06.29.09l.1.03c.32.08.65.13,1,.16h.02s.15.01.15.01h.07s.14.01.14.01h.11s.04,0,.04,0c-.22-2.29,1.13-5.08,3.67-7.1,1.86-1.47,3.97-2.25,5.83-2.26l-.13-.09-.14-.04-.09-.02-.1-.03-.12-.03-.09-.02s-.02,0-.04,0c-.01,0-.02,0-.04,0,0,0,0,0,0,0-.01,0-.02,0-.03,0,0,0,0,0,0,0-.02,0-.04,0-.06-.01,0,0,0,0,0,0-.32-.05-.66-.08-1.01-.08" style="fill:#006441;"/><path d="M27.48,22.51h0c-3.42,1.45-5.95,4.34-5.96,4.35v.22s.23-.01.23-.01c0,0,.15-.18.44-.47.86-.87,2.9-2.75,5.41-3.8l.08-.2-.2-.08" style="fill:#00563e;"/></g></svg>