<?xml version="1.0" encoding="UTF-8"?><svg id="b" xmlns="http://www.w3.org/2000/svg" viewBox="0 0 42.52 42.52"><g id="c"><circle cx="21.26" cy="21.26" r="21.26" style="fill:#fff; opacity:.35;"/><path d="M2.02,23.9c-.04-.08-.04-.17,0-.25,3.28-6.86,10.29-11.6,18.4-11.6s15.12,4.74,18.4,11.6c.04.08.04.17,0,.25-3.28,6.86-10.29,11.6-18.4,11.6S5.3,30.76,2.02,23.9Z" style="opacity:.17;"/><path d="M3.7,20.78v-.25c3.28-6.86,10.29-11.6,18.4-11.6s15.11,4.74,18.4,11.6v.25c-3.28,6.86-10.29,11.6-18.4,11.6S6.98,27.64,3.7,20.78" style="fill:#f4f4f4;"/><path d="M10.46,28.73h0s0,0,0,0M10.31,28.63s0,0,0,0c0,0,0,0,0,0M10.17,28.52s0,0,0,0c0,0,0,0,0,0M10.11,28.48s0,0,0,0c0,0,0,0,0,0M10.02,28.41s0,0,0,0c0,0,0,0,0,0M9.96,28.37s0,0,.01.01c0,0,0,0-.01-.01M9.87,28.31s0,0,0,0c0,0,0,0,0,0M9.82,28.26s.01,0,.02.01c0,0-.01,0-.02-.01M9.67,28.15s.01,0,.02.01c0,0-.01,0-.02-.01M9.62,28.12s0,0,0,0c0,0,0,0,0,0M9.53,28.04s.01,0,.02.02c0,0-.01-.01-.02-.02M9.47,28s.01.01.02.02c0,0-.01-.01-.02-.02M9.39,27.93s.01.01.02.02c0,0-.01-.01-.02-.02M9.33,27.88s.02.01.03.02c0,0-.02-.01-.03-.02M9.25,27.82s.02.01.03.02c0,0-.02-.01-.03-.02M9.19,27.77l.03.02-.03-.02M9.11,27.7s.02.02.03.03c-.01,0-.02-.02-.03-.03M9.05,27.66s.02.01.03.02c0,0-.02-.01-.03-.02M8.97,27.59s.02.01.03.02c0,0-.02-.01-.03-.02M8.91,27.54s.02.02.03.02c0,0-.02-.02-.03-.02M8.83,27.47s.03.03.05.04c-.02-.01-.03-.03-.05-.04M8.78,27.42s.02.02.03.02c0,0-.02-.02-.03-.02M8.72,27.37s.02.02.03.03c-.01,0-.02-.02-.03-.03M8.65,27.31s.02.01.02.02c0,0-.02-.01-.02-.02M8.59,27.26s.02.01.03.02c0,0-.02-.02-.03-.02M8.51,27.19s.02.02.03.02c0,0-.02-.02-.03-.02M8.46,27.14s.01.01.02.02c0,0-.01-.01-.02-.02M8.38,27.07s.01.01.02.02c0,0-.01-.01-.02-.02M8.32,27.02s.02.01.02.02c0,0-.02-.01-.02-.02M8.25,26.95s.01.01.02.02c0,0-.01-.01-.02-.02M8.19,26.9s.01.01.02.02c0,0-.01-.01-.02-.02M8.13,26.84s.02.02.03.02c0,0-.02-.02-.03-.02M8.06,26.77s.02.02.02.02c0,0-.02-.01-.02-.02M8.01,26.72s.02.02.03.02c0,0-.02-.02-.03-.02M7.93,26.65l.02.02s-.01-.01-.02-.02M7.88,26.6s.02.02.02.02c0,0-.02-.02-.02-.02M7.8,26.52s.02.02.03.03c0,0-.02-.02-.03-.03M7.75,26.47s.01.01.02.02c0,0-.01-.01-.02-.02M7.68,26.4s.01.01.02.02c0,0-.01-.01-.02-.02M7.63,26.35s.01.01.02.02c0,0-.01-.01-.02-.02M7.55,26.27s.01.01.02.02c0,0-.01-.01-.02-.02M7.5,26.22s.01.01.02.02c0,0-.01-.01-.02-.02M7.38,26.09s.01.01.02.02c0,0-.01-.02-.02-.02M7.32,26.04s.01.01.02.02c0,0-.01-.01-.02-.02M7.25,25.96s.01.01.02.02c0,0-.01-.01-.02-.02M7.21,25.91s0,.01.01.02c0,0,0-.01-.01-.02M7.13,25.83s.01.01.02.02c0,0-.01-.01-.02-.02M7.09,25.78s0,.01.01.02c0,0,0-.01-.01-.02M7.01,25.7s0,0,.01.01c0,0,0,0-.01-.01M6.96,25.65s0,.01.01.02c0,0,0-.01-.01-.02M6.89,25.57s0,0,0,0c0,0,0,0,0,0M6.84,25.51s.01.01.02.02c0,0-.01-.01-.02-.02M6.73,25.38s0,.01.01.02c0,0,0-.01-.01-.02M6.61,25.25s0,0,.01.01c0,0,0,0-.01-.01M6.57,25.2s0,0,0,0c0,0,0,0,0,0M6.49,25.11s0,0,.01.01c0,0,0,0-.01-.01M6.45,25.06s0,0,0,0c0,0,0,0,0,0M6.38,24.97s0,0,0,0c0,0,0,0,0,0M6.34,24.92s0,0,.01.01c0,0,0,0-.01-.01M6.22,24.78s0,0,0,.01c0,0,0,0,0-.01M6.11,24.64s0,0,0,.01c0,0,0,0,0-.01M6,24.5s0,0,0,0c0,0,0,0,0,0M5.89,24.35s0,0,0,0c0,0,0,0,0,0M5.74,24.16h0s0,0,0,0M5.53,23.86s0,0,0,0c0,0,0,0,0,0M5.32,23.57s0,0,0,0c0,0,0,0,0,0M5.08,23.21h0s0,0,0,0M4.98,23.06s0,0,0,0c0,0,0,0,0,0M4.88,22.91s0,0,0,0h0M4.78,22.76s0,0,0,0c0,0,0,0,0,0M4.69,22.6s0,0,0,0c0,0,0,0,0,0M4.66,22.55s0,0,0,0c0,0,0,0,0,0M4.56,22.39s0,0,0,0c0,0,0,0,0,0M4.47,22.23s0,0,0,.01c0,0,0,0,0-.01M4.38,22.07s0,.01,0,.02c0,0,0-.01,0-.02M4.35,22.02s0,0,0,0c0,0,0,0,0,0M4.29,21.91s0,.02.01.02c0,0,0-.01-.01-.02M4.26,21.86s0,0,0,.01c0,0,0,0,0-.01M4.2,21.75s0,.01.01.02c0,0,0-.01-.01-.02M4.16,21.69s0,.02.01.02c0,0,0-.02-.01-.02M4.11,21.59s0,.02.01.02c0,0,0-.02-.01-.02M4.08,21.53s.01.02.01.03c0,0,0-.02-.01-.03M4.03,21.43s.01.02.02.04c0-.01-.01-.02-.02-.04M3.99,21.36s.01.02.02.04c0-.01-.01-.02-.02-.04M3.94,21.27s.02.04.03.06c-.01-.02-.02-.04-.03-.06M3.91,21.2s.01.02.02.04c0-.01-.01-.02-.02-.04M3.86,21.11s.02.04.03.06c-.01-.02-.02-.04-.03-.06M3.83,21.04s.02.03.02.05c0-.02-.02-.03-.02-.05M3.78,20.95s.02.04.03.07c-.01-.02-.02-.04-.03-.07M3.75,20.87s.02.04.03.06c0-.02-.02-.04-.03-.06M3.7,20.78s.02.05.03.07c-.01-.02-.02-.05-.03-.07M3.76,20.41s-.01.02-.02.03c0-.01.01-.02.02-.03M3.81,20.32s-.01.02-.02.03c0-.01.01-.02.02-.03M3.85,20.23s-.01.02-.02.03c0-.01.01-.02.02-.03M3.9,20.14s0,.02-.01.03c0,0,0-.02.01-.03M3.95,20.03s0,.02-.01.03c0,0,0-.02.01-.03M4,19.93s-.01.02-.02.04c0-.01.01-.02.02-.04M4.05,19.84s-.01.02-.02.04c0-.01.01-.02.02-.04M4.1,19.75s-.01.02-.02.03c0-.01.01-.02.02-.03M4.15,19.66s0,.02-.01.02c0,0,0-.01.01-.02M4.21,19.55s-.01.02-.02.03c0-.01.01-.02.02-.03M4.26,19.45s-.01.02-.02.04c0-.01.01-.02.02-.04M4.31,19.37s-.01.02-.02.04c0-.01.01-.02.02-.04M4.36,19.28s-.01.02-.02.03c0-.01.01-.02.02-.03M4.42,19.17s0,.02-.01.02c0,0,0-.02.01-.02M4.47,19.08s-.01.02-.02.03c0-.01.01-.02.02-.03M4.53,18.99s-.01.02-.02.03c0-.01.01-.02.02-.03M4.58,18.9s-.01.02-.02.03c0-.01.01-.02.02-.03M4.63,18.82s-.01.02-.02.03c0,0,.01-.02.02-.03M4.7,18.71s-.01.02-.02.03c0,0,.01-.02.02-.03M4.75,18.62s-.01.02-.02.03c0-.01.01-.02.02-.03M4.8,18.53s-.01.02-.02.03c0-.01.01-.02.02-.03M4.86,18.45s-.01.02-.02.03c0,0,.01-.02.02-.03M4.91,18.36s0,0,0,0c0,0,0,0,0,0M4.98,18.26s-.01.02-.02.02c0,0,.01-.02.02-.02M5.04,18.17s-.01.02-.02.03c0,0,.01-.02.02-.03M5.09,18.08s-.01.02-.02.03c0,0,.01-.02.02-.03M5.15,18s0,0,0,.01c0,0,0,0,0-.01M5.21,17.91s0,0,0,0c0,0,0,0,0,0M5.27,17.81v.02s0-.01,0-.02M5.33,17.73s0,.01-.01.02c0,0,0-.01.01-.02M5.39,17.64s0,0,0,.01c0,0,0,0,0-.01M5.51,17.47s0,0,0,0c0,0,0,0,0,0M5.58,17.38s0,0,0,.01c0,0,0,0,0-.01M5.64,17.29s0,0,0,.01c0,0,0,0,0-.01M5.83,17.04s0,0,0,0h0M5.9,16.95s0,0,0,0c0,0,0,0,0,0" style="fill:#e2e4e4;"/><path d="M13.24,10.96c-2.9,1.4-5.41,3.46-7.35,5.99,0,0,0,0,0,0-.02.03-.04.05-.06.08h0c-.06.09-.13.17-.19.25,0,0,0,0,0,.01-.02.02-.04.05-.05.07,0,0,0,0,0,.01-.02.03-.04.05-.06.08,0,0,0,0,0,0-.04.06-.08.11-.12.17,0,0,0,0,0,.01-.02.02-.03.05-.05.07,0,0,0,.01-.01.02-.02.02-.03.04-.05.07,0,0,0,.01-.01.02-.02.03-.04.05-.05.08,0,0,0,0,0,0-.02.03-.04.06-.06.09,0,0,0,0,0,.01-.02.02-.03.05-.05.07,0,0-.01.02-.02.03-.01.02-.03.04-.04.06,0,0-.01.02-.02.03-.01.02-.03.04-.04.06,0,0-.01.02-.02.02-.02.03-.04.05-.05.08,0,0,0,0,0,0-.02.03-.03.05-.05.08,0,0-.01.02-.02.03-.01.02-.02.04-.04.06,0,.01-.01.02-.02.03-.01.02-.02.04-.03.05,0,.01-.01.02-.02.03-.01.02-.02.04-.03.06,0,0-.01.02-.02.03-.02.03-.03.05-.05.08,0,0-.01.02-.02.03-.01.02-.02.04-.04.06,0,.01-.01.02-.02.03-.01.02-.02.03-.03.05,0,.01-.01.02-.02.03-.01.02-.02.04-.03.05,0,.01-.01.02-.02.03-.01.02-.02.04-.04.06,0,0,0,.02-.01.02-.02.03-.03.06-.05.08,0,.01-.01.02-.02.03,0,.02-.02.04-.03.05,0,.01-.01.02-.02.04,0,.02-.02.03-.03.05,0,.01-.01.02-.02.04-.01.02-.02.04-.03.05,0,.01-.01.02-.02.03-.02.03-.03.06-.05.08,0,0,0,.02-.01.02-.01.02-.02.04-.03.06,0,.01-.01.02-.02.03,0,.02-.02.04-.03.05,0,.01-.01.02-.02.04,0,.02-.02.04-.03.05,0,.01-.01.02-.02.04-.01.02-.02.04-.03.06,0,0,0,.02-.01.03-.01.03-.03.06-.04.09,0,0,0,.02-.01.03-.01.02-.02.04-.03.06,0,.01-.01.02-.02.03,0,.02-.02.04-.03.06,0,.01-.01.02-.02.03,0,.02-.02.04-.03.06,0,.01-.01.02-.02.03-.01.03-.03.06-.04.09h0v.25h0s.02.05.03.07c0,0,0,.01.01.02,0,.02.02.04.03.06,0,0,0,0,0,.01.01.02.02.04.03.07,0,0,0,.02.01.03,0,.02.02.03.02.05,0,0,0,.02.01.02.01.02.02.04.03.06,0,.01.01.02.02.03,0,.01.01.02.02.04,0,.01.01.02.02.03.01.02.02.04.03.06,0,.01.01.02.02.03,0,.01.01.02.02.04,0,.01.01.02.02.03,0,.01.01.02.02.04.01.02.02.04.03.06,0,0,.01.02.01.03,0,.01.01.03.02.04,0,0,0,.02.01.02.01.02.03.05.04.07,0,0,0,.02.01.02,0,.01.01.03.02.04,0,0,0,.01.01.02.01.03.03.05.04.08,0,0,0,0,0,.01,0,.01.02.03.02.04,0,0,0,.02.01.02.02.03.03.06.05.08,0,0,0,0,0,0,0,.01.02.03.03.04,0,0,0,.01,0,.02.03.05.05.09.08.14,0,0,0,0,0,.01.03.05.06.1.09.15,0,0,0,0,0,0,.03.05.06.1.09.15,0,0,0,0,0,0,.01.02.02.03.03.05,0,0,0,0,0,0,.03.05.06.1.09.15,0,0,0,0,0,0,.03.05.06.1.09.15h0c.03.05.06.1.09.15,0,0,0,0,0,0,.03.05.06.1.09.14,0,0,0,0,0,0,.08.12.16.23.23.35,0,0,0,0,0,0,.07.1.14.2.21.29,0,0,0,0,0,0,.07.1.14.19.21.29h0c.05.06.1.13.14.19,0,0,0,0,0,0,.04.05.07.09.11.14,0,0,0,0,0,0,.03.04.07.09.11.13,0,0,0,0,0,.01.03.04.07.09.1.13,0,0,0,0,0,.01.03.04.07.09.1.13,0,0,0,0,.01.01.01.01.02.03.03.04,0,0,0,0,0,0,.02.03.04.05.07.08,0,0,0,0,0,0,.01.01.02.03.03.04,0,0,0,0,.01.01.02.02.04.05.06.07,0,0,0,0,0,0,.01.01.02.03.03.04,0,0,0,0,.01.01.04.04.07.08.11.12,0,0,0,.01.01.02.03.04.07.08.1.12,0,0,.01.01.02.02.01.01.02.03.03.04,0,0,0,0,0,0,.02.03.05.05.07.08,0,0,0,.01.01.02l.03.04s0,0,.01.01c.02.02.04.04.06.07,0,0,0,.01.01.02.01.01.02.02.03.04,0,0,.01.01.02.02.02.02.04.04.06.06,0,0,0,.01.01.02l.03.04s.01.01.02.02c.02.02.04.04.05.06,0,0,.01.01.02.02.01.01.02.02.03.03,0,0,.01.02.02.02.03.04.07.07.1.11,0,0,.01.01.02.02.01.01.02.02.03.03,0,0,.01.01.02.02.02.02.04.04.06.06,0,0,.01.01.02.02.01.01.02.02.03.03,0,0,.01.01.02.02.02.02.04.04.05.05,0,0,.01.01.02.02,0,0,.02.02.03.03,0,0,.02.02.03.03.02.02.03.03.05.05,0,0,.02.02.02.02.01.01.02.02.03.03,0,0,.01.01.02.02.02.02.03.03.05.05,0,0,.02.02.03.02.01,0,.02.02.03.03,0,0,.02.02.02.02.02.02.03.03.05.05,0,0,.02.02.03.02.01.01.02.02.03.03,0,0,.01.01.02.02.01.01.02.02.03.03,0,0,.01.01.02.02.02.02.04.04.06.05,0,0,.02.01.02.02.01,0,.02.02.03.03,0,0,.01.01.02.02.02.02.04.03.06.05,0,0,.01.01.02.02.01,0,.02.02.03.03,0,0,.02.02.03.02.02.01.03.03.05.04,0,0,.02.02.03.02.01,0,.02.02.03.03,0,0,.02.01.02.02.02.01.03.03.05.04.01,0,.02.02.03.03.01,0,.02.02.03.03,0,0,.02.02.03.02,0,0,.02.02.03.02.02.01.03.03.05.04,0,0,.02.02.03.02,0,0,.02.02.03.02.01,0,.02.02.03.03,0,0,.02.01.03.02.02.02.04.03.05.05,0,0,.02.01.03.02.01,0,.02.02.03.03.01,0,.02.02.03.03.02.01.03.03.05.04l.03.02s.02.02.03.03c0,0,.02.01.03.02.02.01.04.03.05.04,0,0,.02.01.03.02.01,0,.02.02.03.03,0,0,.01.01.02.02.02.02.04.03.06.05,0,0,.01.01.02.02.01,0,.02.02.04.03,0,0,.01.01.02.02.03.02.05.04.08.06,0,0,0,0,0,0,.01.01.03.02.04.03,0,0,.01,0,.02.01.04.03.08.06.13.1,0,0,.01,0,.02.01.01.01.03.02.04.03,0,0,0,0,0,0,.03.02.05.04.08.06,0,0,0,0,.01.01.01.01.03.02.04.03,0,0,0,0,0,0,.03.02.06.04.08.06,0,0,0,0,0,0,.02.01.03.02.05.03,0,0,0,0,0,0,.05.03.1.07.14.1,0,0,0,0,0,0,.05.03.1.07.14.1,0,0,0,0,0,0,1.36.95,2.84,1.73,4.42,2.33-3.23-3.11-5.9-6.79-7.84-10.89,1.6-3.38,3.7-6.49,6.2-9.22" style="fill:#dfe0e0;"/><path d="M29.87,20.66c0,4.3-3.48,7.77-7.77,7.77s-7.77-3.48-7.77-7.77,3.48-7.77,7.77-7.77,7.77,3.48,7.77,7.77" style="fill:#99dee8;"/><path d="M26.51,27.06c-.78.26-1.61.4-2.47.4-4.3,0-7.77-3.48-7.77-7.77,0-2.66,1.33-5,3.36-6.4-3.08,1.03-5.3,3.94-5.3,7.37,0,4.3,3.48,7.77,7.77,7.77,1.64,0,3.16-.51,4.41-1.37Z" style="fill:#00adc6;"/><path d="M25.98,20.66c0,2.15-1.74,3.89-3.89,3.89s-3.89-1.74-3.89-3.89,1.74-3.89,3.89-3.89,3.89,1.74,3.89,3.89" style="fill:#343c3d;"/><path d="M22.14,24.54s0,0,0,0c0,0,0,0,0,0M22.17,24.54s0,0,0,0c0,0,0,0,0,0M22.2,24.54s0,0,0,0c0,0,0,0,0,0M22.23,24.54h0,0M22.26,24.54h0s0,0,0,0M22.29,24.54h0s0,0,0,0M22.39,24.53s0,0,0,0c0,0,0,0,0,0M23.97,24.07s-.01,0-.02,0c0,0,.01,0,.02,0M23.98,24.06s0,0,0,0c0,0,0,0,0,0h0" style="fill:#5e8594;"/><path d="M22.1,16.77c-2.15,0-3.89,1.74-3.89,3.89s1.74,3.89,3.89,3.89c0,0,.02,0,.03,0,0,0,0,0,0,0,0,0,.01,0,.02,0,0,0,0,0,0,0,0,0,.02,0,.02,0,0,0,0,0,0,0,.01,0,.02,0,.03,0h0s.02,0,.03,0h0s.02,0,.02,0h0s.06,0,.09,0c0,0,0,0,0,0,.56-.04,1.09-.2,1.57-.46,0,0,.01,0,.02,0,0,0,0,0,0,0,0,0,0,0,0,0-2.12-.03-3.83-1.76-3.83-3.89,0-1.46.81-2.74,2-3.4h-.06" style="fill:#202427;"/><path d="M21.13,17.99c0,.94-.76,1.7-1.7,1.7s-1.7-.76-1.7-1.7.76-1.7,1.7-1.7,1.7.76,1.7,1.7Z" style="fill:#ebe6ef;"/></g></svg>