<?xml version="1.0" encoding="UTF-8"?><svg id="b" xmlns="http://www.w3.org/2000/svg" viewBox="0 0 42.52 42.52"><g id="c"><circle cx="21.26" cy="21.26" r="21.26" style="fill:#fff; opacity:.35;"/><path d="M39.06,28.84c-1.33-2.11-3.46-3.74-6.02-4.54,2.26-2.67,3.18-6.12,2.69-9.42-.02-.11-.11-.22-.23-.25-2.91-.8-6.08-.46-8.82,1.02-.44-4-2.68-7.45-5.91-9.54-.09-.06-.23-.06-.33,0-3.21,2.09-5.44,5.54-5.89,9.54-2.74-1.49-5.91-1.83-8.83-1.02-.11.03-.21.13-.23.25-.48,3.31.44,6.75,2.69,9.41-2.57.8-4.71,2.44-6.04,4.55-.07.11-.06.25.02.35,2.11,2.66,5.59,4.3,9.41,4.09,3.85-.2,7.13-2.22,8.93-5.11.04.02.07.05.11.07.03-.02.05-.04.08-.06,1.8,2.89,5.08,4.9,8.92,5.11,3.83.21,7.31-1.43,9.41-4.09.08-.1.09-.24.02-.35Z" style="opacity:.17;"/><path d="M30.9,32.18c-3.92-.21-7.25-2.29-9.03-5.26,2.09-2.75,5.63-4.47,9.54-4.26,3.83.21,7.11,2.21,8.91,5.07.07.11.06.25-.02.35-2.1,2.66-5.57,4.3-9.41,4.09" style="fill:#fff;"/><path d="M12.86,32.17c3.92-.21,7.24-2.29,9.03-5.26-2.09-2.75-5.63-4.47-9.54-4.26-3.83.21-7.11,2.21-8.91,5.07-.07.11-.06.25.02.35,2.11,2.66,5.59,4.3,9.41,4.09" style="fill:#fff;"/><path d="M34.33,23.19c-.36.43-.76.84-1.2,1.23-2.26,2-5.07,2.99-7.87,2.99-1.06,0-2.11-.14-3.14-.42-.05.03-.1.06-.15.1,1.8,2.88,5.08,4.9,8.93,5.1.22.01.43.02.65.02,3.58,0,6.78-1.6,8.76-4.11.05-.06.07-.13.07-.19,0-.05-.02-.11-.05-.16-1.33-2.11-3.45-3.75-6-4.55" style="fill:#fceaee;"/><path d="M9.45,23.18c-2.56.8-4.69,2.44-6.02,4.55-.03.05-.05.1-.05.16,0,.07.02.14.07.19,1.99,2.51,5.2,4.11,8.76,4.11.21,0,.43,0,.65-.02,3.85-.2,7.13-2.22,8.94-5.1-.04-.03-.08-.05-.12-.08-1.02.28-2.08.42-3.14.42-2.8,0-5.61-.98-7.87-2.99-.44-.39-.84-.81-1.21-1.24" style="fill:#fceaee;"/><path d="M33.13,24.42c-3.17,2.81-7.44,3.62-11.23,2.5-.64-3.9.67-8.04,3.84-10.84,3.12-2.76,7.3-3.59,11.04-2.56.11.03.21.13.23.25.57,3.83-.75,7.87-3.87,10.65" style="fill:#e196aa;"/><path d="M10.66,24.42c3.17,2.81,7.44,3.62,11.23,2.5.64-3.9-.67-8.04-3.84-10.84-3.12-2.77-7.3-3.6-11.05-2.57-.11.03-.21.13-.23.25-.56,3.84.76,7.88,3.89,10.66" style="fill:#e196aa;"/><path d="M28.05,16.01c0,4.68-2.45,8.79-6.15,11.12-3.7-2.32-6.15-6.43-6.15-11.12s2.38-8.67,5.98-11.01c.1-.06.24-.06.33,0,3.62,2.34,6,6.39,6,11.01" style="fill:#e196aa;"/><path d="M21.89,4.96c-.06,0-.12.02-.17.05-3.2,2.08-5.44,5.53-5.89,9.52-.06.49-.08.99-.08,1.49,0,4.69,2.45,8.8,6.15,11.12,3.7-2.33,6.15-6.44,6.15-11.12,0-.5-.03-1-.08-1.49-.45-3.99-2.69-7.44-5.92-9.52-.05-.03-.1-.05-.16-.05" style="fill:#cf6a82;"/></g></svg>